M48
; DRILL file {KiCad (5.99.0-9568-gb9d26a55f2)} date 03/08/21 15:42:24
; FORMAT={-:-/ absolute / inch / decimal}
; #@! TF.CreationDate,2021-03-08T15:42:24+01:00
; #@! TF.GenerationSoftware,Kicad,Pcbnew,(5.99.0-9568-gb9d26a55f2)
FMAT,2
INCH
T1C0.0100
T2C0.0118
T3C0.0394
T4C0.0469
T5C0.0551
T6C0.0630
T7C0.0827
T8C0.0354
T9C0.1063
T10C0.1260
%
G90
G05
T1
X-3.4983Y-0.7506
X-3.4117Y0.4778
X-3.3723Y-1.7269
X-3.3605Y-0.7506
X-3.3329Y0.6746
X-3.2148Y-0.8214
X-3.2148Y-1.0576
X-3.2148Y-1.2545
X-3.2148Y-1.4513
X-3.1597Y0.0447
X-3.1361Y0.3203
X-3.1361Y-0.1915
X-3.1361Y-0.5458
X-3.1124Y0.092
X-3.0967Y-0.0199
X-3.0537Y0.0293
X-2.9628Y-0.9395
X-2.9135Y-0.9395
X-2.8998Y0.0447
X-2.8487Y-0.0222
X-2.6243Y-0.8608
X-2.5809Y-0.5616
X-2.5455Y-0.3332
X-2.5061Y-1.5694
X-2.451Y-1.4769
X-2.4471Y-0.9789
X-2.4471Y-1.0183
X-2.4471Y-1.0576
X-2.4471Y-1.097
X-2.4471Y-1.1364
X-2.4471Y-1.1757
X-2.4471Y-1.2151
X-2.42Y-1.26
X-2.4077Y-0.9592
X-2.38Y-1.26
X-2.3683Y-0.9592
X-2.3487Y-0.6797
X-2.3487Y-0.7466
X-2.34Y-1.26
X-2.329Y-0.9592
X-2.3Y-1.26
X-2.2896Y-0.9592
X-2.26Y-1.26
X-2.2502Y-0.9592
X-2.22Y-1.26
X-2.2109Y-0.9592
X-2.18Y-1.26
X-2.1715Y-0.9592
X-2.14Y-1.26
X-2.1321Y-0.9592
X-2.1Y-1.26
X-2.0928Y-0.9592
X-2.06Y-1.26
X-2.0534Y-0.9592
X-2.02Y-1.26
X-2.014Y-0.9592
X-1.9746Y-0.9789
X-1.9746Y-1.0183
X-1.9746Y-1.0576
X-1.9746Y-1.097
X-1.9746Y-1.1364
X-1.9746Y-1.1757
X-1.9746Y-1.2151
X-1.64Y-0.5852
X-1.5219Y-0.782
X-1.4825Y-1.2545
X-1.1676Y-1.6482
X-1.0888Y0.2022
X-0.7739Y0.6353
X-0.7345Y-0.9002
X-0.7345Y-1.7269
T2
X-0.951Y0.1825
X-0.951Y0.1431
X-0.9313Y0.1628
X-0.9117Y0.1825
X-0.9117Y0.1431
T3
X-3.4117Y0.2981
X-3.4117Y0.1981
X-3.4117Y0.0981
X-3.4117Y-0.0019
X-3.4117Y-0.1019
X-3.4117Y-0.2019
X-3.4117Y-0.3019
X-3.4117Y-0.4019
X-3.4117Y-0.5019
X-3.4117Y-0.6019
T4
X-0.6408Y-0.39
X-0.6408Y-0.49
T5
X-2.9274Y-0.5124
X-1.7876Y-1.7466
X-0.955Y-1.4513
T9
X-2.703Y0.7928
X-2.703Y-1.097
X-1.4038Y0.7928
X-1.4038Y-1.097
T10
X-3.4904Y0.7928
X-3.4904Y-1.8844
X-0.6164Y0.7928
X-0.6164Y-1.8844
T6
G00X-2.7108Y-1.7324
M15
G01X-2.7108Y-1.7324
M16
G05
G00X-2.3707Y-1.7324
M15
G01X-2.3707Y-1.7324
M16
G05
T7
G00X-2.7108Y-1.9435
M15
G01X-2.7108Y-1.9435
M16
G05
G00X-2.3707Y-1.9435
M15
G01X-2.3707Y-1.9435
M16
G05
T8
G00X-1.9412Y-1.5555
M15
G01X-1.9412Y-1.6263
M16
G05
G00X-1.9412Y-1.7901
M15
G01X-1.9412Y-1.861
M16
G05
G00X-1.3703Y-1.5555
M15
G01X-1.3703Y-1.6263
M16
G05
G00X-1.3703Y-1.7901
M15
G01X-1.3703Y-1.861
M16
G05
T0
M30
