%TF.GenerationSoftware,KiCad,Pcbnew,(5.99.0-9568-gb9d26a55f2)*%
%TF.CreationDate,2021-03-08T15:42:00+01:00*%
%TF.ProjectId,cm4_cb_use_v01,636d345f-6362-45f7-9573-655f7630312e,v01*%
%TF.SameCoordinates,PXa0d7c80PY44cb540*%
%TF.FileFunction,Copper,L2,Bot*%
%TF.FilePolarity,Positive*%
%FSLAX46Y46*%
G04 Gerber Fmt 4.6, Leading zero omitted, Abs format (unit mm)*
G04 Created by KiCad (PCBNEW (5.99.0-9568-gb9d26a55f2)) date 2021-03-08 15:42:00*
%MOMM*%
%LPD*%
G01*
G04 APERTURE LIST*
G04 Aperture macros list*
%AMRoundRect*
0 Rectangle with rounded corners*
0 $1 Rounding radius*
0 $2 $3 $4 $5 $6 $7 $8 $9 X,Y pos of 4 corners*
0 Add a 4 corners polygon primitive as box body*
4,1,4,$2,$3,$4,$5,$6,$7,$8,$9,$2,$3,0*
0 Add four circle primitives for the rounded corners*
1,1,$1+$1,$2,$3*
1,1,$1+$1,$4,$5*
1,1,$1+$1,$6,$7*
1,1,$1+$1,$8,$9*
0 Add four rect primitives between the rounded corners*
20,1,$1+$1,$2,$3,$4,$5,0*
20,1,$1+$1,$4,$5,$6,$7,0*
20,1,$1+$1,$6,$7,$8,$9,0*
20,1,$1+$1,$8,$9,$2,$3,0*%
G04 Aperture macros list end*
%TA.AperFunction,Profile*%
%ADD10C,0.100000*%
%TD*%
%TA.AperFunction,ComponentPad*%
%ADD11RoundRect,0.550000X0.000000X-0.500000X0.000000X-0.500000X0.000000X0.500000X0.000000X0.500000X0*%
%TD*%
%TA.AperFunction,ComponentPad*%
%ADD12RoundRect,0.550000X0.000000X-0.750000X0.000000X-0.750000X0.000000X0.750000X0.000000X0.750000X0*%
%TD*%
%TA.AperFunction,ComponentPad*%
%ADD13RoundRect,0.250000X-0.845000X0.620000X-0.845000X-0.620000X0.845000X-0.620000X0.845000X0.620000X0*%
%TD*%
%TA.AperFunction,ComponentPad*%
%ADD14O,2.190000X1.740000*%
%TD*%
%TA.AperFunction,ComponentPad*%
%ADD15R,1.700000X1.700000*%
%TD*%
%TA.AperFunction,ComponentPad*%
%ADD16O,1.700000X1.700000*%
%TD*%
%TA.AperFunction,ComponentPad*%
%ADD17C,0.499999*%
%TD*%
%TA.AperFunction,WasherPad*%
%ADD18O,1.500000X3.300000*%
%TD*%
%TA.AperFunction,ViaPad*%
%ADD19C,0.508000*%
%TD*%
%TA.AperFunction,ViaPad*%
%ADD20C,2.800000*%
%TD*%
%TA.AperFunction,Conductor*%
%ADD21C,1.400000*%
%TD*%
%TA.AperFunction,Conductor*%
%ADD22C,0.300000*%
%TD*%
%TA.AperFunction,Conductor*%
%ADD23C,0.200000*%
%TD*%
G04 APERTURE END LIST*
D10*
X-88656000Y23636000D02*
X-15656000Y23636000D01*
X-12156000Y-47864000D02*
X-12156000Y20136000D01*
X-92156000Y20136000D02*
X-92156000Y-47864000D01*
X-12156000Y20136000D02*
G75*
G03*
X-15656000Y23636000I-3325707J174293D01*
G01*
X-92156002Y20136002D02*
G75*
G02*
X-88656000Y23636000I3500000J-2D01*
G01*
X-15655998Y-51363998D02*
G75*
G03*
X-12156000Y-47864000I0J3499998D01*
G01*
X-88656002Y-51364002D02*
G75*
G02*
X-92156000Y-47864000I2J3500000D01*
G01*
X-88656000Y-51364000D02*
X-15656000Y-51364000D01*
D11*
%TO.P,J3,1*%
%TO.N,N/C*%
X-68855056Y-44004000D03*
%TO.P,J3,2*%
X-60215056Y-44004000D03*
D12*
%TO.P,J3,3*%
X-68855056Y-49364000D03*
%TO.P,J3,4*%
X-60215056Y-49364000D03*
%TD*%
D13*
%TO.P,J4,1,7\u002C4V_VCC*%
%TO.N,+7.4V*%
X-16276000Y-9906000D03*
D14*
%TO.P,J4,2,GND*%
%TO.N,GND*%
X-16276000Y-12446000D03*
%TD*%
D15*
%TO.P,J1,1,Pin_1*%
%TO.N,+3.3V*%
X-86656000Y-15289000D03*
D16*
%TO.P,J1,2,Pin_2*%
%TO.N,GND*%
X-86656000Y-12749000D03*
%TO.P,J1,3,Pin_3*%
%TO.N,/CM4 GPIO/GPIO14*%
X-86656000Y-10209000D03*
%TO.P,J1,4,Pin_4*%
%TO.N,/CM4 GPIO/GPIO15*%
X-86656000Y-7669000D03*
%TO.P,J1,5,Pin_5*%
%TO.N,/CM4 GPIO/GPIO10*%
X-86656000Y-5129000D03*
%TO.P,J1,6,Pin_6*%
%TO.N,/CM4 GPIO/GPIO9*%
X-86656000Y-2589000D03*
%TO.P,J1,7,Pin_7*%
%TO.N,/CM4 GPIO/GPIO11*%
X-86656000Y-49000D03*
%TO.P,J1,8,Pin_8*%
%TO.N,/CM4 GPIO/GPIO8*%
X-86656000Y2491000D03*
%TO.P,J1,9,Pin_9*%
%TO.N,/CM4 GPIO/GPIO7*%
X-86656000Y5031000D03*
%TO.P,J1,10,Pin_10*%
%TO.N,/CM4 GPIO/nRPIBOOT*%
X-86656000Y7571000D03*
%TD*%
D17*
%TO.P,J5,~*%
%TO.N,N/C*%
X-23656000Y4136000D03*
X-24155999Y4635999D03*
X-23156001Y4635999D03*
X-23156001Y3636001D03*
X-24155999Y3636001D03*
%TD*%
D18*
%TO.P,J2,*%
%TO.N,*%
X-49306000Y-40409000D03*
X-34806000Y-40409000D03*
X-49306000Y-46369000D03*
X-34806000Y-46369000D03*
%TD*%
D19*
%TO.N,GND*%
X-55372000Y-32004000D03*
X-63656000Y-39864000D03*
X-58156000Y-24364000D03*
X-62156000Y-30864000D03*
X-61468000Y-32004000D03*
X-18656000Y-22864000D03*
X-27656000Y5136000D03*
X-81656000Y-26864000D03*
X-29656000Y-41864000D03*
X-66656000Y-21864000D03*
X-54156000Y-24364000D03*
X-50156000Y-26864000D03*
X-62156000Y-24864000D03*
X-19656000Y16136000D03*
X-51156000Y-24364000D03*
X-50156000Y-27864000D03*
X-38656000Y-19864000D03*
X-18656000Y-43864000D03*
X-50156000Y-24864000D03*
X-50156000Y-25864000D03*
X-41656000Y-14864000D03*
X-85656000Y-43864000D03*
X-79656000Y-13864000D03*
X-50156000Y-29864000D03*
X-60452000Y-32004000D03*
X-61156000Y-24364000D03*
X-52324000Y-32004000D03*
X-57404000Y-32004000D03*
X-62156000Y-26864000D03*
X-56156000Y-24364000D03*
X-59156000Y-24364000D03*
X-60156000Y-24364000D03*
X-62156000Y-27864000D03*
X-50156000Y-28864000D03*
X-73656000Y1136000D03*
X-37656000Y-31864000D03*
X-53156000Y-24364000D03*
X-84656000Y17136000D03*
X-53340000Y-32004000D03*
X-57156000Y-24364000D03*
X-56388000Y-32004000D03*
X-51308000Y-32004000D03*
X-81656000Y-36864000D03*
X-62156000Y-25864000D03*
X-81656000Y-20864000D03*
X-86656000Y12136000D03*
X-62256000Y-37514000D03*
X-52156000Y-24364000D03*
X-62156000Y-28864000D03*
X-55156000Y-24364000D03*
X-50156000Y-30864000D03*
X-62156000Y-29864000D03*
X-54356000Y-32004000D03*
X-58420000Y-32004000D03*
X-59436000Y-32004000D03*
X-79656000Y8136000D03*
X-79656000Y-4864000D03*
X-81656000Y-31864000D03*
D20*
%TO.N,+5V*%
X-74356000Y-13014000D03*
X-24256000Y-36864000D03*
X-45406000Y-44364000D03*
D19*
%TO.N,+3.3V*%
X-65556000Y-14264000D03*
%TO.N,/CM4 GPIO/nRPIBOOT*%
X-88856000Y-19064000D03*
X-85356000Y-19064000D03*
%TO.N,/CM4 GPIO/GPIO7*%
X-79056000Y2336000D03*
X-77564262Y744262D03*
%TO.N,/CM4 GPIO/GPIO8*%
X-80256000Y1136000D03*
X-78656000Y-505738D03*
%TO.N,/CM4 High Speed/USB2_N*%
X-59656000Y-18964000D03*
X-59656000Y-17264000D03*
%TO.N,/CM4 GPIO/nLED_Activity*%
X-72356000Y-564000D03*
X-64656000Y-8464000D03*
X-75256000Y-23864000D03*
X-74002000Y-23864000D03*
%TD*%
D21*
%TO.N,+5V*%
X-24256000Y-43164000D02*
X-30256000Y-49164000D01*
X-76306000Y-12214000D02*
X-75506000Y-13014000D01*
X-45356000Y-18614000D02*
X-54351989Y-9618011D01*
X-24256000Y-36864000D02*
X-24256000Y-43164000D01*
X-40606000Y-49164000D02*
X-45406000Y-44364000D01*
X-76306000Y-10514000D02*
X-76306000Y-12214000D01*
X-54351989Y-9618011D02*
X-75410011Y-9618011D01*
X-45356000Y-44314000D02*
X-45356000Y-18614000D01*
X-75410011Y-9618011D02*
X-76306000Y-10514000D01*
X-45406000Y-44364000D02*
X-45356000Y-44314000D01*
X-75506000Y-13014000D02*
X-74356000Y-13014000D01*
X-30256000Y-49164000D02*
X-40606000Y-49164000D01*
D22*
%TO.N,+3.3V*%
X-65556000Y-14264000D02*
X-65556000Y-14764000D01*
X-65556000Y-14764000D02*
X-66081000Y-15289000D01*
X-66081000Y-15289000D02*
X-86656000Y-15289000D01*
D23*
%TO.N,/CM4 GPIO/nRPIBOOT*%
X-88856000Y-19064000D02*
X-85356000Y-19064000D01*
%TO.N,/CM4 GPIO/GPIO7*%
X-79056000Y2236000D02*
X-79056000Y2336000D01*
X-77564262Y744262D02*
X-79056000Y2236000D01*
%TO.N,/CM4 GPIO/GPIO8*%
X-80256000Y1094262D02*
X-80256000Y1136000D01*
X-78656000Y-505738D02*
X-80256000Y1094262D01*
%TO.N,/CM4 High Speed/USB2_N*%
X-59656000Y-18964000D02*
X-59656000Y-17264000D01*
%TO.N,/CM4 GPIO/nLED_Activity*%
X-64656000Y-8464000D02*
X-66556000Y-6564000D01*
X-73256000Y-5064000D02*
X-73256000Y-1464000D01*
X-73256000Y-1464000D02*
X-72356000Y-564000D01*
X-66556000Y-6564000D02*
X-71756000Y-6564000D01*
X-66856000Y-6564000D02*
X-66556000Y-6564000D01*
X-71756000Y-6564000D02*
X-73256000Y-5064000D01*
X-74002000Y-23864000D02*
X-75256000Y-23864000D01*
%TD*%
%TA.AperFunction,Conductor*%
%TO.N,GND*%
G36*
X-69492881Y23236093D02*
G01*
X-69456917Y23186593D01*
X-69456917Y23125407D01*
X-69492881Y23075907D01*
X-69521714Y23061453D01*
X-69544029Y23054524D01*
X-69726059Y22998002D01*
X-70043168Y22858470D01*
X-70045590Y22857058D01*
X-70045593Y22857056D01*
X-70241898Y22742574D01*
X-70342443Y22683938D01*
X-70620038Y22476649D01*
X-70622082Y22474726D01*
X-70847375Y22262790D01*
X-70872381Y22239267D01*
X-70874196Y22237123D01*
X-70874197Y22237122D01*
X-71027006Y22056617D01*
X-71096231Y21974846D01*
X-71150860Y21893088D01*
X-71286842Y21689575D01*
X-71288708Y21686783D01*
X-71289989Y21684296D01*
X-71289993Y21684289D01*
X-71446052Y21381282D01*
X-71446056Y21381274D01*
X-71447338Y21378784D01*
X-71448333Y21376158D01*
X-71448336Y21376151D01*
X-71548318Y21112253D01*
X-71570082Y21054807D01*
X-71655362Y20719017D01*
X-71702081Y20375732D01*
X-71703164Y20326085D01*
X-71709171Y20050802D01*
X-71709639Y20029365D01*
X-71677938Y19684368D01*
X-71677365Y19681612D01*
X-71677364Y19681607D01*
X-71672266Y19657100D01*
X-71607386Y19345178D01*
X-71606507Y19342512D01*
X-71606505Y19342505D01*
X-71548271Y19165906D01*
X-71498891Y19016156D01*
X-71353846Y18701530D01*
X-71352386Y18699124D01*
X-71188390Y18428866D01*
X-71174118Y18405346D01*
X-70962015Y18131412D01*
X-70720266Y17883249D01*
X-70451978Y17664049D01*
X-70449627Y17662537D01*
X-70449619Y17662531D01*
X-70162953Y17478141D01*
X-70162947Y17478137D01*
X-70160600Y17476628D01*
X-69849879Y17323397D01*
X-69523809Y17206326D01*
X-69521090Y17205686D01*
X-69521084Y17205684D01*
X-69340219Y17163097D01*
X-69186582Y17126920D01*
X-69183804Y17126591D01*
X-69183803Y17126591D01*
X-69085617Y17114970D01*
X-68842534Y17086199D01*
X-68693061Y17085547D01*
X-68498902Y17084699D01*
X-68498897Y17084699D01*
X-68496087Y17084687D01*
X-68479277Y17086528D01*
X-68154487Y17122098D01*
X-68154479Y17122099D01*
X-68151697Y17122404D01*
X-68148960Y17123023D01*
X-68148956Y17123024D01*
X-67816529Y17198245D01*
X-67816525Y17198246D01*
X-67813790Y17198865D01*
X-67486711Y17313086D01*
X-67484193Y17314300D01*
X-67484187Y17314303D01*
X-67177195Y17462378D01*
X-67177192Y17462380D01*
X-67174664Y17463599D01*
X-66881662Y17648470D01*
X-66879476Y17650224D01*
X-66879471Y17650228D01*
X-66613666Y17863559D01*
X-66613663Y17863562D01*
X-66611471Y17865321D01*
X-66595466Y17881466D01*
X-66369549Y18109363D01*
X-66369544Y18109369D01*
X-66367566Y18111364D01*
X-66351761Y18131412D01*
X-66154830Y18381218D01*
X-66154827Y18381222D01*
X-66153081Y18383437D01*
X-65970774Y18678041D01*
X-65822990Y18991390D01*
X-65711627Y19319453D01*
X-65638118Y19658014D01*
X-65612144Y19915965D01*
X-65603603Y20000781D01*
X-65603602Y20000790D01*
X-65603408Y20002721D01*
X-65602887Y20026569D01*
X-65601819Y20075561D01*
X-65600500Y20136000D01*
X-65609623Y20296658D01*
X-65619982Y20479097D01*
X-65619983Y20479102D01*
X-65620141Y20481892D01*
X-65678812Y20823338D01*
X-65704033Y20909869D01*
X-65774975Y21153258D01*
X-65774976Y21153262D01*
X-65775759Y21155947D01*
X-65815329Y21250310D01*
X-65908645Y21472844D01*
X-65908646Y21472846D01*
X-65909735Y21475443D01*
X-65935841Y21522060D01*
X-66077641Y21775262D01*
X-66079017Y21777719D01*
X-66136956Y21858201D01*
X-66279796Y22056617D01*
X-66279797Y22056618D01*
X-66281431Y22058888D01*
X-66514372Y22315337D01*
X-66565384Y22360074D01*
X-66772733Y22541914D01*
X-66772734Y22541914D01*
X-66774846Y22543767D01*
X-67059506Y22741242D01*
X-67364690Y22905223D01*
X-67367296Y22906263D01*
X-67367301Y22906265D01*
X-67683872Y23032564D01*
X-67686476Y23033603D01*
X-67785082Y23060486D01*
X-67836251Y23094034D01*
X-67857928Y23151250D01*
X-67841834Y23210281D01*
X-67794117Y23248578D01*
X-67759042Y23255000D01*
X-36551072Y23255000D01*
X-36492881Y23236093D01*
X-36456917Y23186593D01*
X-36456917Y23125407D01*
X-36492881Y23075907D01*
X-36521714Y23061453D01*
X-36544029Y23054524D01*
X-36726059Y22998002D01*
X-37043168Y22858470D01*
X-37045590Y22857058D01*
X-37045593Y22857056D01*
X-37241898Y22742574D01*
X-37342443Y22683938D01*
X-37620038Y22476649D01*
X-37622082Y22474726D01*
X-37847375Y22262790D01*
X-37872381Y22239267D01*
X-37874196Y22237123D01*
X-37874197Y22237122D01*
X-38027006Y22056617D01*
X-38096231Y21974846D01*
X-38150860Y21893088D01*
X-38286842Y21689575D01*
X-38288708Y21686783D01*
X-38289989Y21684296D01*
X-38289993Y21684289D01*
X-38446052Y21381282D01*
X-38446056Y21381274D01*
X-38447338Y21378784D01*
X-38448333Y21376158D01*
X-38448336Y21376151D01*
X-38548318Y21112253D01*
X-38570082Y21054807D01*
X-38655362Y20719017D01*
X-38702081Y20375732D01*
X-38703164Y20326085D01*
X-38709171Y20050802D01*
X-38709639Y20029365D01*
X-38677938Y19684368D01*
X-38677365Y19681612D01*
X-38677364Y19681607D01*
X-38672266Y19657100D01*
X-38607386Y19345178D01*
X-38606507Y19342512D01*
X-38606505Y19342505D01*
X-38548271Y19165906D01*
X-38498891Y19016156D01*
X-38353846Y18701530D01*
X-38352386Y18699124D01*
X-38188390Y18428866D01*
X-38174118Y18405346D01*
X-37962015Y18131412D01*
X-37720266Y17883249D01*
X-37451978Y17664049D01*
X-37449627Y17662537D01*
X-37449619Y17662531D01*
X-37162953Y17478141D01*
X-37162947Y17478137D01*
X-37160600Y17476628D01*
X-36849879Y17323397D01*
X-36523809Y17206326D01*
X-36521090Y17205686D01*
X-36521084Y17205684D01*
X-36340219Y17163097D01*
X-36186582Y17126920D01*
X-36183804Y17126591D01*
X-36183803Y17126591D01*
X-36085617Y17114970D01*
X-35842534Y17086199D01*
X-35693061Y17085547D01*
X-35498902Y17084699D01*
X-35498897Y17084699D01*
X-35496087Y17084687D01*
X-35479277Y17086528D01*
X-35154487Y17122098D01*
X-35154479Y17122099D01*
X-35151697Y17122404D01*
X-35148960Y17123023D01*
X-35148956Y17123024D01*
X-34816529Y17198245D01*
X-34816525Y17198246D01*
X-34813790Y17198865D01*
X-34486711Y17313086D01*
X-34484193Y17314300D01*
X-34484187Y17314303D01*
X-34177195Y17462378D01*
X-34177192Y17462380D01*
X-34174664Y17463599D01*
X-33881662Y17648470D01*
X-33879476Y17650224D01*
X-33879471Y17650228D01*
X-33613666Y17863559D01*
X-33613663Y17863562D01*
X-33611471Y17865321D01*
X-33595466Y17881466D01*
X-33369549Y18109363D01*
X-33369544Y18109369D01*
X-33367566Y18111364D01*
X-33351761Y18131412D01*
X-33154830Y18381218D01*
X-33154827Y18381222D01*
X-33153081Y18383437D01*
X-32970774Y18678041D01*
X-32822990Y18991390D01*
X-32711627Y19319453D01*
X-32638118Y19658014D01*
X-32612144Y19915965D01*
X-32603603Y20000781D01*
X-32603602Y20000790D01*
X-32603408Y20002721D01*
X-32602887Y20026569D01*
X-32601819Y20075561D01*
X-32600500Y20136000D01*
X-32603184Y20183262D01*
X-17460881Y20183262D01*
X-17448042Y19915965D01*
X-17419506Y19772505D01*
X-17397287Y19660803D01*
X-17395835Y19653501D01*
X-17305406Y19401637D01*
X-17178743Y19165906D01*
X-17176543Y19162960D01*
X-17048426Y18991390D01*
X-17018628Y18951485D01*
X-16828578Y18763087D01*
X-16612769Y18604849D01*
X-16375941Y18480248D01*
X-16123298Y18392021D01*
X-16119694Y18391337D01*
X-16119695Y18391337D01*
X-15863997Y18342791D01*
X-15863995Y18342791D01*
X-15860388Y18342106D01*
X-15714666Y18336381D01*
X-15596659Y18331744D01*
X-15596656Y18331744D01*
X-15592989Y18331600D01*
X-15456379Y18346561D01*
X-15330615Y18360334D01*
X-15330612Y18360335D01*
X-15326974Y18360733D01*
X-15068187Y18428866D01*
X-14822313Y18534502D01*
X-14819186Y18536437D01*
X-14597880Y18673385D01*
X-14597875Y18673389D01*
X-14594754Y18675320D01*
X-14591539Y18678041D01*
X-14393308Y18845856D01*
X-14390508Y18848226D01*
X-14214064Y19049423D01*
X-14069296Y19274490D01*
X-14050238Y19316796D01*
X-13960893Y19515135D01*
X-13960892Y19515137D01*
X-13959385Y19518483D01*
X-13921306Y19653501D01*
X-13887743Y19772505D01*
X-13887742Y19772508D01*
X-13886746Y19776041D01*
X-13852974Y20041507D01*
X-13852224Y20070151D01*
X-13850565Y20133508D01*
X-13850565Y20133513D01*
X-13850500Y20136000D01*
X-13864626Y20326085D01*
X-13870060Y20399216D01*
X-13870061Y20399222D01*
X-13870332Y20402870D01*
X-13929392Y20663877D01*
X-13933280Y20673876D01*
X-14025052Y20909869D01*
X-14025054Y20909874D01*
X-14026382Y20913288D01*
X-14159173Y21145623D01*
X-14324846Y21355778D01*
X-14327519Y21358292D01*
X-14327524Y21358298D01*
X-14482668Y21504242D01*
X-14519762Y21539137D01*
X-14739639Y21691671D01*
X-14979648Y21810030D01*
X-15189319Y21877147D01*
X-15231012Y21890493D01*
X-15234514Y21891614D01*
X-15454169Y21927387D01*
X-15495023Y21934041D01*
X-15495024Y21934041D01*
X-15498640Y21934630D01*
X-15502303Y21934678D01*
X-15502304Y21934678D01*
X-15632431Y21936381D01*
X-15766223Y21938132D01*
X-15769851Y21937638D01*
X-15769855Y21937638D01*
X-15898804Y21920088D01*
X-16031385Y21902045D01*
X-16288299Y21827162D01*
X-16531324Y21715126D01*
X-16534391Y21713115D01*
X-16534395Y21713113D01*
X-16741102Y21577589D01*
X-16755119Y21568399D01*
X-16757852Y21565960D01*
X-16757853Y21565959D01*
X-16859268Y21475443D01*
X-16954768Y21390206D01*
X-16957115Y21387384D01*
X-16957116Y21387383D01*
X-16985806Y21352887D01*
X-17125886Y21184459D01*
X-17127791Y21181319D01*
X-17127795Y21181314D01*
X-17206213Y21052084D01*
X-17264712Y20955680D01*
X-17266131Y20952295D01*
X-17266133Y20952292D01*
X-17283051Y20911946D01*
X-17368198Y20708894D01*
X-17369103Y20705332D01*
X-17369103Y20705331D01*
X-17393619Y20608797D01*
X-17434070Y20449522D01*
X-17460881Y20183262D01*
X-32603184Y20183262D01*
X-32609623Y20296658D01*
X-32619982Y20479097D01*
X-32619983Y20479102D01*
X-32620141Y20481892D01*
X-32678812Y20823338D01*
X-32704033Y20909869D01*
X-32774975Y21153258D01*
X-32774976Y21153262D01*
X-32775759Y21155947D01*
X-32815329Y21250310D01*
X-32908645Y21472844D01*
X-32908646Y21472846D01*
X-32909735Y21475443D01*
X-32935841Y21522060D01*
X-33077641Y21775262D01*
X-33079017Y21777719D01*
X-33136956Y21858201D01*
X-33279796Y22056617D01*
X-33279797Y22056618D01*
X-33281431Y22058888D01*
X-33514372Y22315337D01*
X-33565384Y22360074D01*
X-33772733Y22541914D01*
X-33772734Y22541914D01*
X-33774846Y22543767D01*
X-34059506Y22741242D01*
X-34364690Y22905223D01*
X-34367296Y22906263D01*
X-34367301Y22906265D01*
X-34683872Y23032564D01*
X-34686476Y23033603D01*
X-34785082Y23060486D01*
X-34836251Y23094034D01*
X-34857928Y23151250D01*
X-34841834Y23210281D01*
X-34794117Y23248578D01*
X-34759042Y23255000D01*
X-15744404Y23255000D01*
X-15720690Y23251418D01*
X-15720681Y23251472D01*
X-15718459Y23251081D01*
X-15715162Y23250583D01*
X-15714545Y23250392D01*
X-15714540Y23250391D01*
X-15708595Y23248553D01*
X-15702378Y23248251D01*
X-15702377Y23248251D01*
X-15702110Y23248238D01*
X-15699080Y23248091D01*
X-15696941Y23248172D01*
X-15696937Y23248172D01*
X-15530561Y23254475D01*
X-15526467Y23254545D01*
X-15487064Y23254407D01*
X-15436832Y23254232D01*
X-15431308Y23254059D01*
X-15183207Y23239320D01*
X-15177715Y23238839D01*
X-15108936Y23230881D01*
X-15103461Y23230092D01*
X-14858574Y23187792D01*
X-14853180Y23186705D01*
X-14785706Y23171128D01*
X-14780357Y23169734D01*
X-14541696Y23100396D01*
X-14536432Y23098706D01*
X-14471180Y23075727D01*
X-14466019Y23073746D01*
X-14236543Y22978225D01*
X-14231501Y22975959D01*
X-14169198Y22945841D01*
X-14164308Y22943306D01*
X-14075693Y22894186D01*
X-13946917Y22822804D01*
X-13942159Y22819991D01*
X-13883598Y22783113D01*
X-13879019Y22780048D01*
X-13826288Y22742574D01*
X-13676392Y22636049D01*
X-13671990Y22632731D01*
X-13619215Y22590602D01*
X-13617935Y22589580D01*
X-13613713Y22586012D01*
X-13428416Y22420338D01*
X-13424399Y22416540D01*
X-13375459Y22367600D01*
X-13371661Y22363583D01*
X-13206021Y22178326D01*
X-13202453Y22174103D01*
X-13159251Y22119985D01*
X-13155923Y22115569D01*
X-13011954Y21912982D01*
X-13008879Y21908389D01*
X-12972019Y21849857D01*
X-12969205Y21845098D01*
X-12848700Y21627703D01*
X-12846155Y21622795D01*
X-12816044Y21560507D01*
X-12813780Y21555469D01*
X-12811763Y21550624D01*
X-12718256Y21325987D01*
X-12716275Y21320826D01*
X-12693296Y21255574D01*
X-12691606Y21250310D01*
X-12622262Y21011625D01*
X-12620868Y21006275D01*
X-12605301Y20938848D01*
X-12604209Y20933429D01*
X-12562622Y20692671D01*
X-12561907Y20688529D01*
X-12561118Y20683057D01*
X-12553163Y20614305D01*
X-12552682Y20608810D01*
X-12543430Y20453083D01*
X-12537941Y20360695D01*
X-12537768Y20355170D01*
X-12537455Y20265530D01*
X-12537525Y20261437D01*
X-12542860Y20120594D01*
X-12542342Y20116540D01*
X-12542342Y20116539D01*
X-12537798Y20080972D01*
X-12537000Y20068426D01*
X-12537000Y-47769827D01*
X-12539134Y-47788746D01*
X-12540304Y-47791949D01*
X-12541245Y-47801429D01*
X-12541272Y-47803553D01*
X-12541272Y-47803559D01*
X-12541644Y-47833210D01*
X-12543246Y-47960960D01*
X-12543424Y-47975112D01*
X-12543551Y-47979032D01*
X-12545834Y-48022587D01*
X-12547692Y-48058040D01*
X-12548098Y-48063206D01*
X-12574596Y-48315323D01*
X-12575273Y-48320462D01*
X-12584999Y-48381868D01*
X-12585943Y-48386964D01*
X-12638645Y-48634912D01*
X-12639855Y-48639951D01*
X-12655965Y-48700076D01*
X-12657432Y-48705029D01*
X-12735761Y-48946101D01*
X-12737480Y-48950956D01*
X-12759802Y-49009106D01*
X-12761762Y-49013838D01*
X-12864868Y-49245418D01*
X-12864869Y-49245420D01*
X-12867089Y-49250075D01*
X-12882103Y-49279542D01*
X-12895353Y-49305545D01*
X-12897825Y-49310098D01*
X-13024549Y-49529593D01*
X-13027258Y-49534013D01*
X-13061156Y-49586211D01*
X-13064091Y-49590482D01*
X-13123447Y-49672179D01*
X-13191393Y-49765699D01*
X-13213077Y-49795544D01*
X-13216226Y-49799648D01*
X-13255415Y-49848041D01*
X-13258742Y-49851936D01*
X-13393949Y-50002100D01*
X-13428331Y-50040285D01*
X-13431898Y-50044045D01*
X-13475955Y-50088102D01*
X-13479714Y-50091668D01*
X-13658501Y-50252649D01*
X-13668035Y-50261233D01*
X-13671970Y-50264594D01*
X-13720364Y-50303782D01*
X-13724448Y-50306917D01*
X-13865985Y-50409750D01*
X-13929508Y-50455902D01*
X-13933779Y-50458837D01*
X-13985977Y-50492735D01*
X-13990396Y-50495443D01*
X-14184300Y-50607394D01*
X-14209914Y-50622182D01*
X-14214449Y-50624644D01*
X-14269936Y-50652916D01*
X-14274548Y-50655116D01*
X-14506171Y-50758240D01*
X-14510886Y-50760194D01*
X-14569028Y-50782512D01*
X-14573875Y-50784229D01*
X-14634435Y-50803906D01*
X-14814982Y-50862569D01*
X-14819936Y-50864037D01*
X-14880041Y-50880142D01*
X-14885058Y-50881346D01*
X-15133040Y-50934056D01*
X-15138132Y-50934999D01*
X-15199552Y-50944727D01*
X-15204668Y-50945401D01*
X-15322087Y-50957743D01*
X-15456769Y-50971899D01*
X-15461936Y-50972305D01*
X-15540967Y-50976447D01*
X-15544867Y-50976573D01*
X-15690877Y-50978405D01*
X-15706543Y-50981215D01*
X-15707814Y-50981443D01*
X-15725293Y-50982998D01*
X-59846868Y-50982999D01*
X-59905059Y-50964092D01*
X-59941023Y-50914592D01*
X-59941023Y-50853406D01*
X-59905059Y-50803906D01*
X-59887159Y-50794399D01*
X-59887323Y-50794072D01*
X-59882181Y-50791497D01*
X-59876773Y-50789534D01*
X-59730440Y-50693593D01*
X-59726491Y-50689424D01*
X-59726487Y-50689421D01*
X-59614058Y-50570738D01*
X-59610102Y-50566562D01*
X-59558240Y-50477276D01*
X-59525105Y-50420229D01*
X-59525105Y-50420228D01*
X-59522216Y-50415255D01*
X-59483614Y-50287803D01*
X-59472967Y-50252649D01*
X-59472967Y-50252647D01*
X-59471495Y-50247788D01*
X-59464556Y-50170036D01*
X-59464556Y-48571105D01*
X-59479818Y-48440197D01*
X-59491268Y-48408651D01*
X-59537558Y-48281126D01*
X-59539521Y-48275718D01*
X-59635462Y-48129385D01*
X-59639631Y-48125436D01*
X-59639634Y-48125432D01*
X-59758317Y-48013003D01*
X-59762493Y-48009047D01*
X-59767463Y-48006160D01*
X-59767466Y-48006158D01*
X-59908826Y-47924050D01*
X-59908827Y-47924050D01*
X-59913800Y-47921161D01*
X-60047305Y-47880726D01*
X-60076406Y-47871912D01*
X-60076408Y-47871912D01*
X-60081267Y-47870440D01*
X-60086327Y-47869988D01*
X-60086329Y-47869988D01*
X-60156832Y-47863696D01*
X-60156836Y-47863696D01*
X-60159030Y-47863500D01*
X-60257944Y-47863500D01*
X-60388860Y-47878763D01*
X-60394266Y-47880725D01*
X-60394269Y-47880726D01*
X-60501072Y-47919494D01*
X-60553339Y-47938466D01*
X-60699672Y-48034407D01*
X-60703621Y-48038576D01*
X-60703625Y-48038579D01*
X-60812732Y-48153756D01*
X-60820010Y-48161438D01*
X-60822897Y-48166408D01*
X-60822899Y-48166411D01*
X-60879292Y-48263500D01*
X-60907896Y-48312745D01*
X-60958617Y-48480212D01*
X-60965556Y-48557964D01*
X-60965556Y-50156895D01*
X-60950294Y-50287803D01*
X-60948332Y-50293209D01*
X-60948331Y-50293212D01*
X-60924428Y-50359064D01*
X-60890591Y-50452282D01*
X-60794650Y-50598615D01*
X-60790481Y-50602564D01*
X-60790478Y-50602568D01*
X-60691062Y-50696745D01*
X-60667619Y-50718953D01*
X-60662649Y-50721840D01*
X-60662646Y-50721842D01*
X-60600000Y-50758229D01*
X-60530853Y-50798393D01*
X-60490032Y-50843969D01*
X-60483796Y-50904835D01*
X-60514527Y-50957743D01*
X-60570487Y-50982483D01*
X-60580578Y-50982999D01*
X-68486869Y-50982999D01*
X-68545060Y-50964092D01*
X-68581024Y-50914592D01*
X-68581024Y-50853406D01*
X-68545060Y-50803906D01*
X-68527159Y-50794400D01*
X-68527323Y-50794072D01*
X-68522181Y-50791497D01*
X-68516773Y-50789534D01*
X-68370440Y-50693593D01*
X-68366491Y-50689424D01*
X-68366487Y-50689421D01*
X-68254058Y-50570738D01*
X-68250102Y-50566562D01*
X-68198240Y-50477276D01*
X-68165105Y-50420229D01*
X-68165105Y-50420228D01*
X-68162216Y-50415255D01*
X-68123614Y-50287803D01*
X-68112967Y-50252649D01*
X-68112967Y-50252647D01*
X-68111495Y-50247788D01*
X-68104556Y-50170036D01*
X-68104556Y-48571105D01*
X-68119818Y-48440197D01*
X-68131268Y-48408651D01*
X-68177558Y-48281126D01*
X-68179521Y-48275718D01*
X-68275462Y-48129385D01*
X-68279631Y-48125436D01*
X-68279634Y-48125432D01*
X-68398317Y-48013003D01*
X-68402493Y-48009047D01*
X-68407463Y-48006160D01*
X-68407466Y-48006158D01*
X-68548826Y-47924050D01*
X-68548827Y-47924050D01*
X-68553800Y-47921161D01*
X-68687305Y-47880726D01*
X-68716406Y-47871912D01*
X-68716408Y-47871912D01*
X-68721267Y-47870440D01*
X-68726327Y-47869988D01*
X-68726329Y-47869988D01*
X-68796832Y-47863696D01*
X-68796836Y-47863696D01*
X-68799030Y-47863500D01*
X-68897944Y-47863500D01*
X-69028860Y-47878763D01*
X-69034266Y-47880725D01*
X-69034269Y-47880726D01*
X-69141072Y-47919494D01*
X-69193339Y-47938466D01*
X-69339672Y-48034407D01*
X-69343621Y-48038576D01*
X-69343625Y-48038579D01*
X-69452732Y-48153756D01*
X-69460010Y-48161438D01*
X-69462897Y-48166408D01*
X-69462899Y-48166411D01*
X-69519292Y-48263500D01*
X-69547896Y-48312745D01*
X-69598617Y-48480212D01*
X-69605556Y-48557964D01*
X-69605556Y-50156895D01*
X-69590294Y-50287803D01*
X-69588332Y-50293209D01*
X-69588331Y-50293212D01*
X-69564428Y-50359064D01*
X-69530591Y-50452282D01*
X-69434650Y-50598615D01*
X-69430481Y-50602564D01*
X-69430478Y-50602568D01*
X-69331062Y-50696745D01*
X-69307619Y-50718953D01*
X-69302649Y-50721840D01*
X-69302646Y-50721842D01*
X-69240000Y-50758229D01*
X-69170853Y-50798393D01*
X-69130032Y-50843969D01*
X-69123796Y-50904835D01*
X-69154527Y-50957743D01*
X-69210487Y-50982483D01*
X-69220578Y-50982999D01*
X-88466892Y-50983000D01*
X-88561839Y-50983000D01*
X-88580751Y-50980867D01*
X-88583951Y-50979698D01*
X-88593431Y-50978757D01*
X-88595555Y-50978730D01*
X-88595561Y-50978730D01*
X-88767074Y-50976578D01*
X-88771013Y-50976450D01*
X-88850067Y-50972307D01*
X-88855234Y-50971901D01*
X-89107289Y-50945410D01*
X-89112428Y-50944733D01*
X-89139048Y-50940517D01*
X-89173915Y-50934995D01*
X-89178998Y-50934053D01*
X-89316457Y-50904835D01*
X-89426910Y-50881357D01*
X-89431949Y-50880147D01*
X-89492098Y-50864030D01*
X-89497044Y-50862565D01*
X-89738111Y-50784237D01*
X-89742968Y-50782517D01*
X-89763563Y-50774611D01*
X-89801085Y-50760208D01*
X-89805849Y-50758234D01*
X-90037429Y-50655128D01*
X-90037431Y-50655127D01*
X-90042108Y-50652896D01*
X-90097533Y-50624656D01*
X-90102089Y-50622183D01*
X-90321611Y-50495443D01*
X-90326031Y-50492734D01*
X-90378202Y-50458853D01*
X-90382473Y-50455918D01*
X-90587555Y-50306917D01*
X-90591667Y-50303761D01*
X-90640002Y-50264620D01*
X-90643943Y-50261255D01*
X-90643967Y-50261233D01*
X-90832322Y-50091638D01*
X-90836074Y-50088078D01*
X-90856704Y-50067448D01*
X-90880106Y-50044045D01*
X-90883630Y-50040332D01*
X-91053250Y-49851949D01*
X-91056607Y-49848017D01*
X-91095774Y-49799650D01*
X-91098930Y-49795538D01*
X-91127101Y-49756763D01*
X-91247922Y-49590467D01*
X-91250854Y-49586199D01*
X-91284725Y-49534042D01*
X-91287434Y-49529623D01*
X-91414178Y-49310096D01*
X-91416651Y-49305540D01*
X-91444901Y-49250095D01*
X-91447132Y-49245418D01*
X-91533644Y-49051110D01*
X-91550238Y-49013839D01*
X-91552201Y-49009101D01*
X-91574517Y-48950967D01*
X-91576236Y-48946112D01*
X-91576239Y-48946101D01*
X-91654561Y-48705052D01*
X-91656033Y-48700082D01*
X-91672147Y-48639943D01*
X-91673357Y-48634903D01*
X-91726053Y-48386986D01*
X-91726997Y-48381890D01*
X-91736729Y-48320446D01*
X-91737406Y-48315307D01*
X-91763901Y-48063219D01*
X-91764307Y-48058053D01*
X-91768448Y-47979052D01*
X-91768576Y-47975112D01*
X-91768753Y-47960960D01*
X-91770407Y-47829121D01*
X-91772628Y-47816738D01*
X-90460881Y-47816738D01*
X-90460705Y-47820404D01*
X-90460705Y-47820406D01*
X-90457036Y-47896788D01*
X-90448042Y-48084035D01*
X-90419506Y-48227495D01*
X-90402039Y-48315307D01*
X-90395835Y-48346499D01*
X-90394595Y-48349954D01*
X-90394594Y-48349956D01*
X-90350642Y-48472371D01*
X-90305406Y-48598363D01*
X-90178743Y-48834094D01*
X-90138411Y-48888105D01*
X-90044510Y-49013854D01*
X-90018628Y-49048515D01*
X-89828578Y-49236913D01*
X-89825617Y-49239084D01*
X-89825616Y-49239085D01*
X-89766895Y-49282141D01*
X-89612769Y-49395151D01*
X-89375941Y-49519752D01*
X-89123298Y-49607979D01*
X-89119694Y-49608663D01*
X-89119695Y-49608663D01*
X-88863997Y-49657209D01*
X-88863995Y-49657209D01*
X-88860388Y-49657894D01*
X-88714666Y-49663619D01*
X-88596659Y-49668256D01*
X-88596656Y-49668256D01*
X-88592989Y-49668400D01*
X-88450234Y-49652766D01*
X-88330615Y-49639666D01*
X-88330612Y-49639665D01*
X-88326974Y-49639267D01*
X-88068187Y-49571134D01*
X-87822313Y-49465498D01*
X-87819186Y-49463563D01*
X-87597880Y-49326615D01*
X-87597875Y-49326611D01*
X-87594754Y-49324680D01*
X-87577526Y-49310096D01*
X-87488021Y-49234324D01*
X-87390508Y-49151774D01*
X-87214064Y-48950577D01*
X-87069296Y-48725510D01*
X-87057841Y-48700082D01*
X-86960893Y-48484865D01*
X-86960892Y-48484863D01*
X-86959385Y-48481517D01*
X-86957646Y-48475351D01*
X-86887743Y-48227495D01*
X-86887742Y-48227492D01*
X-86886746Y-48223959D01*
X-86852974Y-47958493D01*
X-86852072Y-47924050D01*
X-86850565Y-47866492D01*
X-86850565Y-47866487D01*
X-86850500Y-47864000D01*
X-86866744Y-47645411D01*
X-86870060Y-47600784D01*
X-86870061Y-47600778D01*
X-86870332Y-47597130D01*
X-86929392Y-47336123D01*
X-87026382Y-47086712D01*
X-87159173Y-46854377D01*
X-87324846Y-46644222D01*
X-87327519Y-46641708D01*
X-87327524Y-46641702D01*
X-87517090Y-46463377D01*
X-87519762Y-46460863D01*
X-87739639Y-46308329D01*
X-87979648Y-46189970D01*
X-88234514Y-46108386D01*
X-88498640Y-46065370D01*
X-88502303Y-46065322D01*
X-88502304Y-46065322D01*
X-88632431Y-46063619D01*
X-88766223Y-46061868D01*
X-88769851Y-46062362D01*
X-88769855Y-46062362D01*
X-88898804Y-46079911D01*
X-89031385Y-46097955D01*
X-89288299Y-46172838D01*
X-89531324Y-46284874D01*
X-89534391Y-46286885D01*
X-89534395Y-46286887D01*
X-89564616Y-46306701D01*
X-89755119Y-46431601D01*
X-89757852Y-46434040D01*
X-89757853Y-46434041D01*
X-89790721Y-46463377D01*
X-89954768Y-46609794D01*
X-89957115Y-46612616D01*
X-89957116Y-46612617D01*
X-89985806Y-46647113D01*
X-90125886Y-46815541D01*
X-90127791Y-46818681D01*
X-90127795Y-46818686D01*
X-90151387Y-46857565D01*
X-90264712Y-47044320D01*
X-90266131Y-47047705D01*
X-90266133Y-47047708D01*
X-90283922Y-47090131D01*
X-90368198Y-47291106D01*
X-90369103Y-47294668D01*
X-90369103Y-47294669D01*
X-90388895Y-47372602D01*
X-90434070Y-47550478D01*
X-90460881Y-47816738D01*
X-91772628Y-47816738D01*
X-91773445Y-47812184D01*
X-91775000Y-47794705D01*
X-91775000Y-45373588D01*
X-50256500Y-45373588D01*
X-50256500Y-47318224D01*
X-50256247Y-47320712D01*
X-50256247Y-47320717D01*
X-50250976Y-47372602D01*
X-50241984Y-47461130D01*
X-50184234Y-47645411D01*
X-50090608Y-47814317D01*
X-50069617Y-47838807D01*
X-49985881Y-47936503D01*
X-49964931Y-47960946D01*
X-49960964Y-47964023D01*
X-49816298Y-48076239D01*
X-49816293Y-48076242D01*
X-49812338Y-48079310D01*
X-49639061Y-48164573D01*
X-49550462Y-48187651D01*
X-49457036Y-48211987D01*
X-49457032Y-48211988D01*
X-49452178Y-48213252D01*
X-49447166Y-48213515D01*
X-49447164Y-48213515D01*
X-49379134Y-48217080D01*
X-49259324Y-48223359D01*
X-49068377Y-48194481D01*
X-48887136Y-48127798D01*
X-48882878Y-48125158D01*
X-48882876Y-48125157D01*
X-48727270Y-48028677D01*
X-48727269Y-48028676D01*
X-48723006Y-48026033D01*
X-48582691Y-47893343D01*
X-48579817Y-47889238D01*
X-48579814Y-47889235D01*
X-48474798Y-47739256D01*
X-48471923Y-47735150D01*
X-48395226Y-47557914D01*
X-48355734Y-47368877D01*
X-48355500Y-47364412D01*
X-48355500Y-45419776D01*
X-48360059Y-45374891D01*
X-48369509Y-45281857D01*
X-48369510Y-45281853D01*
X-48370016Y-45276870D01*
X-48422638Y-45108953D01*
X-48426267Y-45097372D01*
X-48426267Y-45097371D01*
X-48427766Y-45092589D01*
X-48521392Y-44923683D01*
X-48589126Y-44844657D01*
X-48643803Y-44780864D01*
X-48643805Y-44780862D01*
X-48647069Y-44777054D01*
X-48674831Y-44755520D01*
X-48795702Y-44661761D01*
X-48795707Y-44661758D01*
X-48799662Y-44658690D01*
X-48972939Y-44573427D01*
X-49063864Y-44549743D01*
X-49154964Y-44526013D01*
X-49154968Y-44526012D01*
X-49159822Y-44524748D01*
X-49164834Y-44524485D01*
X-49164836Y-44524485D01*
X-49232866Y-44520920D01*
X-49352676Y-44514641D01*
X-49543623Y-44543519D01*
X-49724864Y-44610202D01*
X-49729122Y-44612842D01*
X-49729124Y-44612843D01*
X-49842617Y-44683212D01*
X-49888994Y-44711967D01*
X-50029309Y-44844657D01*
X-50032183Y-44848762D01*
X-50032186Y-44848765D01*
X-50137202Y-44998744D01*
X-50140077Y-45002850D01*
X-50216774Y-45180086D01*
X-50256266Y-45369123D01*
X-50256500Y-45373588D01*
X-91775000Y-45373588D01*
X-91775000Y-43447964D01*
X-69605556Y-43447964D01*
X-69605556Y-44546895D01*
X-69590294Y-44677803D01*
X-69588332Y-44683209D01*
X-69588331Y-44683212D01*
X-69555385Y-44773977D01*
X-69530591Y-44842282D01*
X-69434650Y-44988615D01*
X-69430481Y-44992564D01*
X-69430478Y-44992568D01*
X-69331062Y-45086745D01*
X-69307619Y-45108953D01*
X-69302649Y-45111840D01*
X-69302646Y-45111842D01*
X-69176712Y-45184990D01*
X-69156312Y-45196839D01*
X-69065426Y-45224366D01*
X-68993706Y-45246088D01*
X-68993704Y-45246088D01*
X-68988845Y-45247560D01*
X-68983785Y-45248012D01*
X-68983783Y-45248012D01*
X-68913280Y-45254304D01*
X-68913276Y-45254304D01*
X-68911082Y-45254500D01*
X-68812168Y-45254500D01*
X-68681252Y-45239237D01*
X-68675846Y-45237275D01*
X-68675843Y-45237274D01*
X-68522181Y-45181497D01*
X-68516773Y-45179534D01*
X-68370440Y-45083593D01*
X-68366491Y-45079424D01*
X-68366487Y-45079421D01*
X-68254058Y-44960738D01*
X-68250102Y-44956562D01*
X-68233554Y-44928074D01*
X-68165105Y-44810229D01*
X-68165105Y-44810228D01*
X-68162216Y-44805255D01*
X-68118756Y-44661761D01*
X-68112967Y-44642649D01*
X-68112967Y-44642647D01*
X-68111495Y-44637788D01*
X-68109129Y-44611284D01*
X-68104752Y-44562234D01*
X-68104752Y-44562230D01*
X-68104556Y-44560036D01*
X-68104556Y-43461105D01*
X-68106088Y-43447964D01*
X-60965556Y-43447964D01*
X-60965556Y-44546895D01*
X-60950294Y-44677803D01*
X-60948332Y-44683209D01*
X-60948331Y-44683212D01*
X-60915385Y-44773977D01*
X-60890591Y-44842282D01*
X-60794650Y-44988615D01*
X-60790481Y-44992564D01*
X-60790478Y-44992568D01*
X-60691062Y-45086745D01*
X-60667619Y-45108953D01*
X-60662649Y-45111840D01*
X-60662646Y-45111842D01*
X-60536712Y-45184990D01*
X-60516312Y-45196839D01*
X-60425426Y-45224366D01*
X-60353706Y-45246088D01*
X-60353704Y-45246088D01*
X-60348845Y-45247560D01*
X-60343785Y-45248012D01*
X-60343783Y-45248012D01*
X-60273280Y-45254304D01*
X-60273276Y-45254304D01*
X-60271082Y-45254500D01*
X-60172168Y-45254500D01*
X-60041252Y-45239237D01*
X-60035846Y-45237275D01*
X-60035843Y-45237274D01*
X-59882181Y-45181497D01*
X-59876773Y-45179534D01*
X-59730440Y-45083593D01*
X-59726491Y-45079424D01*
X-59726487Y-45079421D01*
X-59614058Y-44960738D01*
X-59610102Y-44956562D01*
X-59593554Y-44928074D01*
X-59525105Y-44810229D01*
X-59525105Y-44810228D01*
X-59522216Y-44805255D01*
X-59478756Y-44661761D01*
X-59472967Y-44642649D01*
X-59472967Y-44642647D01*
X-59471495Y-44637788D01*
X-59469129Y-44611284D01*
X-59464752Y-44562234D01*
X-59464752Y-44562230D01*
X-59464556Y-44560036D01*
X-59464556Y-43461105D01*
X-59479818Y-43330197D01*
X-59486911Y-43310654D01*
X-59537558Y-43171126D01*
X-59539521Y-43165718D01*
X-59635462Y-43019385D01*
X-59639631Y-43015436D01*
X-59639634Y-43015432D01*
X-59758317Y-42903003D01*
X-59762493Y-42899047D01*
X-59767463Y-42896160D01*
X-59767466Y-42896158D01*
X-59908826Y-42814050D01*
X-59908827Y-42814050D01*
X-59913800Y-42811161D01*
X-60047305Y-42770726D01*
X-60076406Y-42761912D01*
X-60076408Y-42761912D01*
X-60081267Y-42760440D01*
X-60086327Y-42759988D01*
X-60086329Y-42759988D01*
X-60156832Y-42753696D01*
X-60156836Y-42753696D01*
X-60159030Y-42753500D01*
X-60257944Y-42753500D01*
X-60388860Y-42768763D01*
X-60394266Y-42770725D01*
X-60394269Y-42770726D01*
X-60501072Y-42809494D01*
X-60553339Y-42828466D01*
X-60699672Y-42924407D01*
X-60703621Y-42928576D01*
X-60703625Y-42928579D01*
X-60795250Y-43025301D01*
X-60820010Y-43051438D01*
X-60822897Y-43056408D01*
X-60822899Y-43056411D01*
X-60899528Y-43188338D01*
X-60907896Y-43202745D01*
X-60918357Y-43237284D01*
X-60954675Y-43357198D01*
X-60958617Y-43370212D01*
X-60959069Y-43375272D01*
X-60959069Y-43375274D01*
X-60965360Y-43445766D01*
X-60965556Y-43447964D01*
X-68106088Y-43447964D01*
X-68119818Y-43330197D01*
X-68126911Y-43310654D01*
X-68177558Y-43171126D01*
X-68179521Y-43165718D01*
X-68275462Y-43019385D01*
X-68279631Y-43015436D01*
X-68279634Y-43015432D01*
X-68398317Y-42903003D01*
X-68402493Y-42899047D01*
X-68407463Y-42896160D01*
X-68407466Y-42896158D01*
X-68548826Y-42814050D01*
X-68548827Y-42814050D01*
X-68553800Y-42811161D01*
X-68687305Y-42770726D01*
X-68716406Y-42761912D01*
X-68716408Y-42761912D01*
X-68721267Y-42760440D01*
X-68726327Y-42759988D01*
X-68726329Y-42759988D01*
X-68796832Y-42753696D01*
X-68796836Y-42753696D01*
X-68799030Y-42753500D01*
X-68897944Y-42753500D01*
X-69028860Y-42768763D01*
X-69034266Y-42770725D01*
X-69034269Y-42770726D01*
X-69141072Y-42809494D01*
X-69193339Y-42828466D01*
X-69339672Y-42924407D01*
X-69343621Y-42928576D01*
X-69343625Y-42928579D01*
X-69435250Y-43025301D01*
X-69460010Y-43051438D01*
X-69462897Y-43056408D01*
X-69462899Y-43056411D01*
X-69539528Y-43188338D01*
X-69547896Y-43202745D01*
X-69558357Y-43237284D01*
X-69594675Y-43357198D01*
X-69598617Y-43370212D01*
X-69599069Y-43375272D01*
X-69599069Y-43375274D01*
X-69605360Y-43445766D01*
X-69605556Y-43447964D01*
X-91775000Y-43447964D01*
X-91775000Y-39413588D01*
X-50256500Y-39413588D01*
X-50256500Y-41358224D01*
X-50256247Y-41360712D01*
X-50256247Y-41360717D01*
X-50250976Y-41412602D01*
X-50241984Y-41501130D01*
X-50184234Y-41685411D01*
X-50090608Y-41854317D01*
X-50087343Y-41858126D01*
X-50019921Y-41936788D01*
X-49964931Y-42000946D01*
X-49960964Y-42004023D01*
X-49816298Y-42116239D01*
X-49816293Y-42116242D01*
X-49812338Y-42119310D01*
X-49639061Y-42204573D01*
X-49550462Y-42227651D01*
X-49457036Y-42251987D01*
X-49457032Y-42251988D01*
X-49452178Y-42253252D01*
X-49447166Y-42253515D01*
X-49447164Y-42253515D01*
X-49379134Y-42257080D01*
X-49259324Y-42263359D01*
X-49068377Y-42234481D01*
X-48887136Y-42167798D01*
X-48882878Y-42165158D01*
X-48882876Y-42165157D01*
X-48727270Y-42068677D01*
X-48727269Y-42068676D01*
X-48723006Y-42066033D01*
X-48582691Y-41933343D01*
X-48579817Y-41929238D01*
X-48579814Y-41929235D01*
X-48474798Y-41779256D01*
X-48471923Y-41775150D01*
X-48395226Y-41597914D01*
X-48355734Y-41408877D01*
X-48355500Y-41404412D01*
X-48355500Y-39459776D01*
X-48360059Y-39414891D01*
X-48369509Y-39321857D01*
X-48369510Y-39321853D01*
X-48370016Y-39316870D01*
X-48427766Y-39132589D01*
X-48521392Y-38963683D01*
X-48589126Y-38884657D01*
X-48643803Y-38820864D01*
X-48643805Y-38820862D01*
X-48647069Y-38817054D01*
X-48674831Y-38795520D01*
X-48795702Y-38701761D01*
X-48795707Y-38701758D01*
X-48799662Y-38698690D01*
X-48972939Y-38613427D01*
X-49087758Y-38583519D01*
X-49154964Y-38566013D01*
X-49154968Y-38566012D01*
X-49159822Y-38564748D01*
X-49164834Y-38564485D01*
X-49164836Y-38564485D01*
X-49232866Y-38560920D01*
X-49352676Y-38554641D01*
X-49543623Y-38583519D01*
X-49724864Y-38650202D01*
X-49729122Y-38652842D01*
X-49729124Y-38652843D01*
X-49803067Y-38698690D01*
X-49888994Y-38751967D01*
X-50029309Y-38884657D01*
X-50032183Y-38888762D01*
X-50032186Y-38888765D01*
X-50137202Y-39038744D01*
X-50140077Y-39042850D01*
X-50216774Y-39220086D01*
X-50256266Y-39409123D01*
X-50256500Y-39413588D01*
X-91775000Y-39413588D01*
X-91775000Y-27970635D01*
X-71709639Y-27970635D01*
X-71677938Y-28315632D01*
X-71677365Y-28318388D01*
X-71677364Y-28318393D01*
X-71671887Y-28344725D01*
X-71607386Y-28654822D01*
X-71606507Y-28657488D01*
X-71606505Y-28657495D01*
X-71598027Y-28683204D01*
X-71498891Y-28983844D01*
X-71353846Y-29298470D01*
X-71174118Y-29594654D01*
X-70962015Y-29868588D01*
X-70720266Y-30116751D01*
X-70451978Y-30335951D01*
X-70449627Y-30337463D01*
X-70449619Y-30337469D01*
X-70162953Y-30521859D01*
X-70162947Y-30521863D01*
X-70160600Y-30523372D01*
X-69849879Y-30676603D01*
X-69523809Y-30793674D01*
X-69521090Y-30794314D01*
X-69521084Y-30794316D01*
X-69340219Y-30836903D01*
X-69186582Y-30873080D01*
X-69183804Y-30873409D01*
X-69183803Y-30873409D01*
X-69085617Y-30885030D01*
X-68842534Y-30913801D01*
X-68693061Y-30914453D01*
X-68498902Y-30915301D01*
X-68498897Y-30915301D01*
X-68496087Y-30915313D01*
X-68479277Y-30913472D01*
X-68154487Y-30877902D01*
X-68154479Y-30877901D01*
X-68151697Y-30877596D01*
X-68148960Y-30876977D01*
X-68148956Y-30876976D01*
X-67816529Y-30801755D01*
X-67816525Y-30801754D01*
X-67813790Y-30801135D01*
X-67486711Y-30686914D01*
X-67484193Y-30685700D01*
X-67484187Y-30685697D01*
X-67177195Y-30537622D01*
X-67177192Y-30537620D01*
X-67174664Y-30536401D01*
X-66881662Y-30351530D01*
X-66879476Y-30349776D01*
X-66879471Y-30349772D01*
X-66613666Y-30136441D01*
X-66613663Y-30136438D01*
X-66611471Y-30134679D01*
X-66595466Y-30118534D01*
X-66369549Y-29890637D01*
X-66369544Y-29890631D01*
X-66367566Y-29888636D01*
X-66351761Y-29868588D01*
X-66154830Y-29618782D01*
X-66154827Y-29618778D01*
X-66153081Y-29616563D01*
X-65970774Y-29321959D01*
X-65822990Y-29008610D01*
X-65711627Y-28680547D01*
X-65638118Y-28341986D01*
X-65603408Y-27997279D01*
X-65602887Y-27973431D01*
X-65600543Y-27865949D01*
X-65600500Y-27864000D01*
X-65614113Y-27624268D01*
X-65619982Y-27520903D01*
X-65619983Y-27520898D01*
X-65620141Y-27518108D01*
X-65678812Y-27176662D01*
X-65745485Y-26947916D01*
X-65774975Y-26846742D01*
X-65774976Y-26846738D01*
X-65775759Y-26844053D01*
X-65909735Y-26524557D01*
X-66079017Y-26222281D01*
X-66281431Y-25941112D01*
X-66514372Y-25684663D01*
X-66700229Y-25521670D01*
X-66772733Y-25458086D01*
X-66772734Y-25458086D01*
X-66774846Y-25456233D01*
X-67059506Y-25258758D01*
X-67364690Y-25094777D01*
X-67367296Y-25093737D01*
X-67367301Y-25093735D01*
X-67683872Y-24967436D01*
X-67686476Y-24966397D01*
X-67689179Y-24965660D01*
X-68018025Y-24876006D01*
X-68018031Y-24876005D01*
X-68020726Y-24875270D01*
X-68023487Y-24874845D01*
X-68023492Y-24874844D01*
X-68093947Y-24864000D01*
X-61656000Y-24864000D01*
X-61656000Y-31364000D01*
X-50656000Y-31364000D01*
X-50656000Y-24864000D01*
X-61656000Y-24864000D01*
X-68093947Y-24864000D01*
X-68360373Y-24822993D01*
X-68360379Y-24822992D01*
X-68363143Y-24822567D01*
X-68365942Y-24822457D01*
X-68706523Y-24809075D01*
X-68706525Y-24809075D01*
X-68709326Y-24808965D01*
X-68753424Y-24812242D01*
X-69052031Y-24834432D01*
X-69052040Y-24834433D01*
X-69054823Y-24834640D01*
X-69395192Y-24899261D01*
X-69726059Y-25001998D01*
X-70043168Y-25141530D01*
X-70342443Y-25316062D01*
X-70620038Y-25523351D01*
X-70872381Y-25760733D01*
X-70874196Y-25762877D01*
X-70874197Y-25762878D01*
X-71027006Y-25943383D01*
X-71096231Y-26025154D01*
X-71288708Y-26313217D01*
X-71289989Y-26315704D01*
X-71289993Y-26315711D01*
X-71446052Y-26618718D01*
X-71446056Y-26618726D01*
X-71447338Y-26621216D01*
X-71448333Y-26623842D01*
X-71448336Y-26623849D01*
X-71569086Y-26942563D01*
X-71570082Y-26945193D01*
X-71655362Y-27280983D01*
X-71702081Y-27624268D01*
X-71709639Y-27970635D01*
X-91775000Y-27970635D01*
X-91775000Y-23928744D01*
X-75710916Y-23928744D01*
X-75671768Y-24059646D01*
X-75595860Y-24173249D01*
X-75489905Y-24259511D01*
X-75363268Y-24310804D01*
X-75355896Y-24311442D01*
X-75355894Y-24311443D01*
X-75301772Y-24316130D01*
X-75227148Y-24322593D01*
X-75219917Y-24321036D01*
X-75219914Y-24321036D01*
X-75100813Y-24295395D01*
X-75100811Y-24295394D01*
X-75093578Y-24293837D01*
X-74974369Y-24227076D01*
X-74969260Y-24221721D01*
X-74969258Y-24221719D01*
X-74943927Y-24195165D01*
X-74890080Y-24166111D01*
X-74872294Y-24164500D01*
X-74387810Y-24164500D01*
X-74325307Y-24186725D01*
X-74235905Y-24259511D01*
X-74109268Y-24310804D01*
X-74101896Y-24311442D01*
X-74101894Y-24311443D01*
X-74047772Y-24316130D01*
X-73973148Y-24322593D01*
X-73965917Y-24321036D01*
X-73965914Y-24321036D01*
X-73846813Y-24295395D01*
X-73846811Y-24295394D01*
X-73839578Y-24293837D01*
X-73720369Y-24227076D01*
X-73715261Y-24221721D01*
X-73715258Y-24221719D01*
X-73660674Y-24164500D01*
X-73626060Y-24128215D01*
X-73594873Y-24065800D01*
X-73568299Y-24012616D01*
X-73568298Y-24012614D01*
X-73564990Y-24005993D01*
X-73542557Y-23871218D01*
X-73542500Y-23864000D01*
X-73554367Y-23785063D01*
X-73561713Y-23736205D01*
X-73562813Y-23728888D01*
X-73597929Y-23655758D01*
X-73618752Y-23612395D01*
X-73618753Y-23612394D01*
X-73621956Y-23605723D01*
X-73660986Y-23563500D01*
X-73709677Y-23510827D01*
X-73709679Y-23510825D01*
X-73714701Y-23505392D01*
X-73832847Y-23436768D01*
X-73965948Y-23405916D01*
X-74044425Y-23411473D01*
X-74094853Y-23415043D01*
X-74094854Y-23415043D01*
X-74102237Y-23415566D01*
X-74229663Y-23464864D01*
X-74235477Y-23469448D01*
X-74235478Y-23469448D01*
X-74327822Y-23542246D01*
X-74389112Y-23563500D01*
X-74871683Y-23563500D01*
X-74929874Y-23544593D01*
X-74944381Y-23531702D01*
X-74968701Y-23505392D01*
X-75086847Y-23436768D01*
X-75219948Y-23405916D01*
X-75298425Y-23411473D01*
X-75348853Y-23415043D01*
X-75348854Y-23415043D01*
X-75356237Y-23415566D01*
X-75483663Y-23464864D01*
X-75489477Y-23469448D01*
X-75489478Y-23469448D01*
X-75585148Y-23544868D01*
X-75585149Y-23544870D01*
X-75590961Y-23549451D01*
X-75668644Y-23661848D01*
X-75709843Y-23792118D01*
X-75710916Y-23928744D01*
X-91775000Y-23928744D01*
X-91775000Y-19128744D01*
X-89310916Y-19128744D01*
X-89271768Y-19259646D01*
X-89195860Y-19373249D01*
X-89089905Y-19459511D01*
X-88963268Y-19510804D01*
X-88955896Y-19511442D01*
X-88955894Y-19511443D01*
X-88901772Y-19516130D01*
X-88827148Y-19522593D01*
X-88819917Y-19521036D01*
X-88819914Y-19521036D01*
X-88700813Y-19495395D01*
X-88700811Y-19495394D01*
X-88693578Y-19493837D01*
X-88574369Y-19427076D01*
X-88569260Y-19421721D01*
X-88569258Y-19421719D01*
X-88543927Y-19395165D01*
X-88490080Y-19366111D01*
X-88472294Y-19364500D01*
X-85741810Y-19364500D01*
X-85679307Y-19386725D01*
X-85589905Y-19459511D01*
X-85463268Y-19510804D01*
X-85455896Y-19511442D01*
X-85455894Y-19511443D01*
X-85401772Y-19516130D01*
X-85327148Y-19522593D01*
X-85319917Y-19521036D01*
X-85319914Y-19521036D01*
X-85200813Y-19495395D01*
X-85200811Y-19495394D01*
X-85193578Y-19493837D01*
X-85074369Y-19427076D01*
X-85069261Y-19421721D01*
X-85069258Y-19421719D01*
X-85005460Y-19354841D01*
X-84980060Y-19328215D01*
X-84948873Y-19265800D01*
X-84922299Y-19212616D01*
X-84922298Y-19212614D01*
X-84918990Y-19205993D01*
X-84896557Y-19071218D01*
X-84896500Y-19064000D01*
X-84904239Y-19012520D01*
X-84915713Y-18936205D01*
X-84916813Y-18928888D01*
X-84930916Y-18899517D01*
X-84972752Y-18812395D01*
X-84972753Y-18812394D01*
X-84975956Y-18805723D01*
X-85014986Y-18763500D01*
X-85044380Y-18731702D01*
X-85068701Y-18705392D01*
X-85165011Y-18649451D01*
X-85180449Y-18640484D01*
X-85180450Y-18640484D01*
X-85186847Y-18636768D01*
X-85319948Y-18605916D01*
X-85398425Y-18611473D01*
X-85448853Y-18615043D01*
X-85448854Y-18615043D01*
X-85456237Y-18615566D01*
X-85583663Y-18664864D01*
X-85589477Y-18669448D01*
X-85589478Y-18669448D01*
X-85681822Y-18742246D01*
X-85743112Y-18763500D01*
X-88471683Y-18763500D01*
X-88529874Y-18744593D01*
X-88544381Y-18731702D01*
X-88568701Y-18705392D01*
X-88665011Y-18649451D01*
X-88680449Y-18640484D01*
X-88680450Y-18640484D01*
X-88686847Y-18636768D01*
X-88819948Y-18605916D01*
X-88898425Y-18611473D01*
X-88948853Y-18615043D01*
X-88948854Y-18615043D01*
X-88956237Y-18615566D01*
X-89083663Y-18664864D01*
X-89089477Y-18669448D01*
X-89089478Y-18669448D01*
X-89185148Y-18744868D01*
X-89185149Y-18744870D01*
X-89190961Y-18749451D01*
X-89195168Y-18755538D01*
X-89195169Y-18755539D01*
X-89226098Y-18800289D01*
X-89268644Y-18861848D01*
X-89270876Y-18868906D01*
X-89304446Y-18975054D01*
X-89309843Y-18992118D01*
X-89310916Y-19128744D01*
X-91775000Y-19128744D01*
X-91775000Y-17328744D01*
X-60110916Y-17328744D01*
X-60071768Y-17459646D01*
X-59995860Y-17573249D01*
X-59990124Y-17577919D01*
X-59985141Y-17583395D01*
X-59986910Y-17585005D01*
X-59959805Y-17626989D01*
X-59956500Y-17652355D01*
X-59956500Y-18575165D01*
X-59975407Y-18633356D01*
X-59983334Y-18642937D01*
X-59985147Y-18644868D01*
X-59990961Y-18649451D01*
X-59995168Y-18655538D01*
X-59995169Y-18655539D01*
X-60021005Y-18692921D01*
X-60068644Y-18761848D01*
X-60109843Y-18892118D01*
X-60109901Y-18899517D01*
X-60110686Y-18999517D01*
X-60110916Y-19028744D01*
X-60071768Y-19159646D01*
X-59995860Y-19273249D01*
X-59889905Y-19359511D01*
X-59763268Y-19410804D01*
X-59755896Y-19411442D01*
X-59755894Y-19411443D01*
X-59701772Y-19416130D01*
X-59627148Y-19422593D01*
X-59619917Y-19421036D01*
X-59619914Y-19421036D01*
X-59500813Y-19395395D01*
X-59500811Y-19395394D01*
X-59493578Y-19393837D01*
X-59374369Y-19327076D01*
X-59369261Y-19321721D01*
X-59369258Y-19321719D01*
X-59317153Y-19267098D01*
X-59280060Y-19228215D01*
X-59248873Y-19165800D01*
X-59222299Y-19112616D01*
X-59222298Y-19112614D01*
X-59218990Y-19105993D01*
X-59196557Y-18971218D01*
X-59196500Y-18964000D01*
X-59197401Y-18958003D01*
X-59215713Y-18836205D01*
X-59216813Y-18828888D01*
X-59224732Y-18812395D01*
X-59272752Y-18712395D01*
X-59272753Y-18712394D01*
X-59275956Y-18705723D01*
X-59309488Y-18669448D01*
X-59329198Y-18648126D01*
X-59354814Y-18592561D01*
X-59355500Y-18580925D01*
X-59355500Y-17646943D01*
X-59336593Y-17588752D01*
X-59328133Y-17578608D01*
X-59317153Y-17567098D01*
X-59280060Y-17528215D01*
X-59248873Y-17465800D01*
X-59222299Y-17412616D01*
X-59222298Y-17412614D01*
X-59218990Y-17405993D01*
X-59196557Y-17271218D01*
X-59196500Y-17264000D01*
X-59208367Y-17185063D01*
X-59215713Y-17136205D01*
X-59216813Y-17128888D01*
X-59251929Y-17055758D01*
X-59272752Y-17012395D01*
X-59272753Y-17012394D01*
X-59275956Y-17005723D01*
X-59368701Y-16905392D01*
X-59486847Y-16836768D01*
X-59619948Y-16805916D01*
X-59698425Y-16811473D01*
X-59748853Y-16815043D01*
X-59748854Y-16815043D01*
X-59756237Y-16815566D01*
X-59883663Y-16864864D01*
X-59889477Y-16869448D01*
X-59889478Y-16869448D01*
X-59985148Y-16944868D01*
X-59985149Y-16944870D01*
X-59990961Y-16949451D01*
X-60068644Y-17061848D01*
X-60109843Y-17192118D01*
X-60110916Y-17328744D01*
X-91775000Y-17328744D01*
X-91775000Y-13014634D01*
X-87988838Y-13014634D01*
X-87979180Y-13074599D01*
X-87977158Y-13082709D01*
X-87905404Y-13292882D01*
X-87902044Y-13300538D01*
X-87795900Y-13495625D01*
X-87791301Y-13502599D01*
X-87653809Y-13677006D01*
X-87648095Y-13683113D01*
X-87483187Y-13831858D01*
X-87476525Y-13836914D01*
X-87288905Y-13955752D01*
X-87281494Y-13959610D01*
X-87081331Y-14043135D01*
X-87034910Y-14082994D01*
X-87020782Y-14142526D01*
X-87044344Y-14198992D01*
X-87096597Y-14230825D01*
X-87119456Y-14233500D01*
X-87506000Y-14233500D01*
X-87549800Y-14242213D01*
X-87575076Y-14247240D01*
X-87575078Y-14247241D01*
X-87584641Y-14249143D01*
X-87651310Y-14293690D01*
X-87656729Y-14301800D01*
X-87669789Y-14321346D01*
X-87695857Y-14360359D01*
X-87711500Y-14439000D01*
X-87711500Y-16139000D01*
X-87695857Y-16217641D01*
X-87651310Y-16284310D01*
X-87584641Y-16328857D01*
X-87575078Y-16330759D01*
X-87575076Y-16330760D01*
X-87549800Y-16335787D01*
X-87506000Y-16344500D01*
X-85806000Y-16344500D01*
X-85762200Y-16335787D01*
X-85736924Y-16330760D01*
X-85736922Y-16330759D01*
X-85727359Y-16328857D01*
X-85660690Y-16284310D01*
X-85616143Y-16217641D01*
X-85600500Y-16139000D01*
X-85600500Y-15738500D01*
X-85581593Y-15680309D01*
X-85532093Y-15644345D01*
X-85501500Y-15639500D01*
X-66129674Y-15639500D01*
X-66108838Y-15641718D01*
X-66105748Y-15642383D01*
X-66105744Y-15642383D01*
X-66097746Y-15644105D01*
X-66089626Y-15643144D01*
X-66089623Y-15643144D01*
X-66064635Y-15640186D01*
X-66059111Y-15639860D01*
X-66059113Y-15639836D01*
X-66055046Y-15639500D01*
X-66050961Y-15639500D01*
X-66046935Y-15638830D01*
X-66046924Y-15638829D01*
X-66033870Y-15636656D01*
X-66029258Y-15635999D01*
X-66003505Y-15632951D01*
X-65989945Y-15631346D01*
X-65989944Y-15631346D01*
X-65981818Y-15630384D01*
X-65974836Y-15627031D01*
X-65973487Y-15626605D01*
X-65965847Y-15625333D01*
X-65948286Y-15615858D01*
X-65923803Y-15602648D01*
X-65919649Y-15600532D01*
X-65882204Y-15582550D01*
X-65882203Y-15582549D01*
X-65876586Y-15579852D01*
X-65873978Y-15577660D01*
X-65872467Y-15576149D01*
X-65870880Y-15574694D01*
X-65870773Y-15574811D01*
X-65868501Y-15572808D01*
X-65863112Y-15569900D01*
X-65826463Y-15530254D01*
X-65823770Y-15527452D01*
X-65342572Y-15046254D01*
X-65326271Y-15033091D01*
X-65316744Y-15026939D01*
X-65311678Y-15020513D01*
X-65311676Y-15020511D01*
X-65296102Y-15000756D01*
X-65292430Y-14996623D01*
X-65292448Y-14996608D01*
X-65289797Y-14993479D01*
X-65286918Y-14990600D01*
X-65284549Y-14987284D01*
X-65284545Y-14987280D01*
X-65276841Y-14976499D01*
X-65274057Y-14972790D01*
X-65244473Y-14935263D01*
X-65241905Y-14927952D01*
X-65241257Y-14926704D01*
X-65236751Y-14920398D01*
X-65223061Y-14874620D01*
X-65221622Y-14870192D01*
X-65207857Y-14830996D01*
X-65207857Y-14830995D01*
X-65205794Y-14825121D01*
X-65205500Y-14821727D01*
X-65205500Y-14819588D01*
X-65205408Y-14817455D01*
X-65205249Y-14817462D01*
X-65205058Y-14814420D01*
X-65203304Y-14808556D01*
X-65205424Y-14754586D01*
X-65205500Y-14750700D01*
X-65205500Y-14593808D01*
X-65187497Y-14536883D01*
X-65185169Y-14533571D01*
X-65180060Y-14528215D01*
X-65148873Y-14465800D01*
X-65122299Y-14412616D01*
X-65122298Y-14412614D01*
X-65118990Y-14405993D01*
X-65096557Y-14271218D01*
X-65096500Y-14264000D01*
X-65098733Y-14249143D01*
X-65115713Y-14136205D01*
X-65116813Y-14128888D01*
X-65128808Y-14103907D01*
X-65172752Y-14012395D01*
X-65172753Y-14012394D01*
X-65175956Y-14005723D01*
X-65268701Y-13905392D01*
X-65370686Y-13846155D01*
X-65380449Y-13840484D01*
X-65380450Y-13840484D01*
X-65386847Y-13836768D01*
X-65519948Y-13805916D01*
X-65598425Y-13811473D01*
X-65648853Y-13815043D01*
X-65648854Y-13815043D01*
X-65656237Y-13815566D01*
X-65783663Y-13864864D01*
X-65789477Y-13869448D01*
X-65789478Y-13869448D01*
X-65885148Y-13944868D01*
X-65885149Y-13944870D01*
X-65890961Y-13949451D01*
X-65895168Y-13955538D01*
X-65895169Y-13955539D01*
X-65926098Y-14000289D01*
X-65968644Y-14061848D01*
X-65986607Y-14118646D01*
X-65995350Y-14146293D01*
X-66009843Y-14192118D01*
X-66010916Y-14328744D01*
X-66008796Y-14335833D01*
X-65976903Y-14442477D01*
X-65971768Y-14459646D01*
X-65967656Y-14465800D01*
X-65927009Y-14526632D01*
X-65910400Y-14585520D01*
X-65931577Y-14642924D01*
X-65939320Y-14651638D01*
X-66197186Y-14909504D01*
X-66251703Y-14937281D01*
X-66267190Y-14938500D01*
X-85501500Y-14938500D01*
X-85559691Y-14919593D01*
X-85595655Y-14870093D01*
X-85600500Y-14839500D01*
X-85600500Y-14439000D01*
X-85616143Y-14360359D01*
X-85642211Y-14321346D01*
X-85655271Y-14301800D01*
X-85660690Y-14293690D01*
X-85727359Y-14249143D01*
X-85736922Y-14247241D01*
X-85736924Y-14247240D01*
X-85762200Y-14242213D01*
X-85806000Y-14233500D01*
X-86201948Y-14233500D01*
X-86260139Y-14214593D01*
X-86296103Y-14165093D01*
X-86296103Y-14103907D01*
X-86260139Y-14054407D01*
X-86229485Y-14039407D01*
X-86171568Y-14022635D01*
X-86163776Y-14019644D01*
X-85963901Y-13922806D01*
X-85956719Y-13918541D01*
X-85776030Y-13789419D01*
X-85769654Y-13783992D01*
X-85613309Y-13626277D01*
X-85607945Y-13619861D01*
X-85480404Y-13438053D01*
X-85476195Y-13430821D01*
X-85381113Y-13230125D01*
X-85378185Y-13222297D01*
X-85319701Y-13013535D01*
X-85321405Y-13005552D01*
X-85323276Y-13003870D01*
X-85327379Y-13003000D01*
X-87975032Y-13003000D01*
X-87987717Y-13007122D01*
X-87988321Y-13007953D01*
X-87988838Y-13014634D01*
X-91775000Y-13014634D01*
X-91775000Y-12479569D01*
X-87987425Y-12479569D01*
X-87985626Y-12492788D01*
X-87985272Y-12493157D01*
X-87977949Y-12495000D01*
X-85334486Y-12495000D01*
X-85322659Y-12491157D01*
X-85322362Y-12481299D01*
X-85369335Y-12300320D01*
X-85372108Y-12292446D01*
X-85463327Y-12089946D01*
X-85467390Y-12082646D01*
X-85591415Y-11898425D01*
X-85596663Y-11891898D01*
X-85749954Y-11731207D01*
X-85756213Y-11725670D01*
X-85934391Y-11593102D01*
X-85941500Y-11588694D01*
X-86139471Y-11488040D01*
X-86147209Y-11484898D01*
X-86359313Y-11419039D01*
X-86367473Y-11417245D01*
X-86369576Y-11416966D01*
X-86370288Y-11416626D01*
X-86371569Y-11416344D01*
X-86371503Y-11416045D01*
X-86424779Y-11390579D01*
X-86453929Y-11336784D01*
X-86445892Y-11276129D01*
X-86403738Y-11231782D01*
X-86383195Y-11223471D01*
X-86341858Y-11211929D01*
X-86274305Y-11193068D01*
X-86243911Y-11177715D01*
X-86094756Y-11102371D01*
X-86094754Y-11102370D01*
X-86090435Y-11100188D01*
X-85928107Y-10973363D01*
X-85924945Y-10969700D01*
X-85924940Y-10969695D01*
X-85796668Y-10821089D01*
X-85793504Y-10817424D01*
X-85776482Y-10787461D01*
X-85694142Y-10642517D01*
X-85694141Y-10642514D01*
X-85691753Y-10638311D01*
X-85676645Y-10592897D01*
X-85666164Y-10561390D01*
X-77210259Y-10561390D01*
X-77209448Y-10566509D01*
X-77209448Y-10566513D01*
X-77207719Y-10577427D01*
X-77206500Y-10592914D01*
X-77206500Y-12135086D01*
X-77207719Y-12150572D01*
X-77210259Y-12166610D01*
X-77209988Y-12171786D01*
X-77209988Y-12171790D01*
X-77206636Y-12235743D01*
X-77206500Y-12240924D01*
X-77206500Y-12261573D01*
X-77206228Y-12264158D01*
X-77204341Y-12282117D01*
X-77203935Y-12287284D01*
X-77200624Y-12350468D01*
X-77200352Y-12355651D01*
X-77196215Y-12371089D01*
X-77193384Y-12386363D01*
X-77191713Y-12402264D01*
X-77190112Y-12407192D01*
X-77190111Y-12407196D01*
X-77170553Y-12467390D01*
X-77169082Y-12472358D01*
X-77152703Y-12533483D01*
X-77152699Y-12533493D01*
X-77151357Y-12538502D01*
X-77149000Y-12543127D01*
X-77149000Y-12543128D01*
X-77144100Y-12552745D01*
X-77138156Y-12567095D01*
X-77134820Y-12577362D01*
X-77134818Y-12577367D01*
X-77133215Y-12582300D01*
X-77130622Y-12586791D01*
X-77098976Y-12641604D01*
X-77096503Y-12646159D01*
X-77065416Y-12707171D01*
X-77062151Y-12711203D01*
X-77055357Y-12719593D01*
X-77046559Y-12732395D01*
X-77041161Y-12741745D01*
X-77041157Y-12741750D01*
X-77038565Y-12746240D01*
X-77035095Y-12750094D01*
X-77035092Y-12750098D01*
X-76992731Y-12797145D01*
X-76989368Y-12801082D01*
X-76976389Y-12817110D01*
X-76961789Y-12831710D01*
X-76958222Y-12835470D01*
X-76911898Y-12886918D01*
X-76907697Y-12889970D01*
X-76907695Y-12889972D01*
X-76898763Y-12896461D01*
X-76886949Y-12906550D01*
X-76198550Y-13594949D01*
X-76188461Y-13606763D01*
X-76178918Y-13619898D01*
X-76171833Y-13626277D01*
X-76127470Y-13666222D01*
X-76123710Y-13669789D01*
X-76109110Y-13684389D01*
X-76107097Y-13686019D01*
X-76093084Y-13697367D01*
X-76089147Y-13700730D01*
X-76042096Y-13743094D01*
X-76042091Y-13743098D01*
X-76038240Y-13746565D01*
X-76033757Y-13749153D01*
X-76033749Y-13749159D01*
X-76024395Y-13754559D01*
X-76011593Y-13763357D01*
X-75999171Y-13773417D01*
X-75938124Y-13804522D01*
X-75933620Y-13806968D01*
X-75874300Y-13841215D01*
X-75859093Y-13846156D01*
X-75844750Y-13852098D01*
X-75835125Y-13857002D01*
X-75835121Y-13857003D01*
X-75830502Y-13859357D01*
X-75825494Y-13860699D01*
X-75825486Y-13860702D01*
X-75764358Y-13877082D01*
X-75759390Y-13878553D01*
X-75724181Y-13889993D01*
X-75674680Y-13925957D01*
X-75670362Y-13932420D01*
X-75659925Y-13949451D01*
X-75654877Y-13957689D01*
X-75491260Y-14149260D01*
X-75488293Y-14151794D01*
X-75348465Y-14271218D01*
X-75299689Y-14312877D01*
X-75084882Y-14444511D01*
X-74996083Y-14481293D01*
X-74855718Y-14539434D01*
X-74855713Y-14539436D01*
X-74852127Y-14540921D01*
X-74848353Y-14541827D01*
X-74848350Y-14541828D01*
X-74717401Y-14573266D01*
X-74607156Y-14599734D01*
X-74603291Y-14600038D01*
X-74603286Y-14600039D01*
X-74379205Y-14617674D01*
X-74364665Y-14618818D01*
X-74359875Y-14619195D01*
X-74356000Y-14619500D01*
X-74352125Y-14619195D01*
X-74347334Y-14618818D01*
X-74332795Y-14617674D01*
X-74108714Y-14600039D01*
X-74108709Y-14600038D01*
X-74104844Y-14599734D01*
X-73994599Y-14573266D01*
X-73863650Y-14541828D01*
X-73863647Y-14541827D01*
X-73859873Y-14540921D01*
X-73856287Y-14539436D01*
X-73856282Y-14539434D01*
X-73715917Y-14481293D01*
X-73627118Y-14444511D01*
X-73412311Y-14312877D01*
X-73363534Y-14271218D01*
X-73223707Y-14151794D01*
X-73220740Y-14149260D01*
X-73057123Y-13957689D01*
X-72925489Y-13742882D01*
X-72875987Y-13623374D01*
X-72830566Y-13513718D01*
X-72830564Y-13513713D01*
X-72829079Y-13510127D01*
X-72827271Y-13502599D01*
X-72778761Y-13300538D01*
X-72770266Y-13265156D01*
X-72769645Y-13257273D01*
X-72750805Y-13017875D01*
X-72750500Y-13014000D01*
X-72758956Y-12906550D01*
X-72769961Y-12766714D01*
X-72769962Y-12766709D01*
X-72770266Y-12762844D01*
X-72829079Y-12517873D01*
X-72839316Y-12493157D01*
X-72924001Y-12288711D01*
X-72925489Y-12285118D01*
X-73057123Y-12070311D01*
X-73220740Y-11878740D01*
X-73399962Y-11725670D01*
X-73409351Y-11717651D01*
X-73409352Y-11717651D01*
X-73412311Y-11715123D01*
X-73627118Y-11583489D01*
X-73715917Y-11546707D01*
X-73856282Y-11488566D01*
X-73856287Y-11488564D01*
X-73859873Y-11487079D01*
X-73863647Y-11486173D01*
X-73863650Y-11486172D01*
X-74006602Y-11451852D01*
X-74104844Y-11428266D01*
X-74108709Y-11427962D01*
X-74108714Y-11427961D01*
X-74352125Y-11408805D01*
X-74356000Y-11408500D01*
X-74359875Y-11408805D01*
X-74603286Y-11427961D01*
X-74603291Y-11427962D01*
X-74607156Y-11428266D01*
X-74705398Y-11451852D01*
X-74848350Y-11486172D01*
X-74848353Y-11486173D01*
X-74852127Y-11487079D01*
X-74855713Y-11488564D01*
X-74855718Y-11488566D01*
X-74996083Y-11546707D01*
X-75084882Y-11583489D01*
X-75088201Y-11585523D01*
X-75254773Y-11687598D01*
X-75314268Y-11701882D01*
X-75370795Y-11678467D01*
X-75402765Y-11626298D01*
X-75405500Y-11603187D01*
X-75405500Y-10928007D01*
X-75386593Y-10869816D01*
X-75376504Y-10858003D01*
X-75066008Y-10547507D01*
X-75011491Y-10519730D01*
X-74996004Y-10518511D01*
X-54765996Y-10518511D01*
X-54707805Y-10537418D01*
X-54695992Y-10547507D01*
X-46285496Y-18958003D01*
X-46257719Y-19012520D01*
X-46256500Y-19028007D01*
X-46256500Y-42952575D01*
X-46275407Y-43010766D01*
X-46303769Y-43036983D01*
X-46349689Y-43065123D01*
X-46541260Y-43228740D01*
X-46704877Y-43420311D01*
X-46836511Y-43635118D01*
X-46873293Y-43723917D01*
X-46928231Y-43856551D01*
X-46932921Y-43867873D01*
X-46991734Y-44112844D01*
X-47011500Y-44364000D01*
X-47011195Y-44367875D01*
X-46997235Y-44545252D01*
X-46991734Y-44615156D01*
X-46990828Y-44618929D01*
X-46947416Y-44799750D01*
X-46932921Y-44860127D01*
X-46931436Y-44863713D01*
X-46931434Y-44863718D01*
X-46891247Y-44960738D01*
X-46836511Y-45092882D01*
X-46704877Y-45307689D01*
X-46541260Y-45499260D01*
X-46349689Y-45662877D01*
X-46134882Y-45794511D01*
X-46046083Y-45831293D01*
X-45905718Y-45889434D01*
X-45905713Y-45889436D01*
X-45902127Y-45890921D01*
X-45898353Y-45891827D01*
X-45898350Y-45891828D01*
X-45767401Y-45923266D01*
X-45657156Y-45949734D01*
X-45653291Y-45950038D01*
X-45653286Y-45950039D01*
X-45409875Y-45969195D01*
X-45406000Y-45969500D01*
X-45402125Y-45969195D01*
X-45158716Y-45950039D01*
X-45158713Y-45950038D01*
X-45154844Y-45949734D01*
X-45151968Y-45949044D01*
X-45091767Y-45958582D01*
X-45066714Y-45976785D01*
X-41298551Y-49744949D01*
X-41288463Y-49756762D01*
X-41281970Y-49765699D01*
X-41281964Y-49765706D01*
X-41278918Y-49769898D01*
X-41275069Y-49773364D01*
X-41275065Y-49773368D01*
X-41227480Y-49816213D01*
X-41223720Y-49819780D01*
X-41209111Y-49834389D01*
X-41207107Y-49836012D01*
X-41207099Y-49836019D01*
X-41193057Y-49847390D01*
X-41189115Y-49850757D01*
X-41138240Y-49896565D01*
X-41133749Y-49899158D01*
X-41133742Y-49899163D01*
X-41124395Y-49904559D01*
X-41111594Y-49913356D01*
X-41099171Y-49923416D01*
X-41094549Y-49925771D01*
X-41038159Y-49954503D01*
X-41033604Y-49956976D01*
X-40974300Y-49991215D01*
X-40969367Y-49992818D01*
X-40969362Y-49992820D01*
X-40959095Y-49996156D01*
X-40944745Y-50002100D01*
X-40941471Y-50003768D01*
X-40930502Y-50009357D01*
X-40925493Y-50010699D01*
X-40925483Y-50010703D01*
X-40864358Y-50027082D01*
X-40859390Y-50028553D01*
X-40799196Y-50048111D01*
X-40799192Y-50048112D01*
X-40794264Y-50049713D01*
X-40779592Y-50051255D01*
X-40778363Y-50051384D01*
X-40763089Y-50054215D01*
X-40747651Y-50058352D01*
X-40742472Y-50058623D01*
X-40742468Y-50058624D01*
X-40679284Y-50061935D01*
X-40674117Y-50062341D01*
X-40662694Y-50063541D01*
X-40653573Y-50064500D01*
X-40632924Y-50064500D01*
X-40627743Y-50064636D01*
X-40563790Y-50067988D01*
X-40563786Y-50067988D01*
X-40558610Y-50068259D01*
X-40553491Y-50067448D01*
X-40553487Y-50067448D01*
X-40542573Y-50065719D01*
X-40527086Y-50064500D01*
X-30334914Y-50064500D01*
X-30319427Y-50065719D01*
X-30308513Y-50067448D01*
X-30308509Y-50067448D01*
X-30303390Y-50068259D01*
X-30298214Y-50067988D01*
X-30298210Y-50067988D01*
X-30234257Y-50064636D01*
X-30229076Y-50064500D01*
X-30208427Y-50064500D01*
X-30199306Y-50063541D01*
X-30187883Y-50062341D01*
X-30182716Y-50061935D01*
X-30119532Y-50058624D01*
X-30119528Y-50058623D01*
X-30114349Y-50058352D01*
X-30098911Y-50054215D01*
X-30083637Y-50051384D01*
X-30082408Y-50051255D01*
X-30067736Y-50049713D01*
X-30062808Y-50048112D01*
X-30062804Y-50048111D01*
X-30002610Y-50028553D01*
X-29997642Y-50027082D01*
X-29936517Y-50010703D01*
X-29936507Y-50010699D01*
X-29931498Y-50009357D01*
X-29920529Y-50003768D01*
X-29917255Y-50002100D01*
X-29902905Y-49996156D01*
X-29892638Y-49992820D01*
X-29892633Y-49992818D01*
X-29887700Y-49991215D01*
X-29828396Y-49956976D01*
X-29823841Y-49954503D01*
X-29767451Y-49925771D01*
X-29762829Y-49923416D01*
X-29750406Y-49913356D01*
X-29737605Y-49904559D01*
X-29728255Y-49899161D01*
X-29728250Y-49899157D01*
X-29723760Y-49896565D01*
X-29719906Y-49893095D01*
X-29719902Y-49893092D01*
X-29672855Y-49850731D01*
X-29668914Y-49847365D01*
X-29654907Y-49836022D01*
X-29652890Y-49834389D01*
X-29638281Y-49819780D01*
X-29634530Y-49816222D01*
X-29611558Y-49795538D01*
X-29583082Y-49769898D01*
X-29573538Y-49756762D01*
X-29563450Y-49744949D01*
X-27635239Y-47816738D01*
X-17460881Y-47816738D01*
X-17460705Y-47820404D01*
X-17460705Y-47820406D01*
X-17457036Y-47896788D01*
X-17448042Y-48084035D01*
X-17419506Y-48227495D01*
X-17402039Y-48315307D01*
X-17395835Y-48346499D01*
X-17394595Y-48349954D01*
X-17394594Y-48349956D01*
X-17350642Y-48472371D01*
X-17305406Y-48598363D01*
X-17178743Y-48834094D01*
X-17138411Y-48888105D01*
X-17044510Y-49013854D01*
X-17018628Y-49048515D01*
X-16828578Y-49236913D01*
X-16825617Y-49239084D01*
X-16825616Y-49239085D01*
X-16766895Y-49282141D01*
X-16612769Y-49395151D01*
X-16375941Y-49519752D01*
X-16123298Y-49607979D01*
X-16119694Y-49608663D01*
X-16119695Y-49608663D01*
X-15863997Y-49657209D01*
X-15863995Y-49657209D01*
X-15860388Y-49657894D01*
X-15714666Y-49663619D01*
X-15596659Y-49668256D01*
X-15596656Y-49668256D01*
X-15592989Y-49668400D01*
X-15450234Y-49652766D01*
X-15330615Y-49639666D01*
X-15330612Y-49639665D01*
X-15326974Y-49639267D01*
X-15068187Y-49571134D01*
X-14822313Y-49465498D01*
X-14819186Y-49463563D01*
X-14597880Y-49326615D01*
X-14597875Y-49326611D01*
X-14594754Y-49324680D01*
X-14577526Y-49310096D01*
X-14488021Y-49234324D01*
X-14390508Y-49151774D01*
X-14214064Y-48950577D01*
X-14069296Y-48725510D01*
X-14057841Y-48700082D01*
X-13960893Y-48484865D01*
X-13960892Y-48484863D01*
X-13959385Y-48481517D01*
X-13957646Y-48475351D01*
X-13887743Y-48227495D01*
X-13887742Y-48227492D01*
X-13886746Y-48223959D01*
X-13852974Y-47958493D01*
X-13852072Y-47924050D01*
X-13850565Y-47866492D01*
X-13850565Y-47866487D01*
X-13850500Y-47864000D01*
X-13866744Y-47645411D01*
X-13870060Y-47600784D01*
X-13870061Y-47600778D01*
X-13870332Y-47597130D01*
X-13929392Y-47336123D01*
X-14026382Y-47086712D01*
X-14159173Y-46854377D01*
X-14324846Y-46644222D01*
X-14327519Y-46641708D01*
X-14327524Y-46641702D01*
X-14517090Y-46463377D01*
X-14519762Y-46460863D01*
X-14739639Y-46308329D01*
X-14979648Y-46189970D01*
X-15234514Y-46108386D01*
X-15498640Y-46065370D01*
X-15502303Y-46065322D01*
X-15502304Y-46065322D01*
X-15632431Y-46063619D01*
X-15766223Y-46061868D01*
X-15769851Y-46062362D01*
X-15769855Y-46062362D01*
X-15898804Y-46079911D01*
X-16031385Y-46097955D01*
X-16288299Y-46172838D01*
X-16531324Y-46284874D01*
X-16534391Y-46286885D01*
X-16534395Y-46286887D01*
X-16564616Y-46306701D01*
X-16755119Y-46431601D01*
X-16757852Y-46434040D01*
X-16757853Y-46434041D01*
X-16790721Y-46463377D01*
X-16954768Y-46609794D01*
X-16957115Y-46612616D01*
X-16957116Y-46612617D01*
X-16985806Y-46647113D01*
X-17125886Y-46815541D01*
X-17127791Y-46818681D01*
X-17127795Y-46818686D01*
X-17151387Y-46857565D01*
X-17264712Y-47044320D01*
X-17266131Y-47047705D01*
X-17266133Y-47047708D01*
X-17283922Y-47090131D01*
X-17368198Y-47291106D01*
X-17369103Y-47294668D01*
X-17369103Y-47294669D01*
X-17388895Y-47372602D01*
X-17434070Y-47550478D01*
X-17460881Y-47816738D01*
X-27635239Y-47816738D01*
X-23675051Y-43856551D01*
X-23663238Y-43846463D01*
X-23654301Y-43839970D01*
X-23654294Y-43839964D01*
X-23650102Y-43836918D01*
X-23646636Y-43833069D01*
X-23646632Y-43833065D01*
X-23603787Y-43785480D01*
X-23600220Y-43781720D01*
X-23585611Y-43767111D01*
X-23583988Y-43765107D01*
X-23583981Y-43765099D01*
X-23572610Y-43751057D01*
X-23569243Y-43747115D01*
X-23526909Y-43700098D01*
X-23523435Y-43696240D01*
X-23520842Y-43691749D01*
X-23520837Y-43691742D01*
X-23515441Y-43682395D01*
X-23506643Y-43669593D01*
X-23499848Y-43661202D01*
X-23499847Y-43661201D01*
X-23496584Y-43657171D01*
X-23465504Y-43596172D01*
X-23463031Y-43591616D01*
X-23431378Y-43536792D01*
X-23431376Y-43536789D01*
X-23428785Y-43532300D01*
X-23427180Y-43527361D01*
X-23423842Y-43517090D01*
X-23417900Y-43502744D01*
X-23413001Y-43493128D01*
X-23410644Y-43488502D01*
X-23404071Y-43463972D01*
X-23392919Y-43422356D01*
X-23391447Y-43417387D01*
X-23371890Y-43357198D01*
X-23371890Y-43357196D01*
X-23370287Y-43352264D01*
X-23368614Y-43336352D01*
X-23365788Y-43321103D01*
X-23361648Y-43305651D01*
X-23358065Y-43237284D01*
X-23357659Y-43232117D01*
X-23355772Y-43214158D01*
X-23355500Y-43211573D01*
X-23355500Y-43190924D01*
X-23355364Y-43185743D01*
X-23352012Y-43121790D01*
X-23352012Y-43121786D01*
X-23351741Y-43116610D01*
X-23354281Y-43100572D01*
X-23355500Y-43085086D01*
X-23355500Y-38244322D01*
X-23336593Y-38186131D01*
X-23314968Y-38164505D01*
X-23312311Y-38162877D01*
X-23120740Y-37999260D01*
X-22957123Y-37807689D01*
X-22825489Y-37592882D01*
X-22729079Y-37360127D01*
X-22670266Y-37115156D01*
X-22650500Y-36864000D01*
X-22670266Y-36612844D01*
X-22729079Y-36367873D01*
X-22825489Y-36135118D01*
X-22957123Y-35920311D01*
X-23120740Y-35728740D01*
X-23312311Y-35565123D01*
X-23527118Y-35433489D01*
X-23615917Y-35396707D01*
X-23756282Y-35338566D01*
X-23756287Y-35338564D01*
X-23759873Y-35337079D01*
X-23763647Y-35336173D01*
X-23763650Y-35336172D01*
X-23894599Y-35304734D01*
X-24004844Y-35278266D01*
X-24008709Y-35277962D01*
X-24008714Y-35277961D01*
X-24252125Y-35258805D01*
X-24256000Y-35258500D01*
X-24259875Y-35258805D01*
X-24503286Y-35277961D01*
X-24503291Y-35277962D01*
X-24507156Y-35278266D01*
X-24617401Y-35304734D01*
X-24748350Y-35336172D01*
X-24748353Y-35336173D01*
X-24752127Y-35337079D01*
X-24755713Y-35338564D01*
X-24755718Y-35338566D01*
X-24896083Y-35396707D01*
X-24984882Y-35433489D01*
X-25199689Y-35565123D01*
X-25391260Y-35728740D01*
X-25554877Y-35920311D01*
X-25686511Y-36135118D01*
X-25782921Y-36367873D01*
X-25841734Y-36612844D01*
X-25861500Y-36864000D01*
X-25841734Y-37115156D01*
X-25782921Y-37360127D01*
X-25686511Y-37592882D01*
X-25554877Y-37807689D01*
X-25391260Y-37999260D01*
X-25199689Y-38162877D01*
X-25197165Y-38164423D01*
X-25161343Y-38213737D01*
X-25156500Y-38244322D01*
X-25156500Y-42749992D01*
X-25175407Y-42808183D01*
X-25185496Y-42819996D01*
X-30600003Y-48234504D01*
X-30654520Y-48262281D01*
X-30670007Y-48263500D01*
X-34258459Y-48263500D01*
X-34316650Y-48244593D01*
X-34352614Y-48195093D01*
X-34352614Y-48133907D01*
X-34316650Y-48084407D01*
X-34310628Y-48080361D01*
X-34227270Y-48028677D01*
X-34227269Y-48028676D01*
X-34223006Y-48026033D01*
X-34082691Y-47893343D01*
X-34079817Y-47889238D01*
X-34079814Y-47889235D01*
X-33974798Y-47739256D01*
X-33971923Y-47735150D01*
X-33895226Y-47557914D01*
X-33855734Y-47368877D01*
X-33855500Y-47364412D01*
X-33855500Y-45419776D01*
X-33860059Y-45374891D01*
X-33869509Y-45281857D01*
X-33869510Y-45281853D01*
X-33870016Y-45276870D01*
X-33922638Y-45108953D01*
X-33926267Y-45097372D01*
X-33926267Y-45097371D01*
X-33927766Y-45092589D01*
X-34021392Y-44923683D01*
X-34089126Y-44844657D01*
X-34143803Y-44780864D01*
X-34143805Y-44780862D01*
X-34147069Y-44777054D01*
X-34174831Y-44755520D01*
X-34295702Y-44661761D01*
X-34295707Y-44661758D01*
X-34299662Y-44658690D01*
X-34472939Y-44573427D01*
X-34563864Y-44549743D01*
X-34654964Y-44526013D01*
X-34654968Y-44526012D01*
X-34659822Y-44524748D01*
X-34664834Y-44524485D01*
X-34664836Y-44524485D01*
X-34732866Y-44520920D01*
X-34852676Y-44514641D01*
X-35043623Y-44543519D01*
X-35224864Y-44610202D01*
X-35229122Y-44612842D01*
X-35229124Y-44612843D01*
X-35342617Y-44683212D01*
X-35388994Y-44711967D01*
X-35529309Y-44844657D01*
X-35532183Y-44848762D01*
X-35532186Y-44848765D01*
X-35637202Y-44998744D01*
X-35640077Y-45002850D01*
X-35716774Y-45180086D01*
X-35756266Y-45369123D01*
X-35756500Y-45373588D01*
X-35756500Y-47318224D01*
X-35756247Y-47320712D01*
X-35756247Y-47320717D01*
X-35750976Y-47372602D01*
X-35741984Y-47461130D01*
X-35684234Y-47645411D01*
X-35590608Y-47814317D01*
X-35569617Y-47838807D01*
X-35485881Y-47936503D01*
X-35464931Y-47960946D01*
X-35460964Y-47964023D01*
X-35324403Y-48069951D01*
X-35312338Y-48079310D01*
X-35309109Y-48080899D01*
X-35270078Y-48127415D01*
X-35265811Y-48188452D01*
X-35298235Y-48240339D01*
X-35354965Y-48263259D01*
X-35361870Y-48263500D01*
X-40191992Y-48263500D01*
X-40250183Y-48244593D01*
X-40261996Y-48234504D01*
X-43793215Y-44703286D01*
X-43820992Y-44648769D01*
X-43820993Y-44618184D01*
X-43820266Y-44615156D01*
X-43814764Y-44545252D01*
X-43800805Y-44367875D01*
X-43800500Y-44364000D01*
X-43820266Y-44112844D01*
X-43879079Y-43867873D01*
X-43883768Y-43856551D01*
X-43938707Y-43723917D01*
X-43975489Y-43635118D01*
X-44107123Y-43420311D01*
X-44270740Y-43228740D01*
X-44420795Y-43100581D01*
X-44452765Y-43048412D01*
X-44455500Y-43025301D01*
X-44455500Y-39413588D01*
X-35756500Y-39413588D01*
X-35756500Y-41358224D01*
X-35756247Y-41360712D01*
X-35756247Y-41360717D01*
X-35750976Y-41412602D01*
X-35741984Y-41501130D01*
X-35684234Y-41685411D01*
X-35590608Y-41854317D01*
X-35587343Y-41858126D01*
X-35519921Y-41936788D01*
X-35464931Y-42000946D01*
X-35460964Y-42004023D01*
X-35316298Y-42116239D01*
X-35316293Y-42116242D01*
X-35312338Y-42119310D01*
X-35139061Y-42204573D01*
X-35050462Y-42227651D01*
X-34957036Y-42251987D01*
X-34957032Y-42251988D01*
X-34952178Y-42253252D01*
X-34947166Y-42253515D01*
X-34947164Y-42253515D01*
X-34879134Y-42257080D01*
X-34759324Y-42263359D01*
X-34568377Y-42234481D01*
X-34387136Y-42167798D01*
X-34382878Y-42165158D01*
X-34382876Y-42165157D01*
X-34227270Y-42068677D01*
X-34227269Y-42068676D01*
X-34223006Y-42066033D01*
X-34082691Y-41933343D01*
X-34079817Y-41929238D01*
X-34079814Y-41929235D01*
X-33974798Y-41779256D01*
X-33971923Y-41775150D01*
X-33895226Y-41597914D01*
X-33855734Y-41408877D01*
X-33855500Y-41404412D01*
X-33855500Y-39459776D01*
X-33860059Y-39414891D01*
X-33869509Y-39321857D01*
X-33869510Y-39321853D01*
X-33870016Y-39316870D01*
X-33927766Y-39132589D01*
X-34021392Y-38963683D01*
X-34089126Y-38884657D01*
X-34143803Y-38820864D01*
X-34143805Y-38820862D01*
X-34147069Y-38817054D01*
X-34174831Y-38795520D01*
X-34295702Y-38701761D01*
X-34295707Y-38701758D01*
X-34299662Y-38698690D01*
X-34472939Y-38613427D01*
X-34587758Y-38583519D01*
X-34654964Y-38566013D01*
X-34654968Y-38566012D01*
X-34659822Y-38564748D01*
X-34664834Y-38564485D01*
X-34664836Y-38564485D01*
X-34732866Y-38560920D01*
X-34852676Y-38554641D01*
X-35043623Y-38583519D01*
X-35224864Y-38650202D01*
X-35229122Y-38652842D01*
X-35229124Y-38652843D01*
X-35303067Y-38698690D01*
X-35388994Y-38751967D01*
X-35529309Y-38884657D01*
X-35532183Y-38888762D01*
X-35532186Y-38888765D01*
X-35637202Y-39038744D01*
X-35640077Y-39042850D01*
X-35716774Y-39220086D01*
X-35756266Y-39409123D01*
X-35756500Y-39413588D01*
X-44455500Y-39413588D01*
X-44455500Y-27970635D01*
X-38709639Y-27970635D01*
X-38677938Y-28315632D01*
X-38677365Y-28318388D01*
X-38677364Y-28318393D01*
X-38671887Y-28344725D01*
X-38607386Y-28654822D01*
X-38606507Y-28657488D01*
X-38606505Y-28657495D01*
X-38598027Y-28683204D01*
X-38498891Y-28983844D01*
X-38353846Y-29298470D01*
X-38174118Y-29594654D01*
X-37962015Y-29868588D01*
X-37720266Y-30116751D01*
X-37451978Y-30335951D01*
X-37449627Y-30337463D01*
X-37449619Y-30337469D01*
X-37162953Y-30521859D01*
X-37162947Y-30521863D01*
X-37160600Y-30523372D01*
X-36849879Y-30676603D01*
X-36523809Y-30793674D01*
X-36521090Y-30794314D01*
X-36521084Y-30794316D01*
X-36340219Y-30836903D01*
X-36186582Y-30873080D01*
X-36183804Y-30873409D01*
X-36183803Y-30873409D01*
X-36085617Y-30885030D01*
X-35842534Y-30913801D01*
X-35693061Y-30914453D01*
X-35498902Y-30915301D01*
X-35498897Y-30915301D01*
X-35496087Y-30915313D01*
X-35479277Y-30913472D01*
X-35154487Y-30877902D01*
X-35154479Y-30877901D01*
X-35151697Y-30877596D01*
X-35148960Y-30876977D01*
X-35148956Y-30876976D01*
X-34816529Y-30801755D01*
X-34816525Y-30801754D01*
X-34813790Y-30801135D01*
X-34486711Y-30686914D01*
X-34484193Y-30685700D01*
X-34484187Y-30685697D01*
X-34177195Y-30537622D01*
X-34177192Y-30537620D01*
X-34174664Y-30536401D01*
X-33881662Y-30351530D01*
X-33879476Y-30349776D01*
X-33879471Y-30349772D01*
X-33613666Y-30136441D01*
X-33613663Y-30136438D01*
X-33611471Y-30134679D01*
X-33595466Y-30118534D01*
X-33369549Y-29890637D01*
X-33369544Y-29890631D01*
X-33367566Y-29888636D01*
X-33351761Y-29868588D01*
X-33154830Y-29618782D01*
X-33154827Y-29618778D01*
X-33153081Y-29616563D01*
X-32970774Y-29321959D01*
X-32822990Y-29008610D01*
X-32711627Y-28680547D01*
X-32638118Y-28341986D01*
X-32603408Y-27997279D01*
X-32602887Y-27973431D01*
X-32600543Y-27865949D01*
X-32600500Y-27864000D01*
X-32614113Y-27624268D01*
X-32619982Y-27520903D01*
X-32619983Y-27520898D01*
X-32620141Y-27518108D01*
X-32678812Y-27176662D01*
X-32745485Y-26947916D01*
X-32774975Y-26846742D01*
X-32774976Y-26846738D01*
X-32775759Y-26844053D01*
X-32909735Y-26524557D01*
X-33079017Y-26222281D01*
X-33281431Y-25941112D01*
X-33514372Y-25684663D01*
X-33700229Y-25521670D01*
X-33772733Y-25458086D01*
X-33772734Y-25458086D01*
X-33774846Y-25456233D01*
X-34059506Y-25258758D01*
X-34364690Y-25094777D01*
X-34367296Y-25093737D01*
X-34367301Y-25093735D01*
X-34683872Y-24967436D01*
X-34686476Y-24966397D01*
X-34689179Y-24965660D01*
X-35018025Y-24876006D01*
X-35018031Y-24876005D01*
X-35020726Y-24875270D01*
X-35023487Y-24874845D01*
X-35023492Y-24874844D01*
X-35360373Y-24822993D01*
X-35360379Y-24822992D01*
X-35363143Y-24822567D01*
X-35365942Y-24822457D01*
X-35706523Y-24809075D01*
X-35706525Y-24809075D01*
X-35709326Y-24808965D01*
X-35753424Y-24812242D01*
X-36052031Y-24834432D01*
X-36052040Y-24834433D01*
X-36054823Y-24834640D01*
X-36395192Y-24899261D01*
X-36726059Y-25001998D01*
X-37043168Y-25141530D01*
X-37342443Y-25316062D01*
X-37620038Y-25523351D01*
X-37872381Y-25760733D01*
X-37874196Y-25762877D01*
X-37874197Y-25762878D01*
X-38027006Y-25943383D01*
X-38096231Y-26025154D01*
X-38288708Y-26313217D01*
X-38289989Y-26315704D01*
X-38289993Y-26315711D01*
X-38446052Y-26618718D01*
X-38446056Y-26618726D01*
X-38447338Y-26621216D01*
X-38448333Y-26623842D01*
X-38448336Y-26623849D01*
X-38569086Y-26942563D01*
X-38570082Y-26945193D01*
X-38655362Y-27280983D01*
X-38702081Y-27624268D01*
X-38709639Y-27970635D01*
X-44455500Y-27970635D01*
X-44455500Y-18692921D01*
X-44454281Y-18677434D01*
X-44452551Y-18666514D01*
X-44452551Y-18666510D01*
X-44451740Y-18661391D01*
X-44455364Y-18592246D01*
X-44455500Y-18587064D01*
X-44455500Y-18566427D01*
X-44457658Y-18545892D01*
X-44458064Y-18540727D01*
X-44461376Y-18477533D01*
X-44461376Y-18477530D01*
X-44461648Y-18472349D01*
X-44465785Y-18456911D01*
X-44468616Y-18441637D01*
X-44468745Y-18440408D01*
X-44470287Y-18425736D01*
X-44471888Y-18420808D01*
X-44471889Y-18420804D01*
X-44491447Y-18360610D01*
X-44492918Y-18355642D01*
X-44509298Y-18294514D01*
X-44509301Y-18294506D01*
X-44510643Y-18289498D01*
X-44512998Y-18284875D01*
X-44517902Y-18275250D01*
X-44523845Y-18260904D01*
X-44527183Y-18250631D01*
X-44528785Y-18245700D01*
X-44563032Y-18186380D01*
X-44565478Y-18181876D01*
X-44596583Y-18120829D01*
X-44606643Y-18108406D01*
X-44615441Y-18095605D01*
X-44620841Y-18086251D01*
X-44620847Y-18086243D01*
X-44623435Y-18081760D01*
X-44626902Y-18077909D01*
X-44626906Y-18077904D01*
X-44669270Y-18030853D01*
X-44672633Y-18026916D01*
X-44683981Y-18012903D01*
X-44685611Y-18010890D01*
X-44700211Y-17996290D01*
X-44703778Y-17992530D01*
X-44746626Y-17944943D01*
X-44750102Y-17941082D01*
X-44754303Y-17938030D01*
X-44754305Y-17938028D01*
X-44763237Y-17931539D01*
X-44775051Y-17921450D01*
X-49983808Y-12712693D01*
X-17853098Y-12712693D01*
X-17826531Y-12839313D01*
X-17824127Y-12847325D01*
X-17741312Y-13057023D01*
X-17737590Y-13064521D01*
X-17620626Y-13257273D01*
X-17615704Y-13264023D01*
X-17467928Y-13434319D01*
X-17461934Y-13440148D01*
X-17287589Y-13583103D01*
X-17280687Y-13587846D01*
X-17084750Y-13699380D01*
X-17077159Y-13702887D01*
X-16865219Y-13779818D01*
X-16857152Y-13781995D01*
X-16634356Y-13822283D01*
X-16627900Y-13823015D01*
X-16608169Y-13823946D01*
X-16605875Y-13824000D01*
X-16545680Y-13824000D01*
X-16532995Y-13819878D01*
X-16530000Y-13815757D01*
X-16530000Y-12715680D01*
X-16532417Y-12708243D01*
X-16022000Y-12708243D01*
X-16022000Y-13808320D01*
X-16017878Y-13821005D01*
X-16013757Y-13824000D01*
X-15994175Y-13824000D01*
X-15989984Y-13823823D01*
X-15822150Y-13809582D01*
X-15813925Y-13808176D01*
X-15595677Y-13751530D01*
X-15587798Y-13748755D01*
X-15382226Y-13656151D01*
X-15374919Y-13652085D01*
X-15187880Y-13526162D01*
X-15181378Y-13520934D01*
X-15018226Y-13365297D01*
X-15012691Y-13359039D01*
X-14878104Y-13178148D01*
X-14873696Y-13171039D01*
X-14771508Y-12970050D01*
X-14768370Y-12962320D01*
X-14701507Y-12746987D01*
X-14699711Y-12738819D01*
X-14696626Y-12715544D01*
X-14699045Y-12702428D01*
X-14700331Y-12701205D01*
X-14705647Y-12700000D01*
X-16006320Y-12700000D01*
X-16019005Y-12704122D01*
X-16022000Y-12708243D01*
X-16532417Y-12708243D01*
X-16534122Y-12702995D01*
X-16538243Y-12700000D01*
X-17840081Y-12700000D01*
X-17852635Y-12704079D01*
X-17853098Y-12712693D01*
X-49983808Y-12712693D01*
X-50520045Y-12176456D01*
X-17855374Y-12176456D01*
X-17852955Y-12189572D01*
X-17851669Y-12190795D01*
X-17846353Y-12192000D01*
X-14711919Y-12192000D01*
X-14699365Y-12187921D01*
X-14698902Y-12179307D01*
X-14725469Y-12052687D01*
X-14727873Y-12044675D01*
X-14810688Y-11834977D01*
X-14814410Y-11827479D01*
X-14931374Y-11634727D01*
X-14936296Y-11627977D01*
X-15084072Y-11457681D01*
X-15090066Y-11451852D01*
X-15264411Y-11308897D01*
X-15271313Y-11304154D01*
X-15467250Y-11192620D01*
X-15474841Y-11189113D01*
X-15531465Y-11168559D01*
X-15579713Y-11130931D01*
X-15596629Y-11072131D01*
X-15575752Y-11014617D01*
X-15525057Y-10980359D01*
X-15497686Y-10976500D01*
X-15397742Y-10976500D01*
X-15361303Y-10971022D01*
X-15304386Y-10962465D01*
X-15304384Y-10962464D01*
X-15297065Y-10961364D01*
X-15290394Y-10958161D01*
X-15290392Y-10958160D01*
X-15181639Y-10905937D01*
X-15174971Y-10902735D01*
X-15075514Y-10810798D01*
X-15046415Y-10760700D01*
X-15011205Y-10700083D01*
X-15011204Y-10700080D01*
X-15007487Y-10693681D01*
X-14984126Y-10592897D01*
X-14981775Y-10582754D01*
X-14981775Y-10582751D01*
X-14980500Y-10577252D01*
X-14980500Y-9252742D01*
X-14995636Y-9152065D01*
X-15008376Y-9125533D01*
X-15051063Y-9036639D01*
X-15054265Y-9029971D01*
X-15146202Y-8930514D01*
X-15228258Y-8882852D01*
X-15256917Y-8866205D01*
X-15256920Y-8866204D01*
X-15263319Y-8862487D01*
X-15319197Y-8849535D01*
X-15374246Y-8836775D01*
X-15374249Y-8836775D01*
X-15379748Y-8835500D01*
X-17154258Y-8835500D01*
X-17190697Y-8840978D01*
X-17247614Y-8849535D01*
X-17247616Y-8849536D01*
X-17254935Y-8850636D01*
X-17261606Y-8853839D01*
X-17261608Y-8853840D01*
X-17334655Y-8888917D01*
X-17377029Y-8909265D01*
X-17476486Y-9001202D01*
X-17485265Y-9016316D01*
X-17540795Y-9111917D01*
X-17540796Y-9111920D01*
X-17544513Y-9118319D01*
X-17546185Y-9125533D01*
X-17557664Y-9175058D01*
X-17571500Y-9234748D01*
X-17571500Y-10559258D01*
X-17556364Y-10659935D01*
X-17553161Y-10666606D01*
X-17553160Y-10666608D01*
X-17537085Y-10700083D01*
X-17497735Y-10782029D01*
X-17405798Y-10881486D01*
X-17355700Y-10910585D01*
X-17295083Y-10945795D01*
X-17295080Y-10945796D01*
X-17288681Y-10949513D01*
X-17251376Y-10958160D01*
X-17177754Y-10975225D01*
X-17177751Y-10975225D01*
X-17172252Y-10976500D01*
X-17054853Y-10976500D01*
X-16996662Y-10995407D01*
X-16960698Y-11044907D01*
X-16960698Y-11106093D01*
X-16996662Y-11155593D01*
X-17014192Y-11165764D01*
X-17169774Y-11235849D01*
X-17177081Y-11239915D01*
X-17364120Y-11365838D01*
X-17370622Y-11371066D01*
X-17533774Y-11526703D01*
X-17539309Y-11532961D01*
X-17673896Y-11713852D01*
X-17678304Y-11720961D01*
X-17780492Y-11921950D01*
X-17783630Y-11929680D01*
X-17850493Y-12145013D01*
X-17852289Y-12153181D01*
X-17855374Y-12176456D01*
X-50520045Y-12176456D01*
X-53659439Y-9037062D01*
X-53669528Y-9025248D01*
X-53676017Y-9016316D01*
X-53676019Y-9016314D01*
X-53679071Y-9012113D01*
X-53730519Y-8965789D01*
X-53734279Y-8962222D01*
X-53748879Y-8947622D01*
X-53764907Y-8934643D01*
X-53768844Y-8931280D01*
X-53815891Y-8888919D01*
X-53815895Y-8888916D01*
X-53819749Y-8885446D01*
X-53824239Y-8882854D01*
X-53824244Y-8882850D01*
X-53833594Y-8877452D01*
X-53846396Y-8868654D01*
X-53854786Y-8861860D01*
X-53858818Y-8858595D01*
X-53919830Y-8827508D01*
X-53924385Y-8825035D01*
X-53979198Y-8793389D01*
X-53979200Y-8793388D01*
X-53983689Y-8790796D01*
X-53988622Y-8789193D01*
X-53988627Y-8789191D01*
X-53998894Y-8785855D01*
X-54013244Y-8779911D01*
X-54022861Y-8775011D01*
X-54022862Y-8775011D01*
X-54027487Y-8772654D01*
X-54032496Y-8771312D01*
X-54032506Y-8771308D01*
X-54093631Y-8754929D01*
X-54098599Y-8753458D01*
X-54158793Y-8733900D01*
X-54158797Y-8733899D01*
X-54163725Y-8732298D01*
X-54178397Y-8730756D01*
X-54179626Y-8730627D01*
X-54194900Y-8727796D01*
X-54210338Y-8723659D01*
X-54215517Y-8723388D01*
X-54215521Y-8723387D01*
X-54278705Y-8720076D01*
X-54283872Y-8719670D01*
X-54295295Y-8718470D01*
X-54304416Y-8717511D01*
X-54325065Y-8717511D01*
X-54330246Y-8717375D01*
X-54394199Y-8714023D01*
X-54394203Y-8714023D01*
X-54399379Y-8713752D01*
X-54404498Y-8714563D01*
X-54404502Y-8714563D01*
X-54415416Y-8716292D01*
X-54430903Y-8717511D01*
X-64120712Y-8717511D01*
X-64178903Y-8698604D01*
X-64214867Y-8649104D01*
X-64218368Y-8602256D01*
X-64207294Y-8535723D01*
X-64196557Y-8471218D01*
X-64196500Y-8464000D01*
X-64216813Y-8328888D01*
X-64239765Y-8281089D01*
X-64272752Y-8212395D01*
X-64272753Y-8212394D01*
X-64275956Y-8205723D01*
X-64368701Y-8105392D01*
X-64451059Y-8057555D01*
X-64480449Y-8040484D01*
X-64480450Y-8040484D01*
X-64486847Y-8036768D01*
X-64619948Y-8005916D01*
X-64639482Y-8007299D01*
X-64698863Y-7992548D01*
X-64716478Y-7978550D01*
X-66306672Y-6388356D01*
X-66308721Y-6385982D01*
X-66310739Y-6381853D01*
X-66343029Y-6351900D01*
X-66345705Y-6349323D01*
X-66362497Y-6332531D01*
X-66366256Y-6329952D01*
X-66368337Y-6328223D01*
X-66372394Y-6324660D01*
X-66386052Y-6311990D01*
X-66386055Y-6311988D01*
X-66392755Y-6305773D01*
X-66403436Y-6301512D01*
X-66422753Y-6291197D01*
X-66432229Y-6284696D01*
X-66458131Y-6278549D01*
X-66471934Y-6274183D01*
X-66496661Y-6264318D01*
X-66505004Y-6263500D01*
X-66509954Y-6263500D01*
X-66531073Y-6261029D01*
X-66532183Y-6260975D01*
X-66541077Y-6258864D01*
X-66562475Y-6261776D01*
X-66568500Y-6262596D01*
X-66581850Y-6263500D01*
X-71590521Y-6263500D01*
X-71648712Y-6244593D01*
X-71660525Y-6234504D01*
X-72926504Y-4968524D01*
X-72954281Y-4914007D01*
X-72955500Y-4898520D01*
X-72955500Y-1629479D01*
X-72936593Y-1571288D01*
X-72926504Y-1559475D01*
X-72417248Y-1050219D01*
X-72362731Y-1022442D01*
X-72338705Y-1021592D01*
X-72327148Y-1022593D01*
X-72319916Y-1021036D01*
X-72319915Y-1021036D01*
X-72200813Y-995395D01*
X-72200811Y-995394D01*
X-72193578Y-993837D01*
X-72074369Y-927076D01*
X-72069261Y-921721D01*
X-72069258Y-921719D01*
X-72013679Y-863457D01*
X-71980060Y-828215D01*
X-71918990Y-705993D01*
X-71896557Y-571218D01*
X-71896500Y-564000D01*
X-71908367Y-485063D01*
X-71915713Y-436205D01*
X-71916813Y-428888D01*
X-71951929Y-355758D01*
X-71972752Y-312395D01*
X-71972753Y-312394D01*
X-71975956Y-305723D01*
X-72068701Y-205392D01*
X-72169007Y-147130D01*
X-72180449Y-140484D01*
X-72180450Y-140484D01*
X-72186847Y-136768D01*
X-72319948Y-105916D01*
X-72398425Y-111473D01*
X-72448853Y-115043D01*
X-72448854Y-115043D01*
X-72456237Y-115566D01*
X-72583663Y-164864D01*
X-72589477Y-169448D01*
X-72589478Y-169448D01*
X-72685148Y-244868D01*
X-72685149Y-244870D01*
X-72690961Y-249451D01*
X-72768644Y-361848D01*
X-72770876Y-368906D01*
X-72805476Y-478311D01*
X-72809843Y-492118D01*
X-72809918Y-501729D01*
X-72810322Y-553116D01*
X-72829686Y-611157D01*
X-72839315Y-622343D01*
X-73431644Y-1214672D01*
X-73434018Y-1216721D01*
X-73438147Y-1218739D01*
X-73444364Y-1225441D01*
X-73468100Y-1251029D01*
X-73470677Y-1253705D01*
X-73487469Y-1270497D01*
X-73490048Y-1274256D01*
X-73491777Y-1276337D01*
X-73495340Y-1280394D01*
X-73508010Y-1294052D01*
X-73508012Y-1294055D01*
X-73514227Y-1300755D01*
X-73518488Y-1311436D01*
X-73528803Y-1330753D01*
X-73535304Y-1340229D01*
X-73541451Y-1366131D01*
X-73545817Y-1379934D01*
X-73555682Y-1404661D01*
X-73556500Y-1413004D01*
X-73556500Y-1417954D01*
X-73558971Y-1439073D01*
X-73559025Y-1440183D01*
X-73561136Y-1449077D01*
X-73559903Y-1458134D01*
X-73557404Y-1476500D01*
X-73556500Y-1489850D01*
X-73556500Y-5011892D01*
X-73556730Y-5015024D01*
X-73558223Y-5019372D01*
X-73557880Y-5028508D01*
X-73556570Y-5063401D01*
X-73556500Y-5067115D01*
X-73556500Y-5090846D01*
X-73555665Y-5095330D01*
X-73555418Y-5098004D01*
X-73555069Y-5103389D01*
X-73554369Y-5122029D01*
X-73554026Y-5131162D01*
X-73550420Y-5139557D01*
X-73550419Y-5139559D01*
X-73549486Y-5141730D01*
X-73543123Y-5162674D01*
X-73541017Y-5173979D01*
X-73536220Y-5181761D01*
X-73536219Y-5181764D01*
X-73527052Y-5196636D01*
X-73520370Y-5209499D01*
X-73509866Y-5233948D01*
X-73504545Y-5240426D01*
X-73501042Y-5243929D01*
X-73487861Y-5260604D01*
X-73487113Y-5261429D01*
X-73482316Y-5269211D01*
X-73475041Y-5274743D01*
X-73475040Y-5274744D01*
X-73460295Y-5285956D01*
X-73450215Y-5294756D01*
X-72005332Y-6739639D01*
X-72003280Y-6742017D01*
X-72001261Y-6746147D01*
X-71994561Y-6752362D01*
X-71968958Y-6776112D01*
X-71966282Y-6778689D01*
X-71949503Y-6795468D01*
X-71945751Y-6798041D01*
X-71943679Y-6799763D01*
X-71939618Y-6803328D01*
X-71919245Y-6822227D01*
X-71910758Y-6825613D01*
X-71910755Y-6825615D01*
X-71908566Y-6826488D01*
X-71889247Y-6836803D01*
X-71879771Y-6843304D01*
X-71870877Y-6845415D01*
X-71870876Y-6845415D01*
X-71853885Y-6849447D01*
X-71840056Y-6853821D01*
X-71821829Y-6861093D01*
X-71821827Y-6861093D01*
X-71815339Y-6863682D01*
X-71806996Y-6864500D01*
X-71802042Y-6864500D01*
X-71780937Y-6866970D01*
X-71779816Y-6867025D01*
X-71770924Y-6869135D01*
X-71743510Y-6865404D01*
X-71730159Y-6864500D01*
X-66721479Y-6864500D01*
X-66663288Y-6883407D01*
X-66651475Y-6893496D01*
X-65139497Y-8405474D01*
X-65111720Y-8459991D01*
X-65110504Y-8476255D01*
X-65110916Y-8528744D01*
X-65108796Y-8535832D01*
X-65108796Y-8535834D01*
X-65092553Y-8590145D01*
X-65093994Y-8651313D01*
X-65131114Y-8699952D01*
X-65187402Y-8717511D01*
X-75331091Y-8717511D01*
X-75346578Y-8716292D01*
X-75357498Y-8714562D01*
X-75357502Y-8714562D01*
X-75362621Y-8713751D01*
X-75431765Y-8717375D01*
X-75436947Y-8717511D01*
X-75457584Y-8717511D01*
X-75467257Y-8718528D01*
X-75478119Y-8719669D01*
X-75483284Y-8720075D01*
X-75546478Y-8723387D01*
X-75546481Y-8723387D01*
X-75551662Y-8723659D01*
X-75567100Y-8727796D01*
X-75582374Y-8730627D01*
X-75583603Y-8730756D01*
X-75598275Y-8732298D01*
X-75603203Y-8733899D01*
X-75603207Y-8733900D01*
X-75663401Y-8753458D01*
X-75668369Y-8754929D01*
X-75729497Y-8771309D01*
X-75729505Y-8771312D01*
X-75734513Y-8772654D01*
X-75739132Y-8775008D01*
X-75739136Y-8775009D01*
X-75748761Y-8779913D01*
X-75763104Y-8785855D01*
X-75778311Y-8790796D01*
X-75837631Y-8825043D01*
X-75842135Y-8827489D01*
X-75903182Y-8858594D01*
X-75907989Y-8862487D01*
X-75915605Y-8868654D01*
X-75928406Y-8877452D01*
X-75937760Y-8882852D01*
X-75937768Y-8882858D01*
X-75942251Y-8885446D01*
X-75946102Y-8888913D01*
X-75946107Y-8888917D01*
X-75993158Y-8931281D01*
X-75997092Y-8934642D01*
X-76013121Y-8947622D01*
X-76027721Y-8962222D01*
X-76031481Y-8965789D01*
X-76082929Y-9012113D01*
X-76085981Y-9016314D01*
X-76085983Y-9016316D01*
X-76092472Y-9025248D01*
X-76102561Y-9037062D01*
X-76886949Y-9821450D01*
X-76898763Y-9831539D01*
X-76907695Y-9838028D01*
X-76907697Y-9838030D01*
X-76911898Y-9841082D01*
X-76915374Y-9844943D01*
X-76958222Y-9892530D01*
X-76961789Y-9896290D01*
X-76976389Y-9910890D01*
X-76978022Y-9912907D01*
X-76989365Y-9926914D01*
X-76992731Y-9930855D01*
X-77035092Y-9977902D01*
X-77035095Y-9977906D01*
X-77038565Y-9981760D01*
X-77041157Y-9986250D01*
X-77041161Y-9986255D01*
X-77046559Y-9995605D01*
X-77055356Y-10008406D01*
X-77065416Y-10020829D01*
X-77067771Y-10025451D01*
X-77096503Y-10081841D01*
X-77098976Y-10086396D01*
X-77133215Y-10145700D01*
X-77134818Y-10150633D01*
X-77134820Y-10150638D01*
X-77138156Y-10160905D01*
X-77144100Y-10175255D01*
X-77151357Y-10189498D01*
X-77152699Y-10194507D01*
X-77152703Y-10194517D01*
X-77169082Y-10255642D01*
X-77170553Y-10260610D01*
X-77190111Y-10320804D01*
X-77190112Y-10320808D01*
X-77191713Y-10325736D01*
X-77193255Y-10340408D01*
X-77193384Y-10341637D01*
X-77196215Y-10356911D01*
X-77200352Y-10372349D01*
X-77200623Y-10377528D01*
X-77200624Y-10377532D01*
X-77203935Y-10440716D01*
X-77204341Y-10445883D01*
X-77206500Y-10466427D01*
X-77206500Y-10487076D01*
X-77206636Y-10492257D01*
X-77209953Y-10555559D01*
X-77210259Y-10561390D01*
X-85666164Y-10561390D01*
X-85628257Y-10447435D01*
X-85628257Y-10447433D01*
X-85626730Y-10442844D01*
X-85621846Y-10404187D01*
X-85601260Y-10241225D01*
X-85600912Y-10238471D01*
X-85600500Y-10209000D01*
X-85603809Y-10175255D01*
X-85620130Y-10008796D01*
X-85620131Y-10008792D01*
X-85620602Y-10003986D01*
X-85623507Y-9994362D01*
X-85653117Y-9896290D01*
X-85680142Y-9806780D01*
X-85776852Y-9624895D01*
X-85907048Y-9465259D01*
X-86065772Y-9333951D01*
X-86209121Y-9256442D01*
X-86242723Y-9238273D01*
X-86242724Y-9238272D01*
X-86246977Y-9235973D01*
X-86310048Y-9216449D01*
X-86439141Y-9176488D01*
X-86439145Y-9176487D01*
X-86443762Y-9175058D01*
X-86448569Y-9174553D01*
X-86448573Y-9174552D01*
X-86643815Y-9154032D01*
X-86643817Y-9154032D01*
X-86648631Y-9153526D01*
X-86713022Y-9159386D01*
X-86848961Y-9171757D01*
X-86848964Y-9171758D01*
X-86853781Y-9172196D01*
X-86858423Y-9173562D01*
X-86858427Y-9173563D01*
X-87046750Y-9228989D01*
X-87046753Y-9228990D01*
X-87051397Y-9230357D01*
X-87055691Y-9232602D01*
X-87229656Y-9323548D01*
X-87229660Y-9323551D01*
X-87233953Y-9325795D01*
X-87237729Y-9328831D01*
X-87237732Y-9328833D01*
X-87244097Y-9333951D01*
X-87394495Y-9454874D01*
X-87406357Y-9469011D01*
X-87523798Y-9608971D01*
X-87523801Y-9608975D01*
X-87526907Y-9612677D01*
X-87626147Y-9793194D01*
X-87627611Y-9797808D01*
X-87627612Y-9797811D01*
X-87641338Y-9841082D01*
X-87688435Y-9989549D01*
X-87688975Y-9994361D01*
X-87688975Y-9994362D01*
X-87707655Y-10160905D01*
X-87711397Y-10194263D01*
X-87706243Y-10255642D01*
X-87697739Y-10356911D01*
X-87694160Y-10399538D01*
X-87692827Y-10404186D01*
X-87692827Y-10404187D01*
X-87646280Y-10566513D01*
X-87637379Y-10597555D01*
X-87543218Y-10780773D01*
X-87415263Y-10942212D01*
X-87411583Y-10945344D01*
X-87411581Y-10945346D01*
X-87352759Y-10995407D01*
X-87258388Y-11075723D01*
X-87254165Y-11078083D01*
X-87254161Y-11078086D01*
X-87159605Y-11130931D01*
X-87078568Y-11176221D01*
X-86980492Y-11208088D01*
X-86919878Y-11227783D01*
X-86870378Y-11263747D01*
X-86851471Y-11321938D01*
X-86870378Y-11380129D01*
X-86919879Y-11416093D01*
X-86930142Y-11418828D01*
X-87043570Y-11442627D01*
X-87051566Y-11445026D01*
X-87258145Y-11526608D01*
X-87265618Y-11530317D01*
X-87455492Y-11645536D01*
X-87462239Y-11650456D01*
X-87629981Y-11796015D01*
X-87635810Y-11802009D01*
X-87776620Y-11973739D01*
X-87781363Y-11980641D01*
X-87891225Y-12173640D01*
X-87894732Y-12181230D01*
X-87970508Y-12389991D01*
X-87972685Y-12398058D01*
X-87987425Y-12479569D01*
X-91775000Y-12479569D01*
X-91775000Y-7654263D01*
X-87711397Y-7654263D01*
X-87694160Y-7859538D01*
X-87692827Y-7864186D01*
X-87692827Y-7864187D01*
X-87652036Y-8006439D01*
X-87637379Y-8057555D01*
X-87543218Y-8240773D01*
X-87415263Y-8402212D01*
X-87411583Y-8405344D01*
X-87411581Y-8405346D01*
X-87334181Y-8471218D01*
X-87258388Y-8535723D01*
X-87254165Y-8538083D01*
X-87254161Y-8538086D01*
X-87139341Y-8602256D01*
X-87078568Y-8636221D01*
X-87073970Y-8637715D01*
X-86887258Y-8698382D01*
X-86887255Y-8698383D01*
X-86882653Y-8699878D01*
X-86678105Y-8724269D01*
X-86673283Y-8723898D01*
X-86673280Y-8723898D01*
X-86477542Y-8708837D01*
X-86477537Y-8708836D01*
X-86472714Y-8708465D01*
X-86274305Y-8653068D01*
X-86269987Y-8650887D01*
X-86094756Y-8562371D01*
X-86094754Y-8562370D01*
X-86090435Y-8560188D01*
X-85928107Y-8433363D01*
X-85924945Y-8429700D01*
X-85924940Y-8429695D01*
X-85796668Y-8281089D01*
X-85793504Y-8277424D01*
X-85770234Y-8236463D01*
X-85694142Y-8102517D01*
X-85694141Y-8102514D01*
X-85691753Y-8098311D01*
X-85676645Y-8052897D01*
X-85628257Y-7907435D01*
X-85628257Y-7907433D01*
X-85626730Y-7902844D01*
X-85621846Y-7864187D01*
X-85601260Y-7701225D01*
X-85600912Y-7698471D01*
X-85600500Y-7669000D01*
X-85620602Y-7463986D01*
X-85623507Y-7454362D01*
X-85678744Y-7271412D01*
X-85680142Y-7266780D01*
X-85776852Y-7084895D01*
X-85907048Y-6925259D01*
X-85974890Y-6869135D01*
X-86062045Y-6797034D01*
X-86062047Y-6797033D01*
X-86065772Y-6793951D01*
X-86246977Y-6695973D01*
X-86310048Y-6676449D01*
X-86439141Y-6636488D01*
X-86439145Y-6636487D01*
X-86443762Y-6635058D01*
X-86448569Y-6634553D01*
X-86448573Y-6634552D01*
X-86643815Y-6614032D01*
X-86643817Y-6614032D01*
X-86648631Y-6613526D01*
X-86716628Y-6619714D01*
X-86848961Y-6631757D01*
X-86848964Y-6631758D01*
X-86853781Y-6632196D01*
X-86858423Y-6633562D01*
X-86858427Y-6633563D01*
X-87046750Y-6688989D01*
X-87046753Y-6688990D01*
X-87051397Y-6690357D01*
X-87055691Y-6692602D01*
X-87229656Y-6783548D01*
X-87229660Y-6783551D01*
X-87233953Y-6785795D01*
X-87237729Y-6788831D01*
X-87237732Y-6788833D01*
X-87336074Y-6867902D01*
X-87394495Y-6914874D01*
X-87406357Y-6929011D01*
X-87523798Y-7068971D01*
X-87523801Y-7068975D01*
X-87526907Y-7072677D01*
X-87626147Y-7253194D01*
X-87688435Y-7449549D01*
X-87711397Y-7654263D01*
X-91775000Y-7654263D01*
X-91775000Y-5114263D01*
X-87711397Y-5114263D01*
X-87707332Y-5162676D01*
X-87697921Y-5274744D01*
X-87694160Y-5319538D01*
X-87637379Y-5517555D01*
X-87543218Y-5700773D01*
X-87415263Y-5862212D01*
X-87258388Y-5995723D01*
X-87254165Y-5998083D01*
X-87254161Y-5998086D01*
X-87137547Y-6063259D01*
X-87078568Y-6096221D01*
X-87073970Y-6097715D01*
X-86887258Y-6158382D01*
X-86887255Y-6158383D01*
X-86882653Y-6159878D01*
X-86678105Y-6184269D01*
X-86673283Y-6183898D01*
X-86673280Y-6183898D01*
X-86477542Y-6168837D01*
X-86477537Y-6168836D01*
X-86472714Y-6168465D01*
X-86274305Y-6113068D01*
X-86243911Y-6097715D01*
X-86094756Y-6022371D01*
X-86094754Y-6022370D01*
X-86090435Y-6020188D01*
X-85928107Y-5893363D01*
X-85924945Y-5889700D01*
X-85924940Y-5889695D01*
X-85796668Y-5741089D01*
X-85793504Y-5737424D01*
X-85770234Y-5696463D01*
X-85694142Y-5562517D01*
X-85694141Y-5562514D01*
X-85691753Y-5558311D01*
X-85676645Y-5512897D01*
X-85628257Y-5367435D01*
X-85628257Y-5367433D01*
X-85626730Y-5362844D01*
X-85621846Y-5324187D01*
X-85601260Y-5161225D01*
X-85600912Y-5158471D01*
X-85600500Y-5129000D01*
X-85600770Y-5126244D01*
X-85620130Y-4928796D01*
X-85620131Y-4928792D01*
X-85620602Y-4923986D01*
X-85623507Y-4914362D01*
X-85678744Y-4731412D01*
X-85680142Y-4726780D01*
X-85776852Y-4544895D01*
X-85907048Y-4385259D01*
X-86065772Y-4253951D01*
X-86246977Y-4155973D01*
X-86310048Y-4136449D01*
X-86439141Y-4096488D01*
X-86439145Y-4096487D01*
X-86443762Y-4095058D01*
X-86448569Y-4094553D01*
X-86448573Y-4094552D01*
X-86643815Y-4074032D01*
X-86643817Y-4074032D01*
X-86648631Y-4073526D01*
X-86716628Y-4079714D01*
X-86848961Y-4091757D01*
X-86848964Y-4091758D01*
X-86853781Y-4092196D01*
X-86858423Y-4093562D01*
X-86858427Y-4093563D01*
X-87046750Y-4148989D01*
X-87046753Y-4148990D01*
X-87051397Y-4150357D01*
X-87055691Y-4152602D01*
X-87229656Y-4243548D01*
X-87229660Y-4243551D01*
X-87233953Y-4245795D01*
X-87237729Y-4248831D01*
X-87237732Y-4248833D01*
X-87244097Y-4253951D01*
X-87394495Y-4374874D01*
X-87406357Y-4389011D01*
X-87523798Y-4528971D01*
X-87523801Y-4528975D01*
X-87526907Y-4532677D01*
X-87626147Y-4713194D01*
X-87688435Y-4909549D01*
X-87688975Y-4914361D01*
X-87688975Y-4914362D01*
X-87710177Y-5103389D01*
X-87711397Y-5114263D01*
X-91775000Y-5114263D01*
X-91775000Y-2574263D01*
X-87711397Y-2574263D01*
X-87694160Y-2779538D01*
X-87637379Y-2977555D01*
X-87543218Y-3160773D01*
X-87415263Y-3322212D01*
X-87258388Y-3455723D01*
X-87254165Y-3458083D01*
X-87254161Y-3458086D01*
X-87137547Y-3523259D01*
X-87078568Y-3556221D01*
X-87073970Y-3557715D01*
X-86887258Y-3618382D01*
X-86887255Y-3618383D01*
X-86882653Y-3619878D01*
X-86678105Y-3644269D01*
X-86673283Y-3643898D01*
X-86673280Y-3643898D01*
X-86477542Y-3628837D01*
X-86477537Y-3628836D01*
X-86472714Y-3628465D01*
X-86274305Y-3573068D01*
X-86243911Y-3557715D01*
X-86094756Y-3482371D01*
X-86094754Y-3482370D01*
X-86090435Y-3480188D01*
X-85928107Y-3353363D01*
X-85924945Y-3349700D01*
X-85924940Y-3349695D01*
X-85796668Y-3201089D01*
X-85793504Y-3197424D01*
X-85770234Y-3156463D01*
X-85694142Y-3022517D01*
X-85694141Y-3022514D01*
X-85691753Y-3018311D01*
X-85676645Y-2972897D01*
X-85628257Y-2827435D01*
X-85628257Y-2827433D01*
X-85626730Y-2822844D01*
X-85621846Y-2784187D01*
X-85601260Y-2621225D01*
X-85600912Y-2618471D01*
X-85600500Y-2589000D01*
X-85620602Y-2383986D01*
X-85623507Y-2374362D01*
X-85678744Y-2191412D01*
X-85680142Y-2186780D01*
X-85776852Y-2004895D01*
X-85907048Y-1845259D01*
X-86065772Y-1713951D01*
X-86246977Y-1615973D01*
X-86335822Y-1588471D01*
X-86439141Y-1556488D01*
X-86439145Y-1556487D01*
X-86443762Y-1555058D01*
X-86448569Y-1554553D01*
X-86448573Y-1554552D01*
X-86643815Y-1534032D01*
X-86643817Y-1534032D01*
X-86648631Y-1533526D01*
X-86716628Y-1539714D01*
X-86848961Y-1551757D01*
X-86848964Y-1551758D01*
X-86853781Y-1552196D01*
X-86858423Y-1553562D01*
X-86858427Y-1553563D01*
X-87046750Y-1608989D01*
X-87046753Y-1608990D01*
X-87051397Y-1610357D01*
X-87055691Y-1612602D01*
X-87229656Y-1703548D01*
X-87229660Y-1703551D01*
X-87233953Y-1705795D01*
X-87237729Y-1708831D01*
X-87237732Y-1708833D01*
X-87244097Y-1713951D01*
X-87394495Y-1834874D01*
X-87406357Y-1849011D01*
X-87523798Y-1988971D01*
X-87523801Y-1988975D01*
X-87526907Y-1992677D01*
X-87626147Y-2173194D01*
X-87688435Y-2369549D01*
X-87711397Y-2574263D01*
X-91775000Y-2574263D01*
X-91775000Y-34263D01*
X-87711397Y-34263D01*
X-87707370Y-82222D01*
X-87697027Y-205392D01*
X-87694160Y-239538D01*
X-87692827Y-244186D01*
X-87692827Y-244187D01*
X-87639864Y-428888D01*
X-87637379Y-437555D01*
X-87543218Y-620773D01*
X-87415263Y-782212D01*
X-87411583Y-785344D01*
X-87411581Y-785346D01*
X-87361210Y-828215D01*
X-87258388Y-915723D01*
X-87254165Y-918083D01*
X-87254161Y-918086D01*
X-87137547Y-983259D01*
X-87078568Y-1016221D01*
X-87073970Y-1017715D01*
X-86887258Y-1078382D01*
X-86887255Y-1078383D01*
X-86882653Y-1079878D01*
X-86678105Y-1104269D01*
X-86673283Y-1103898D01*
X-86673280Y-1103898D01*
X-86477542Y-1088837D01*
X-86477537Y-1088836D01*
X-86472714Y-1088465D01*
X-86274305Y-1033068D01*
X-86252303Y-1021954D01*
X-86094756Y-942371D01*
X-86094754Y-942370D01*
X-86090435Y-940188D01*
X-85928107Y-813363D01*
X-85924945Y-809700D01*
X-85924940Y-809695D01*
X-85796668Y-661089D01*
X-85793504Y-657424D01*
X-85787997Y-647731D01*
X-85694142Y-482517D01*
X-85694141Y-482514D01*
X-85691753Y-478311D01*
X-85681407Y-447212D01*
X-85628257Y-287435D01*
X-85628257Y-287433D01*
X-85626730Y-282844D01*
X-85623280Y-255539D01*
X-85601260Y-81225D01*
X-85600912Y-78471D01*
X-85600500Y-49000D01*
X-85601472Y-39083D01*
X-85620130Y151204D01*
X-85620131Y151208D01*
X-85620602Y156014D01*
X-85623507Y165638D01*
X-85663114Y296819D01*
X-85680142Y353220D01*
X-85776852Y535105D01*
X-85907048Y694741D01*
X-85952095Y732007D01*
X-86062045Y822966D01*
X-86062047Y822967D01*
X-86065772Y826049D01*
X-86246977Y924027D01*
X-86322632Y947446D01*
X-86439141Y983512D01*
X-86439145Y983513D01*
X-86443762Y984942D01*
X-86448569Y985447D01*
X-86448573Y985448D01*
X-86643815Y1005968D01*
X-86643817Y1005968D01*
X-86648631Y1006474D01*
X-86716628Y1000286D01*
X-86848961Y988243D01*
X-86848964Y988242D01*
X-86853781Y987804D01*
X-86858423Y986438D01*
X-86858427Y986437D01*
X-87046750Y931011D01*
X-87046753Y931010D01*
X-87051397Y929643D01*
X-87055691Y927398D01*
X-87229656Y836452D01*
X-87229660Y836449D01*
X-87233953Y834205D01*
X-87237729Y831169D01*
X-87237732Y831167D01*
X-87341036Y748108D01*
X-87394495Y705126D01*
X-87467264Y618403D01*
X-87523798Y551029D01*
X-87523801Y551025D01*
X-87526907Y547323D01*
X-87626147Y366806D01*
X-87627611Y362192D01*
X-87627612Y362189D01*
X-87683599Y185695D01*
X-87688435Y170451D01*
X-87688975Y165639D01*
X-87688975Y165638D01*
X-87709829Y-20288D01*
X-87711397Y-34263D01*
X-91775000Y-34263D01*
X-91775000Y1071256D01*
X-80710916Y1071256D01*
X-80671768Y940354D01*
X-80595860Y826751D01*
X-80489905Y740489D01*
X-80363268Y689196D01*
X-80355896Y688558D01*
X-80355894Y688557D01*
X-80336955Y686917D01*
X-80303569Y684025D01*
X-80247228Y660168D01*
X-80242108Y655399D01*
X-79139497Y-447212D01*
X-79111720Y-501729D01*
X-79110504Y-517993D01*
X-79110916Y-570482D01*
X-79108796Y-577570D01*
X-79108796Y-577572D01*
X-79094741Y-624568D01*
X-79071768Y-701384D01*
X-78995860Y-814987D01*
X-78889905Y-901249D01*
X-78763268Y-952542D01*
X-78755896Y-953180D01*
X-78755894Y-953181D01*
X-78701772Y-957868D01*
X-78627148Y-964331D01*
X-78619917Y-962774D01*
X-78619914Y-962774D01*
X-78500813Y-937133D01*
X-78500811Y-937132D01*
X-78493578Y-935575D01*
X-78374369Y-868814D01*
X-78369261Y-863459D01*
X-78369258Y-863457D01*
X-78317153Y-808836D01*
X-78280060Y-769953D01*
X-78248101Y-705993D01*
X-78222299Y-654354D01*
X-78222298Y-654352D01*
X-78218990Y-647731D01*
X-78215134Y-624568D01*
X-78203242Y-553116D01*
X-78196557Y-512956D01*
X-78196500Y-505738D01*
X-78198547Y-492118D01*
X-78215713Y-377943D01*
X-78216813Y-370626D01*
X-78223952Y-355758D01*
X-78272752Y-254133D01*
X-78272753Y-254132D01*
X-78275956Y-247461D01*
X-78287734Y-234719D01*
X-78363677Y-152565D01*
X-78368701Y-147130D01*
X-78486847Y-78506D01*
X-78619948Y-47654D01*
X-78639482Y-49037D01*
X-78698863Y-34286D01*
X-78716478Y-20288D01*
X-79770387Y1033621D01*
X-79798164Y1088138D01*
X-79798039Y1119878D01*
X-79796557Y1128782D01*
X-79796500Y1136000D01*
X-79801277Y1167778D01*
X-79815713Y1263795D01*
X-79816813Y1271112D01*
X-79851929Y1344242D01*
X-79872752Y1387605D01*
X-79872753Y1387606D01*
X-79875956Y1394277D01*
X-79968701Y1494608D01*
X-80086847Y1563232D01*
X-80219948Y1594084D01*
X-80298425Y1588527D01*
X-80348853Y1584957D01*
X-80348854Y1584957D01*
X-80356237Y1584434D01*
X-80483663Y1535136D01*
X-80489477Y1530552D01*
X-80489478Y1530552D01*
X-80585148Y1455132D01*
X-80585149Y1455130D01*
X-80590961Y1450549D01*
X-80595168Y1444462D01*
X-80595169Y1444461D01*
X-80626098Y1399711D01*
X-80668644Y1338152D01*
X-80709843Y1207882D01*
X-80709901Y1200483D01*
X-80710783Y1088138D01*
X-80710916Y1071256D01*
X-91775000Y1071256D01*
X-91775000Y2505737D01*
X-87711397Y2505737D01*
X-87703908Y2416555D01*
X-87703772Y2414937D01*
X-87694160Y2300462D01*
X-87692827Y2295814D01*
X-87692827Y2295813D01*
X-87648249Y2140354D01*
X-87637379Y2102445D01*
X-87543218Y1919227D01*
X-87415263Y1757788D01*
X-87258388Y1624277D01*
X-87254165Y1621917D01*
X-87254161Y1621914D01*
X-87152151Y1564903D01*
X-87078568Y1523779D01*
X-87073970Y1522285D01*
X-86887258Y1461618D01*
X-86887255Y1461617D01*
X-86882653Y1460122D01*
X-86678105Y1435731D01*
X-86673283Y1436102D01*
X-86673280Y1436102D01*
X-86477542Y1451163D01*
X-86477537Y1451164D01*
X-86472714Y1451535D01*
X-86274305Y1506932D01*
X-86243911Y1522285D01*
X-86094756Y1597629D01*
X-86094754Y1597630D01*
X-86090435Y1599812D01*
X-85928107Y1726637D01*
X-85924945Y1730300D01*
X-85924940Y1730305D01*
X-85840877Y1827694D01*
X-85793504Y1882576D01*
X-85770234Y1923537D01*
X-85694142Y2057483D01*
X-85694141Y2057486D01*
X-85691753Y2061689D01*
X-85676645Y2107103D01*
X-85628257Y2252565D01*
X-85628257Y2252567D01*
X-85626730Y2257156D01*
X-85624949Y2271256D01*
X-79510916Y2271256D01*
X-79471768Y2140354D01*
X-79395860Y2026751D01*
X-79289905Y1940489D01*
X-79283049Y1937712D01*
X-79237411Y1919227D01*
X-79163268Y1889196D01*
X-79155895Y1888557D01*
X-79153614Y1888010D01*
X-79106720Y1861749D01*
X-78047759Y802788D01*
X-78019982Y748271D01*
X-78018766Y732007D01*
X-78019080Y691975D01*
X-78019178Y679518D01*
X-77980030Y548616D01*
X-77904122Y435013D01*
X-77798167Y348751D01*
X-77671530Y297458D01*
X-77664158Y296820D01*
X-77664156Y296819D01*
X-77610034Y292132D01*
X-77535410Y285669D01*
X-77528179Y287226D01*
X-77528176Y287226D01*
X-77409075Y312867D01*
X-77409073Y312868D01*
X-77401840Y314425D01*
X-77282631Y381186D01*
X-77277523Y386541D01*
X-77277520Y386543D01*
X-77225415Y441164D01*
X-77188322Y480047D01*
X-77154707Y547323D01*
X-77130561Y595646D01*
X-77130560Y595648D01*
X-77127252Y602269D01*
X-77104819Y737044D01*
X-77104762Y744262D01*
X-77116594Y822966D01*
X-77123975Y872057D01*
X-77125075Y879374D01*
X-77145412Y921727D01*
X-77181014Y995867D01*
X-77181015Y995868D01*
X-77184218Y1002539D01*
X-77276963Y1102870D01*
X-77395109Y1171494D01*
X-77528210Y1202346D01*
X-77547744Y1200963D01*
X-77607125Y1215714D01*
X-77624740Y1229712D01*
X-78578701Y2183672D01*
X-78606478Y2238189D01*
X-78606353Y2269931D01*
X-78597196Y2324946D01*
X-78596557Y2328782D01*
X-78596500Y2336000D01*
X-78608367Y2414937D01*
X-78615713Y2463795D01*
X-78616813Y2471112D01*
X-78633439Y2505737D01*
X-78672752Y2587605D01*
X-78672753Y2587606D01*
X-78675956Y2594277D01*
X-78768701Y2694608D01*
X-78886847Y2763232D01*
X-79019948Y2794084D01*
X-79098425Y2788527D01*
X-79148853Y2784957D01*
X-79148854Y2784957D01*
X-79156237Y2784434D01*
X-79283663Y2735136D01*
X-79289477Y2730552D01*
X-79289478Y2730552D01*
X-79385148Y2655132D01*
X-79385149Y2655130D01*
X-79390961Y2650549D01*
X-79468644Y2538152D01*
X-79509843Y2407882D01*
X-79510916Y2271256D01*
X-85624949Y2271256D01*
X-85621846Y2295813D01*
X-85601260Y2458775D01*
X-85600912Y2461529D01*
X-85600500Y2491000D01*
X-85620602Y2696014D01*
X-85623507Y2705638D01*
X-85647298Y2784434D01*
X-85680142Y2893220D01*
X-85776852Y3075105D01*
X-85907048Y3234741D01*
X-85910777Y3237826D01*
X-86062045Y3362966D01*
X-86062047Y3362967D01*
X-86065772Y3366049D01*
X-86206348Y3442059D01*
X-86242723Y3461727D01*
X-86242724Y3461728D01*
X-86246977Y3464027D01*
X-86347823Y3495244D01*
X-86439141Y3523512D01*
X-86439145Y3523513D01*
X-86443762Y3524942D01*
X-86448569Y3525447D01*
X-86448573Y3525448D01*
X-86643815Y3545968D01*
X-86643817Y3545968D01*
X-86648631Y3546474D01*
X-86716628Y3540286D01*
X-86848961Y3528243D01*
X-86848964Y3528242D01*
X-86853781Y3527804D01*
X-86858423Y3526438D01*
X-86858427Y3526437D01*
X-87046750Y3471011D01*
X-87046753Y3471010D01*
X-87051397Y3469643D01*
X-87055691Y3467398D01*
X-87229656Y3376452D01*
X-87229660Y3376449D01*
X-87233953Y3374205D01*
X-87237729Y3371169D01*
X-87237732Y3371167D01*
X-87295438Y3324770D01*
X-87394495Y3245126D01*
X-87438697Y3192448D01*
X-87523798Y3091029D01*
X-87523801Y3091025D01*
X-87526907Y3087323D01*
X-87626147Y2906806D01*
X-87688435Y2710451D01*
X-87688975Y2705639D01*
X-87688975Y2705638D01*
X-87700856Y2599711D01*
X-87711397Y2505737D01*
X-91775000Y2505737D01*
X-91775000Y5045737D01*
X-87711397Y5045737D01*
X-87694160Y4840462D01*
X-87692827Y4835814D01*
X-87692827Y4835813D01*
X-87653841Y4699856D01*
X-87637379Y4642445D01*
X-87635164Y4638135D01*
X-87618792Y4606278D01*
X-87543218Y4459227D01*
X-87415263Y4297788D01*
X-87411583Y4294656D01*
X-87411581Y4294654D01*
X-87348721Y4241156D01*
X-87258388Y4164277D01*
X-87254165Y4161917D01*
X-87254161Y4161914D01*
X-87194990Y4128845D01*
X-87078568Y4063779D01*
X-87073970Y4062285D01*
X-86887258Y4001618D01*
X-86887255Y4001617D01*
X-86882653Y4000122D01*
X-86678105Y3975731D01*
X-86673283Y3976102D01*
X-86673280Y3976102D01*
X-86477542Y3991163D01*
X-86477537Y3991164D01*
X-86472714Y3991535D01*
X-86274305Y4046932D01*
X-86269987Y4049113D01*
X-86094756Y4137629D01*
X-86094754Y4137630D01*
X-86090435Y4139812D01*
X-85928107Y4266637D01*
X-85924945Y4270300D01*
X-85924940Y4270305D01*
X-85796668Y4418911D01*
X-85793504Y4422576D01*
X-85770234Y4463537D01*
X-85708721Y4571819D01*
X-24606954Y4571819D01*
X-24568147Y4442057D01*
X-24492900Y4329442D01*
X-24487159Y4324768D01*
X-24393604Y4248602D01*
X-24393601Y4248600D01*
X-24387867Y4243932D01*
X-24348551Y4228007D01*
X-24301716Y4188637D01*
X-24286966Y4129257D01*
X-24309936Y4072547D01*
X-24349997Y4043919D01*
X-24381680Y4031662D01*
X-24421688Y4000122D01*
X-24452157Y3976102D01*
X-24488043Y3947812D01*
X-24565050Y3836393D01*
X-24605890Y3707257D01*
X-24606954Y3571821D01*
X-24604834Y3564733D01*
X-24604834Y3564731D01*
X-24576396Y3469643D01*
X-24568147Y3442059D01*
X-24492900Y3329444D01*
X-24487159Y3324770D01*
X-24393604Y3248604D01*
X-24393601Y3248602D01*
X-24387867Y3243934D01*
X-24262333Y3193087D01*
X-24254961Y3192449D01*
X-24254959Y3192448D01*
X-24187073Y3186569D01*
X-24127398Y3181401D01*
X-23994992Y3209907D01*
X-23950647Y3234741D01*
X-23883278Y3272469D01*
X-23883276Y3272470D01*
X-23876820Y3276086D01*
X-23871714Y3281439D01*
X-23871711Y3281441D01*
X-23788443Y3368730D01*
X-23788442Y3368731D01*
X-23783333Y3374087D01*
X-23746647Y3447507D01*
X-23703723Y3491110D01*
X-23643368Y3501156D01*
X-23588635Y3473807D01*
X-23569620Y3446976D01*
X-23568149Y3442059D01*
X-23564039Y3435907D01*
X-23564037Y3435904D01*
X-23564036Y3435903D01*
X-23492902Y3329444D01*
X-23487161Y3324770D01*
X-23393606Y3248604D01*
X-23393603Y3248602D01*
X-23387869Y3243934D01*
X-23262335Y3193087D01*
X-23254963Y3192449D01*
X-23254961Y3192448D01*
X-23187075Y3186569D01*
X-23127400Y3181401D01*
X-22994994Y3209907D01*
X-22950649Y3234741D01*
X-22883280Y3272469D01*
X-22883278Y3272470D01*
X-22876822Y3276086D01*
X-22871716Y3281439D01*
X-22871713Y3281441D01*
X-22788445Y3368730D01*
X-22788444Y3368731D01*
X-22783335Y3374087D01*
X-22752447Y3435903D01*
X-22726103Y3488625D01*
X-22726102Y3488627D01*
X-22722796Y3495244D01*
X-22700558Y3628846D01*
X-22700502Y3636001D01*
X-22708381Y3688413D01*
X-22719537Y3762615D01*
X-22719538Y3762617D01*
X-22720638Y3769936D01*
X-22752550Y3836393D01*
X-22776065Y3885361D01*
X-22779267Y3892029D01*
X-22871204Y3991486D01*
X-22948467Y4036364D01*
X-22973334Y4050808D01*
X-23014156Y4096385D01*
X-23020392Y4157252D01*
X-22989661Y4210160D01*
X-22971985Y4222791D01*
X-22925895Y4248602D01*
X-22883280Y4272467D01*
X-22883278Y4272468D01*
X-22876822Y4276084D01*
X-22871716Y4281437D01*
X-22871713Y4281439D01*
X-22788445Y4368728D01*
X-22788444Y4368729D01*
X-22783335Y4374085D01*
X-22780026Y4380707D01*
X-22726103Y4488623D01*
X-22726102Y4488625D01*
X-22722796Y4495242D01*
X-22700558Y4628844D01*
X-22700502Y4635999D01*
X-22711214Y4707255D01*
X-22719537Y4762613D01*
X-22719538Y4762615D01*
X-22720638Y4769934D01*
X-22726051Y4781208D01*
X-22776065Y4885359D01*
X-22779267Y4892027D01*
X-22871204Y4991484D01*
X-22988321Y5059511D01*
X-23120263Y5090094D01*
X-23255365Y5080528D01*
X-23299656Y5063393D01*
X-23374779Y5034331D01*
X-23374781Y5034330D01*
X-23381682Y5031660D01*
X-23488045Y4947810D01*
X-23565052Y4836391D01*
X-23567284Y4829334D01*
X-23569335Y4825147D01*
X-23611914Y4781208D01*
X-23672189Y4770688D01*
X-23727135Y4797605D01*
X-23747484Y4825845D01*
X-23776063Y4885359D01*
X-23779265Y4892027D01*
X-23871202Y4991484D01*
X-23988319Y5059511D01*
X-24120261Y5090094D01*
X-24255363Y5080528D01*
X-24299654Y5063393D01*
X-24374777Y5034331D01*
X-24374779Y5034330D01*
X-24381680Y5031660D01*
X-24488043Y4947810D01*
X-24565050Y4836391D01*
X-24605890Y4707255D01*
X-24605948Y4699856D01*
X-24606810Y4590095D01*
X-24606954Y4571819D01*
X-85708721Y4571819D01*
X-85694142Y4597483D01*
X-85694141Y4597486D01*
X-85691753Y4601689D01*
X-85682719Y4628844D01*
X-85628257Y4792565D01*
X-85628257Y4792567D01*
X-85626730Y4797156D01*
X-85621846Y4835813D01*
X-85601260Y4998775D01*
X-85600912Y5001529D01*
X-85600500Y5031000D01*
X-85600770Y5033756D01*
X-85620130Y5231204D01*
X-85620131Y5231208D01*
X-85620602Y5236014D01*
X-85623507Y5245638D01*
X-85678744Y5428588D01*
X-85680142Y5433220D01*
X-85776852Y5615105D01*
X-85907048Y5774741D01*
X-86065772Y5906049D01*
X-86246977Y6004027D01*
X-86310048Y6023551D01*
X-86439141Y6063512D01*
X-86439145Y6063513D01*
X-86443762Y6064942D01*
X-86448569Y6065447D01*
X-86448573Y6065448D01*
X-86643815Y6085968D01*
X-86643817Y6085968D01*
X-86648631Y6086474D01*
X-86716628Y6080286D01*
X-86848961Y6068243D01*
X-86848964Y6068242D01*
X-86853781Y6067804D01*
X-86858423Y6066438D01*
X-86858427Y6066437D01*
X-87046750Y6011011D01*
X-87046753Y6011010D01*
X-87051397Y6009643D01*
X-87055691Y6007398D01*
X-87229656Y5916452D01*
X-87229660Y5916449D01*
X-87233953Y5914205D01*
X-87237729Y5911169D01*
X-87237732Y5911167D01*
X-87244097Y5906049D01*
X-87394495Y5785126D01*
X-87406357Y5770989D01*
X-87523798Y5631029D01*
X-87523801Y5631025D01*
X-87526907Y5627323D01*
X-87626147Y5446806D01*
X-87688435Y5250451D01*
X-87688975Y5245639D01*
X-87688975Y5245638D01*
X-87706480Y5089571D01*
X-87711397Y5045737D01*
X-91775000Y5045737D01*
X-91775000Y7585737D01*
X-87711397Y7585737D01*
X-87694160Y7380462D01*
X-87637379Y7182445D01*
X-87543218Y6999227D01*
X-87415263Y6837788D01*
X-87258388Y6704277D01*
X-87254165Y6701917D01*
X-87254161Y6701914D01*
X-87137547Y6636741D01*
X-87078568Y6603779D01*
X-87073970Y6602285D01*
X-86887258Y6541618D01*
X-86887255Y6541617D01*
X-86882653Y6540122D01*
X-86678105Y6515731D01*
X-86673283Y6516102D01*
X-86673280Y6516102D01*
X-86477542Y6531163D01*
X-86477537Y6531164D01*
X-86472714Y6531535D01*
X-86274305Y6586932D01*
X-86243911Y6602285D01*
X-86094756Y6677629D01*
X-86094754Y6677630D01*
X-86090435Y6679812D01*
X-85928107Y6806637D01*
X-85924945Y6810300D01*
X-85924940Y6810305D01*
X-85796668Y6958911D01*
X-85793504Y6962576D01*
X-85770234Y7003537D01*
X-85694142Y7137483D01*
X-85694141Y7137486D01*
X-85691753Y7141689D01*
X-85676645Y7187103D01*
X-85628257Y7332565D01*
X-85628257Y7332567D01*
X-85626730Y7337156D01*
X-85621846Y7375813D01*
X-85601260Y7538775D01*
X-85600912Y7541529D01*
X-85600500Y7571000D01*
X-85620602Y7776014D01*
X-85623507Y7785638D01*
X-85678744Y7968588D01*
X-85680142Y7973220D01*
X-85776852Y8155105D01*
X-85907048Y8314741D01*
X-86065772Y8446049D01*
X-86246977Y8544027D01*
X-86310048Y8563551D01*
X-86439141Y8603512D01*
X-86439145Y8603513D01*
X-86443762Y8604942D01*
X-86448569Y8605447D01*
X-86448573Y8605448D01*
X-86643815Y8625968D01*
X-86643817Y8625968D01*
X-86648631Y8626474D01*
X-86716628Y8620286D01*
X-86848961Y8608243D01*
X-86848964Y8608242D01*
X-86853781Y8607804D01*
X-86858423Y8606438D01*
X-86858427Y8606437D01*
X-87046750Y8551011D01*
X-87046753Y8551010D01*
X-87051397Y8549643D01*
X-87055691Y8547398D01*
X-87229656Y8456452D01*
X-87229660Y8456449D01*
X-87233953Y8454205D01*
X-87237729Y8451169D01*
X-87237732Y8451167D01*
X-87244097Y8446049D01*
X-87394495Y8325126D01*
X-87406357Y8310989D01*
X-87523798Y8171029D01*
X-87523801Y8171025D01*
X-87526907Y8167323D01*
X-87626147Y7986806D01*
X-87688435Y7790451D01*
X-87711397Y7585737D01*
X-91775000Y7585737D01*
X-91775000Y20041839D01*
X-91772867Y20060751D01*
X-91771698Y20063951D01*
X-91770757Y20073431D01*
X-91769947Y20137938D01*
X-91769379Y20183262D01*
X-90460881Y20183262D01*
X-90448042Y19915965D01*
X-90419506Y19772505D01*
X-90397287Y19660803D01*
X-90395835Y19653501D01*
X-90305406Y19401637D01*
X-90178743Y19165906D01*
X-90176543Y19162960D01*
X-90048426Y18991390D01*
X-90018628Y18951485D01*
X-89828578Y18763087D01*
X-89612769Y18604849D01*
X-89375941Y18480248D01*
X-89123298Y18392021D01*
X-89119694Y18391337D01*
X-89119695Y18391337D01*
X-88863997Y18342791D01*
X-88863995Y18342791D01*
X-88860388Y18342106D01*
X-88714666Y18336381D01*
X-88596659Y18331744D01*
X-88596656Y18331744D01*
X-88592989Y18331600D01*
X-88456379Y18346561D01*
X-88330615Y18360334D01*
X-88330612Y18360335D01*
X-88326974Y18360733D01*
X-88068187Y18428866D01*
X-87822313Y18534502D01*
X-87819186Y18536437D01*
X-87597880Y18673385D01*
X-87597875Y18673389D01*
X-87594754Y18675320D01*
X-87591539Y18678041D01*
X-87393308Y18845856D01*
X-87390508Y18848226D01*
X-87214064Y19049423D01*
X-87069296Y19274490D01*
X-87050238Y19316796D01*
X-86960893Y19515135D01*
X-86960892Y19515137D01*
X-86959385Y19518483D01*
X-86921306Y19653501D01*
X-86887743Y19772505D01*
X-86887742Y19772508D01*
X-86886746Y19776041D01*
X-86852974Y20041507D01*
X-86852224Y20070151D01*
X-86850565Y20133508D01*
X-86850565Y20133513D01*
X-86850500Y20136000D01*
X-86864626Y20326085D01*
X-86870060Y20399216D01*
X-86870061Y20399222D01*
X-86870332Y20402870D01*
X-86929392Y20663877D01*
X-86933280Y20673876D01*
X-87025052Y20909869D01*
X-87025054Y20909874D01*
X-87026382Y20913288D01*
X-87159173Y21145623D01*
X-87324846Y21355778D01*
X-87327519Y21358292D01*
X-87327524Y21358298D01*
X-87482668Y21504242D01*
X-87519762Y21539137D01*
X-87739639Y21691671D01*
X-87979648Y21810030D01*
X-88189319Y21877147D01*
X-88231012Y21890493D01*
X-88234514Y21891614D01*
X-88454169Y21927387D01*
X-88495023Y21934041D01*
X-88495024Y21934041D01*
X-88498640Y21934630D01*
X-88502303Y21934678D01*
X-88502304Y21934678D01*
X-88632431Y21936381D01*
X-88766223Y21938132D01*
X-88769851Y21937638D01*
X-88769855Y21937638D01*
X-88898804Y21920088D01*
X-89031385Y21902045D01*
X-89288299Y21827162D01*
X-89531324Y21715126D01*
X-89534391Y21713115D01*
X-89534395Y21713113D01*
X-89741102Y21577589D01*
X-89755119Y21568399D01*
X-89757852Y21565960D01*
X-89757853Y21565959D01*
X-89859268Y21475443D01*
X-89954768Y21390206D01*
X-89957115Y21387384D01*
X-89957116Y21387383D01*
X-89985806Y21352887D01*
X-90125886Y21184459D01*
X-90127791Y21181319D01*
X-90127795Y21181314D01*
X-90206213Y21052084D01*
X-90264712Y20955680D01*
X-90266131Y20952295D01*
X-90266133Y20952292D01*
X-90283051Y20911946D01*
X-90368198Y20708894D01*
X-90369103Y20705332D01*
X-90369103Y20705331D01*
X-90393619Y20608797D01*
X-90434070Y20449522D01*
X-90460881Y20183262D01*
X-91769379Y20183262D01*
X-91768578Y20247101D01*
X-91768450Y20251041D01*
X-91764308Y20330057D01*
X-91763902Y20335223D01*
X-91737408Y20587301D01*
X-91736731Y20592441D01*
X-91726996Y20653902D01*
X-91726052Y20658997D01*
X-91673358Y20906906D01*
X-91672148Y20911946D01*
X-91664940Y20938848D01*
X-91656031Y20972096D01*
X-91654563Y20977052D01*
X-91645067Y21006275D01*
X-91576234Y21218120D01*
X-91574521Y21222958D01*
X-91552190Y21281131D01*
X-91550235Y21285851D01*
X-91447130Y21517428D01*
X-91444921Y21522060D01*
X-91416628Y21577589D01*
X-91414180Y21582095D01*
X-91337375Y21715126D01*
X-91287451Y21801596D01*
X-91284743Y21806015D01*
X-91250853Y21858201D01*
X-91247918Y21862473D01*
X-91098917Y22067555D01*
X-91095762Y22071666D01*
X-91056592Y22120037D01*
X-91053270Y22123927D01*
X-90883630Y22312331D01*
X-90880069Y22316083D01*
X-90836077Y22360074D01*
X-90832318Y22363641D01*
X-90643963Y22533237D01*
X-90640036Y22536592D01*
X-90591654Y22575771D01*
X-90587550Y22578920D01*
X-90382467Y22727922D01*
X-90378194Y22730858D01*
X-90326037Y22764728D01*
X-90321619Y22767435D01*
X-90102081Y22894186D01*
X-90097545Y22896649D01*
X-90042068Y22924916D01*
X-90037462Y22927113D01*
X-89805854Y23030232D01*
X-89801106Y23032199D01*
X-89742948Y23054524D01*
X-89738097Y23056242D01*
X-89621783Y23094034D01*
X-89497050Y23134562D01*
X-89492099Y23136029D01*
X-89431942Y23152148D01*
X-89426913Y23153355D01*
X-89178987Y23206053D01*
X-89173891Y23206997D01*
X-89112446Y23216729D01*
X-89107307Y23217406D01*
X-88855219Y23243901D01*
X-88850053Y23244307D01*
X-88809299Y23246443D01*
X-88771031Y23248449D01*
X-88767133Y23248575D01*
X-88621121Y23250407D01*
X-88604184Y23253445D01*
X-88586705Y23255000D01*
X-69551072Y23255000D01*
X-69492881Y23236093D01*
G37*
%TD.AperFunction*%
%TD*%
M02*
