%TF.GenerationSoftware,KiCad,Pcbnew,(5.99.0-9568-gb9d26a55f2)*%
%TF.CreationDate,2021-03-08T15:42:01+01:00*%
%TF.ProjectId,cm4_cb_use_v01,636d345f-6362-45f7-9573-655f7630312e,v01*%
%TF.SameCoordinates,PXa0d7c80PY44cb540*%
%TF.FileFunction,Soldermask,Top*%
%TF.FilePolarity,Negative*%
%FSLAX46Y46*%
G04 Gerber Fmt 4.6, Leading zero omitted, Abs format (unit mm)*
G04 Created by KiCad (PCBNEW (5.99.0-9568-gb9d26a55f2)) date 2021-03-08 15:42:01*
%MOMM*%
%LPD*%
G01*
G04 APERTURE LIST*
G04 Aperture macros list*
%AMRoundRect*
0 Rectangle with rounded corners*
0 $1 Rounding radius*
0 $2 $3 $4 $5 $6 $7 $8 $9 X,Y pos of 4 corners*
0 Add a 4 corners polygon primitive as box body*
4,1,4,$2,$3,$4,$5,$6,$7,$8,$9,$2,$3,0*
0 Add four circle primitives for the rounded corners*
1,1,$1+$1,$2,$3*
1,1,$1+$1,$4,$5*
1,1,$1+$1,$6,$7*
1,1,$1+$1,$8,$9*
0 Add four rect primitives between the rounded corners*
20,1,$1+$1,$2,$3,$4,$5,0*
20,1,$1+$1,$4,$5,$6,$7,0*
20,1,$1+$1,$6,$7,$8,$9,0*
20,1,$1+$1,$8,$9,$2,$3,0*%
%AMFreePoly0*
4,1,22,0.500000,-0.750000,0.000000,-0.750000,0.000000,-0.745033,-0.079941,-0.743568,-0.215256,-0.701293,-0.333266,-0.622738,-0.424486,-0.514219,-0.481581,-0.384460,-0.499164,-0.250000,-0.500000,-0.250000,-0.500000,0.250000,-0.499164,0.250000,-0.499963,0.256109,-0.478152,0.396186,-0.417904,0.524511,-0.324060,0.630769,-0.204165,0.706417,-0.067858,0.745374,0.000000,0.744959,0.000000,0.750000,
0.500000,0.750000,0.500000,-0.750000,0.500000,-0.750000,$1*%
%AMFreePoly1*
4,1,20,0.000000,0.744959,0.073905,0.744508,0.209726,0.703889,0.328688,0.626782,0.421226,0.519385,0.479903,0.390333,0.500000,0.250000,0.500000,-0.250000,0.499851,-0.262216,0.476331,-0.402017,0.414519,-0.529596,0.319384,-0.634700,0.198574,-0.708877,0.061801,-0.746166,0.000000,-0.745033,0.000000,-0.750000,-0.500000,-0.750000,-0.500000,0.750000,0.000000,0.750000,0.000000,0.744959,
0.000000,0.744959,$1*%
G04 Aperture macros list end*
%TA.AperFunction,Profile*%
%ADD10C,0.100000*%
%TD*%
%ADD11C,2.000000*%
%ADD12RoundRect,0.250000X-0.250000X-0.475000X0.250000X-0.475000X0.250000X0.475000X-0.250000X0.475000X0*%
%ADD13RoundRect,0.243750X0.243750X0.456250X-0.243750X0.456250X-0.243750X-0.456250X0.243750X-0.456250X0*%
%ADD14R,0.300000X0.300000*%
%ADD15R,0.300000X0.700000*%
%ADD16R,1.000000X0.700000*%
%ADD17RoundRect,0.250000X-0.262500X-0.450000X0.262500X-0.450000X0.262500X0.450000X-0.262500X0.450000X0*%
%ADD18R,1.190000X0.400000*%
%ADD19FreePoly0,180.000000*%
%ADD20FreePoly1,180.000000*%
%ADD21RoundRect,0.218750X0.218750X0.381250X-0.218750X0.381250X-0.218750X-0.381250X0.218750X-0.381250X0*%
%ADD22RoundRect,0.250000X-0.845000X0.620000X-0.845000X-0.620000X0.845000X-0.620000X0.845000X0.620000X0*%
%ADD23O,2.190000X1.740000*%
%ADD24R,1.700000X1.700000*%
%ADD25O,1.700000X1.700000*%
%ADD26C,3.200000*%
%ADD27RoundRect,0.125000X-0.174999X-0.000001X-0.174999X0.000001X0.174999X0.000001X0.174999X-0.000001X0*%
%ADD28RoundRect,0.125000X0.000001X-0.174999X-0.000001X-0.174999X-0.000001X0.174999X0.000001X0.174999X0*%
%ADD29RoundRect,0.203998X-0.646001X-0.646001X0.646001X-0.646001X0.646001X0.646001X-0.646001X0.646001X0*%
%ADD30RoundRect,0.185998X-0.589001X-0.589001X0.589001X-0.589001X0.589001X0.589001X-0.589001X0.589001X0*%
%ADD31C,6.100000*%
%ADD32R,0.700000X0.200000*%
%ADD33RoundRect,0.250000X0.262500X0.450000X-0.262500X0.450000X-0.262500X-0.450000X0.262500X-0.450000X0*%
%ADD34RoundRect,0.250000X0.250000X0.475000X-0.250000X0.475000X-0.250000X-0.475000X0.250000X-0.475000X0*%
%ADD35O,1.500000X3.300000*%
%ADD36R,0.280000X2.700000*%
G04 APERTURE END LIST*
D10*
X-88656000Y23636000D02*
X-15656000Y23636000D01*
X-12156000Y-47864000D02*
X-12156000Y20136000D01*
X-92156000Y20136000D02*
X-92156000Y-47864000D01*
X-12156000Y20136000D02*
G75*
G03*
X-15656000Y23636000I-3325707J174293D01*
G01*
X-92156002Y20136002D02*
G75*
G02*
X-88656000Y23636000I3500000J-2D01*
G01*
X-15655998Y-51363998D02*
G75*
G03*
X-12156000Y-47864000I0J3499998D01*
G01*
X-88656002Y-51364002D02*
G75*
G02*
X-92156000Y-47864000I2J3500000D01*
G01*
X-88656000Y-51364000D02*
X-15656000Y-51364000D01*
D11*
%TO.C,REF\u002A\u002A*%
X-20656000Y-47864000D03*
%TD*%
D12*
%TO.C,C2*%
X-16806000Y1386000D03*
X-14906000Y1386000D03*
%TD*%
D13*
%TO.C,D1*%
X-85168500Y-23864000D03*
X-87043500Y-23864000D03*
%TD*%
D14*
%TO.C,U2*%
X-61310000Y-39541000D03*
X-60610000Y-39541000D03*
X-60960000Y-38691000D03*
%TD*%
D15*
%TO.C,J3*%
X-67535056Y-43594000D03*
X-67035056Y-43594000D03*
X-66535056Y-43594000D03*
X-66035056Y-43594000D03*
X-65535056Y-43594000D03*
X-65035056Y-43594000D03*
X-64035056Y-43594000D03*
X-63535056Y-43594000D03*
X-63035056Y-43594000D03*
X-62535056Y-43594000D03*
X-62035056Y-43594000D03*
X-61535056Y-43594000D03*
D16*
X-61435056Y-44894001D03*
D15*
X-62285056Y-44894001D03*
X-62785056Y-44894001D03*
X-63285056Y-44894001D03*
X-63785056Y-44894001D03*
X-64285056Y-44894001D03*
X-64785056Y-44894001D03*
X-65285056Y-44894001D03*
X-65785056Y-44894001D03*
X-66285056Y-44894001D03*
X-66785056Y-44894001D03*
D16*
X-67635056Y-44894001D03*
%TD*%
D17*
%TO.C,R1*%
X-79656000Y-29814000D03*
X-77831000Y-29814000D03*
%TD*%
D18*
%TO.C,U1*%
X-77696000Y-34464000D03*
X-77696000Y-33814000D03*
X-77696000Y-33164000D03*
X-79616000Y-33164000D03*
X-79616000Y-34464000D03*
%TD*%
D19*
%TO.C,JP1*%
X-68506000Y7736000D03*
D20*
X-69806000Y7736000D03*
%TD*%
D21*
%TO.C,L1*%
X-27693500Y1136000D03*
X-29818500Y1136000D03*
%TD*%
D22*
%TO.C,J4*%
X-16276000Y-9906000D03*
D23*
X-16276000Y-12446000D03*
%TD*%
D24*
%TO.C,J1*%
X-86656000Y-15289000D03*
D25*
X-86656000Y-12749000D03*
X-86656000Y-10209000D03*
X-86656000Y-7669000D03*
X-86656000Y-5129000D03*
X-86656000Y-2589000D03*
X-86656000Y-49000D03*
X-86656000Y2491000D03*
X-86656000Y5031000D03*
X-86656000Y7571000D03*
%TD*%
D26*
%TO.C,REF\u002A\u002A*%
X-15656000Y20136000D03*
%TD*%
D27*
%TO.C,J5*%
X-25056002Y4886001D03*
X-25056002Y4386002D03*
X-25056002Y3886001D03*
X-25056002Y3386001D03*
D28*
X-24406001Y2736000D03*
X-23906002Y2736000D03*
X-23406001Y2736000D03*
X-22906001Y2736000D03*
D27*
X-22256003Y3386001D03*
X-22256003Y3886001D03*
X-22256003Y4386002D03*
X-22256003Y4886001D03*
D28*
X-22906001Y5536000D03*
X-23406001Y5536000D03*
X-23906002Y5536000D03*
X-24406001Y5536000D03*
D29*
X-23655999Y4135999D03*
D30*
X-23656003Y4135999D03*
%TD*%
D17*
%TO.C,R4*%
X-67865000Y-35560000D03*
X-66040000Y-35560000D03*
%TD*%
D11*
%TO.C,REF\u002A\u002A*%
X-83656000Y20136000D03*
%TD*%
D17*
%TO.C,R5*%
X-29668500Y-7864000D03*
X-27843500Y-7864000D03*
%TD*%
D26*
%TO.C,REF\u002A\u002A*%
X-88656000Y-47864000D03*
%TD*%
D31*
%TO.C,Module1*%
X-35656000Y-27864000D03*
X-35656000Y20136000D03*
X-68656000Y20136000D03*
X-68656000Y-27864000D03*
D32*
X-70656000Y3436000D03*
X-67576000Y3436000D03*
X-70656000Y3036000D03*
X-67576000Y3036000D03*
X-70656000Y2636000D03*
X-67576000Y2636000D03*
X-70656000Y2236000D03*
X-67576000Y2236000D03*
X-70656000Y1836000D03*
X-67576000Y1836000D03*
X-70656000Y1436000D03*
X-67576000Y1436000D03*
X-70656000Y1036000D03*
X-67576000Y1036000D03*
X-70656000Y636000D03*
X-67576000Y636000D03*
X-70656000Y236000D03*
X-67576000Y236000D03*
X-70656000Y-164000D03*
X-67576000Y-164000D03*
X-70656000Y-564000D03*
X-67576000Y-564000D03*
X-70656000Y-964000D03*
X-67576000Y-964000D03*
X-70656000Y-1364000D03*
X-67576000Y-1364000D03*
X-70656000Y-1764000D03*
X-67576000Y-1764000D03*
X-70656000Y-2164000D03*
X-67576000Y-2164000D03*
X-70656000Y-2564000D03*
X-67576000Y-2564000D03*
X-70656000Y-2964000D03*
X-67576000Y-2964000D03*
X-70656000Y-3364000D03*
X-67576000Y-3364000D03*
X-70656000Y-3764000D03*
X-67576000Y-3764000D03*
X-70656000Y-4164000D03*
X-67576000Y-4164000D03*
X-70656000Y-4564000D03*
X-67576000Y-4564000D03*
X-70656000Y-4964000D03*
X-67576000Y-4964000D03*
X-70656000Y-5364000D03*
X-67576000Y-5364000D03*
X-70656000Y-5764000D03*
X-67576000Y-5764000D03*
X-70656000Y-6164000D03*
X-67576000Y-6164000D03*
X-70656000Y-6564000D03*
X-67576000Y-6564000D03*
X-70656000Y-6964000D03*
X-67576000Y-6964000D03*
X-70656000Y-7364000D03*
X-67576000Y-7364000D03*
X-70656000Y-7764000D03*
X-67576000Y-7764000D03*
X-70656000Y-8164000D03*
X-67576000Y-8164000D03*
X-70656000Y-8564000D03*
X-67576000Y-8564000D03*
X-70656000Y-8964000D03*
X-67576000Y-8964000D03*
X-70656000Y-9364000D03*
X-67576000Y-9364000D03*
X-70656000Y-9764000D03*
X-67576000Y-9764000D03*
X-70656000Y-10164000D03*
X-67576000Y-10164000D03*
X-70656000Y-10564000D03*
X-67576000Y-10564000D03*
X-70656000Y-10964000D03*
X-67576000Y-10964000D03*
X-70656000Y-11364000D03*
X-67576000Y-11364000D03*
X-70656000Y-11764000D03*
X-67576000Y-11764000D03*
X-70656000Y-12164000D03*
X-67576000Y-12164000D03*
X-70656000Y-12564000D03*
X-67576000Y-12564000D03*
X-70656000Y-12964000D03*
X-67576000Y-12964000D03*
X-70656000Y-13364000D03*
X-67576000Y-13364000D03*
X-70656000Y-13764000D03*
X-67576000Y-13764000D03*
X-70656000Y-14164000D03*
X-67576000Y-14164000D03*
X-70656000Y-14564000D03*
X-67576000Y-14564000D03*
X-70656000Y-14964000D03*
X-67576000Y-14964000D03*
X-70656000Y-15364000D03*
X-67576000Y-15364000D03*
X-70656000Y-15764000D03*
X-67576000Y-15764000D03*
X-70656000Y-16164000D03*
X-67576000Y-16164000D03*
X-36736000Y3436000D03*
X-33656000Y3436000D03*
X-36736000Y3036000D03*
X-33656000Y3036000D03*
X-36736000Y2636000D03*
X-33656000Y2636000D03*
X-36736000Y2236000D03*
X-33656000Y2236000D03*
X-36736000Y1836000D03*
X-33656000Y1836000D03*
X-36736000Y1436000D03*
X-33656000Y1436000D03*
X-36736000Y1036000D03*
X-33656000Y1036000D03*
X-36736000Y636000D03*
X-33656000Y636000D03*
X-36736000Y236000D03*
X-33656000Y236000D03*
X-36736000Y-164000D03*
X-33656000Y-164000D03*
X-36736000Y-564000D03*
X-33656000Y-564000D03*
X-36736000Y-964000D03*
X-33656000Y-964000D03*
X-36736000Y-1364000D03*
X-33656000Y-1364000D03*
X-36736000Y-1764000D03*
X-33656000Y-1764000D03*
X-36736000Y-2164000D03*
X-33656000Y-2164000D03*
X-36736000Y-2564000D03*
X-33656000Y-2564000D03*
X-36736000Y-2964000D03*
X-33656000Y-2964000D03*
X-36736000Y-3364000D03*
X-33656000Y-3364000D03*
X-36736000Y-3764000D03*
X-33656000Y-3764000D03*
X-36736000Y-4164000D03*
X-33656000Y-4164000D03*
X-36736000Y-4564000D03*
X-33656000Y-4564000D03*
X-36736000Y-4964000D03*
X-33656000Y-4964000D03*
X-36736000Y-5364000D03*
X-33656000Y-5364000D03*
X-36736000Y-5764000D03*
X-33656000Y-5764000D03*
X-36736000Y-6164000D03*
X-33656000Y-6164000D03*
X-36736000Y-6564000D03*
X-33656000Y-6564000D03*
X-36736000Y-6964000D03*
X-33656000Y-6964000D03*
X-36736000Y-7364000D03*
X-33656000Y-7364000D03*
X-36736000Y-7764000D03*
X-33656000Y-7764000D03*
X-36736000Y-8164000D03*
X-33656000Y-8164000D03*
X-36736000Y-8564000D03*
X-33656000Y-8564000D03*
X-36736000Y-8964000D03*
X-33656000Y-8964000D03*
X-36736000Y-9364000D03*
X-33656000Y-9364000D03*
X-36736000Y-9764000D03*
X-33656000Y-9764000D03*
X-36736000Y-10164000D03*
X-33656000Y-10164000D03*
X-36736000Y-10564000D03*
X-33656000Y-10564000D03*
X-36736000Y-10964000D03*
X-33656000Y-10964000D03*
X-36736000Y-11364000D03*
X-33656000Y-11364000D03*
X-36736000Y-11764000D03*
X-33656000Y-11764000D03*
X-36736000Y-12164000D03*
X-33656000Y-12164000D03*
X-36736000Y-12564000D03*
X-33656000Y-12564000D03*
X-36736000Y-12964000D03*
X-33656000Y-12964000D03*
X-36736000Y-13364000D03*
X-33656000Y-13364000D03*
X-36736000Y-13764000D03*
X-33656000Y-13764000D03*
X-36736000Y-14164000D03*
X-33656000Y-14164000D03*
X-36736000Y-14564000D03*
X-33656000Y-14564000D03*
X-36736000Y-14964000D03*
X-33656000Y-14964000D03*
X-36736000Y-15364000D03*
X-33656000Y-15364000D03*
X-36736000Y-15764000D03*
X-33656000Y-15764000D03*
X-36736000Y-16164000D03*
X-33656000Y-16164000D03*
%TD*%
D33*
%TO.C,R3*%
X-65952500Y-39994000D03*
X-67777500Y-39994000D03*
%TD*%
D12*
%TO.C,C4*%
X-29706000Y-2864000D03*
X-27806000Y-2864000D03*
%TD*%
%TO.C,C1*%
X-16856000Y-3614000D03*
X-14956000Y-3614000D03*
%TD*%
D34*
%TO.C,C3*%
X-22418000Y-2864000D03*
X-24318000Y-2864000D03*
%TD*%
D26*
%TO.C,REF\u002A\u002A*%
X-15656000Y-47864000D03*
%TD*%
D11*
%TO.C,REF\u002A\u002A*%
X-20656000Y20136000D03*
%TD*%
D26*
%TO.C,REF\u002A\u002A*%
X-88656000Y20136000D03*
%TD*%
D13*
%TO.C,D2*%
X-85081000Y-29764000D03*
X-86956000Y-29764000D03*
%TD*%
D17*
%TO.C,R2*%
X-79518500Y-23814000D03*
X-77693500Y-23814000D03*
%TD*%
D35*
%TO.C,J2*%
X-49306000Y-40409000D03*
X-34806000Y-40409000D03*
X-49306000Y-46369000D03*
X-34806000Y-46369000D03*
D36*
X-37556000Y-39759000D03*
X-38056000Y-39759000D03*
X-38556000Y-39759000D03*
X-39056000Y-39759000D03*
X-39556000Y-39759000D03*
X-40056000Y-39759000D03*
X-40556000Y-39759000D03*
X-41056000Y-39759000D03*
X-41556000Y-39759000D03*
X-42056000Y-39759000D03*
X-42556000Y-39759000D03*
X-43056000Y-39759000D03*
X-43556000Y-39759000D03*
X-44056000Y-39759000D03*
X-44556000Y-39759000D03*
X-45056000Y-39759000D03*
X-45556000Y-39759000D03*
X-46056000Y-39759000D03*
X-46556000Y-39759000D03*
%TD*%
D11*
%TO.C,REF\u002A\u002A*%
X-83656000Y-47864000D03*
%TD*%
M02*
