<?xml version="1.0" standalone="no"?>
 <!DOCTYPE svg PUBLIC "-//W3C//DTD SVG 1.1//EN" 
 "http://www.w3.org/Graphics/SVG/1.1/DTD/svg11.dtd"> 
<svg
  xmlns:svg="http://www.w3.org/2000/svg"
  xmlns="http://www.w3.org/2000/svg"
  xmlns:xlink="http://www.w3.org/1999/xlink"
  version="1.1"
  width="29.700220cm" height="21.000720cm" viewBox="0 0 116930 82680">
<title>SVG Picture created as cm4_cb_use_v01.svg date 2021/03/05 19:45:24 </title>
  <desc>Picture generated by Eeschema-SVG </desc>
<g style="fill:#000000; fill-opacity:1.000000;stroke:#000000; stroke-opacity:1.000000;
stroke-linecap:round; stroke-linejoin:round;"
 transform="translate(0 0) scale(1 1)">
</g>
<g style="fill:#FFFFFF; fill-opacity:0.0; 
stroke:#FFFFFF; stroke-width:0.000000; stroke-opacity:1; 
stroke-linecap:round; stroke-linejoin:round;">
</g>
<g style="fill:#FFFFFF; fill-opacity:1.0; 
stroke:#FFFFFF; stroke-width:0.039370; stroke-opacity:1; 
stroke-linecap:round; stroke-linejoin:round;">
<rect x="0.000000" y="0.000000" width="116930.000000" height="82680.000000" rx="0.000000" />
</g>
<g style="fill:#840000; fill-opacity:1.0; 
stroke:#840000; stroke-width:0.039370; stroke-opacity:1; 
stroke-linecap:round; stroke-linejoin:round;">
</g>
<g style="fill:#840000; fill-opacity:1.0; 
stroke:#840000; stroke-width:59.842520; stroke-opacity:1; 
stroke-linecap:round; stroke-linejoin:round;">
</g>
<g style="fill:#840000; fill-opacity:0.0; 
stroke:#840000; stroke-width:59.842520; stroke-opacity:1; 
stroke-linecap:round; stroke-linejoin:round;">
<rect x="69685.905512" y="65357.165354" width="42519.685039" height="12598.425197" rx="0.000000" />
<rect x="3937.007874" y="3937.007874" width="109055.984252" height="74805.984252" rx="0.000000" />
<rect x="4724.409449" y="4724.409449" width="107481.181102" height="73231.181102" rx="0.000000" />
<path d="M23622 4724
L23622 3937
" />
<path d="M43307 4724
L43307 3937
" />
<path d="M62992 4724
L62992 3937
" />
<path d="M82677 4724
L82677 3937
" />
<path d="M102362 4724
L102362 3937
" />
<text x="13779.527559" y="4586.614173"
textLength="549.960630" font-size="682.401575" lengthAdjust="spacingAndGlyphs"
text-anchor="start" opacity="0">1</text>
<g class="stroked-text"><desc>1</desc>
<path d="M14199 4562
L13906 4562
" />
<path d="M14053 4562
L14053 4050
L14004 4123
L13955 4172
L13906 4196
" />
</g><text x="33464.566929" y="4586.614173"
textLength="547.283465" font-size="682.401575" lengthAdjust="spacingAndGlyphs"
text-anchor="start" opacity="0">2</text>
<g class="stroked-text"><desc>2</desc>
<path d="M33591 4099
L33616 4074
L33665 4050
L33786 4050
L33835 4074
L33860 4099
L33884 4147
L33884 4196
L33860 4269
L33567 4562
L33884 4562
" />
</g><text x="53149.606299" y="4586.614173"
textLength="547.283465" font-size="682.401575" lengthAdjust="spacingAndGlyphs"
text-anchor="start" opacity="0">3</text>
<g class="stroked-text"><desc>3</desc>
<path d="M53252 4050
L53569 4050
L53398 4245
L53471 4245
L53520 4269
L53545 4294
L53569 4342
L53569 4464
L53545 4513
L53520 4537
L53471 4562
L53325 4562
L53277 4537
L53252 4513
" />
</g><text x="72834.645669" y="4586.614173"
textLength="547.283465" font-size="682.401575" lengthAdjust="spacingAndGlyphs"
text-anchor="start" opacity="0">4</text>
<g class="stroked-text"><desc>4</desc>
<path d="M73205 4221
L73205 4562
" />
<path d="M73083 4026
L72962 4391
L73278 4391
" />
</g><text x="92519.685039" y="4586.614173"
textLength="547.283465" font-size="682.401575" lengthAdjust="spacingAndGlyphs"
text-anchor="start" opacity="0">5</text>
<g class="stroked-text"><desc>5</desc>
<path d="M92915 4050
L92671 4050
L92647 4294
L92671 4269
L92720 4245
L92842 4245
L92890 4269
L92915 4294
L92939 4342
L92939 4464
L92915 4513
L92890 4537
L92842 4562
L92720 4562
L92671 4537
L92647 4513
" />
</g><text x="112204.724409" y="4586.614173"
textLength="547.283465" font-size="682.401575" lengthAdjust="spacingAndGlyphs"
text-anchor="start" opacity="0">6</text>
<g class="stroked-text"><desc>6</desc>
<path d="M112575 4050
L112478 4050
L112429 4074
L112405 4099
L112356 4172
L112332 4269
L112332 4464
L112356 4513
L112380 4537
L112429 4562
L112527 4562
L112575 4537
L112600 4513
L112624 4464
L112624 4342
L112600 4294
L112575 4269
L112527 4245
L112429 4245
L112380 4269
L112356 4294
L112332 4342
" />
</g><path d="M23622 77955
L23622 78742
" />
<path d="M43307 77955
L43307 78742
" />
<path d="M62992 77955
L62992 78742
" />
<path d="M82677 77955
L82677 78742
" />
<path d="M102362 77955
L102362 78742
" />
<text x="13779.527559" y="78605.196850"
textLength="547.283465" font-size="682.401575" lengthAdjust="spacingAndGlyphs"
text-anchor="start" opacity="0">1</text>
<g class="stroked-text"><desc>1</desc>
<path d="M14199 78580
L13906 78580
" />
<path d="M14053 78580
L14053 78068
L14004 78142
L13955 78190
L13906 78215
" />
</g><text x="33464.566929" y="78605.196850"
textLength="547.283465" font-size="682.401575" lengthAdjust="spacingAndGlyphs"
text-anchor="start" opacity="0">2</text>
<g class="stroked-text"><desc>2</desc>
<path d="M33591 78117
L33616 78093
L33665 78068
L33786 78068
L33835 78093
L33860 78117
L33884 78166
L33884 78215
L33860 78288
L33567 78580
L33884 78580
" />
</g><text x="53149.606299" y="78605.196850"
textLength="547.283465" font-size="682.401575" lengthAdjust="spacingAndGlyphs"
text-anchor="start" opacity="0">3</text>
<g class="stroked-text"><desc>3</desc>
<path d="M53252 78068
L53569 78068
L53398 78263
L53471 78263
L53520 78288
L53545 78312
L53569 78361
L53569 78483
L53545 78532
L53520 78556
L53471 78580
L53325 78580
L53277 78556
L53252 78532
" />
</g><text x="72834.645669" y="78605.196850"
textLength="547.283465" font-size="682.401575" lengthAdjust="spacingAndGlyphs"
text-anchor="start" opacity="0">4</text>
<g class="stroked-text"><desc>4</desc>
<path d="M73205 78239
L73205 78580
" />
<path d="M73083 78044
L72962 78410
L73278 78410
" />
</g><text x="92519.685039" y="78605.196850"
textLength="547.283465" font-size="682.401575" lengthAdjust="spacingAndGlyphs"
text-anchor="start" opacity="0">5</text>
<g class="stroked-text"><desc>5</desc>
<path d="M92915 78068
L92671 78068
L92647 78312
L92671 78288
L92720 78263
L92842 78263
L92890 78288
L92915 78312
L92939 78361
L92939 78483
L92915 78532
L92890 78556
L92842 78580
L92720 78580
L92671 78556
L92647 78532
" />
</g><text x="112204.724409" y="78605.196850"
textLength="547.283465" font-size="682.401575" lengthAdjust="spacingAndGlyphs"
text-anchor="start" opacity="0">6</text>
<g class="stroked-text"><desc>6</desc>
<path d="M112575 78068
L112478 78068
L112429 78093
L112405 78117
L112356 78190
L112332 78288
L112332 78483
L112356 78532
L112380 78556
L112429 78580
L112527 78580
L112575 78556
L112600 78532
L112624 78483
L112624 78361
L112600 78312
L112575 78288
L112527 78263
L112429 78263
L112380 78288
L112356 78312
L112332 78361
" />
</g><path d="M3937 23622
L4724 23622
" />
<path d="M3937 43307
L4724 43307
" />
<path d="M3937 62992
L4724 62992
" />
<text x="4330.708661" y="14035.433071"
textLength="498.543307" font-size="682.401575" lengthAdjust="spacingAndGlyphs"
text-anchor="middle" opacity="0">A</text>
<g class="stroked-text"><desc>A</desc>
<path d="M4208 13864
L4452 13864
" />
<path d="M4160 14011
L4330 13499
L4501 14011
" />
</g><text x="4330.708661" y="33720.472441"
textLength="571.653543" font-size="682.401575" lengthAdjust="spacingAndGlyphs"
text-anchor="middle" opacity="0">B</text>
<g class="stroked-text"><desc>B</desc>
<path d="M4367 33427
L4440 33452
L4464 33476
L4489 33525
L4489 33598
L4464 33647
L4440 33671
L4391 33696
L4196 33696
L4196 33184
L4367 33184
L4415 33208
L4440 33233
L4464 33281
L4464 33330
L4440 33379
L4415 33403
L4367 33427
L4196 33427
" />
</g><text x="4330.708661" y="53405.511811"
textLength="571.653543" font-size="682.401575" lengthAdjust="spacingAndGlyphs"
text-anchor="middle" opacity="0">C</text>
<g class="stroked-text"><desc>C</desc>
<path d="M4489 53332
L4464 53356
L4391 53381
L4342 53381
L4269 53356
L4221 53307
L4196 53259
L4172 53161
L4172 53088
L4196 52991
L4221 52942
L4269 52893
L4342 52869
L4391 52869
L4464 52893
L4489 52918
" />
</g><text x="4330.708661" y="73090.551181"
textLength="571.653543" font-size="682.401575" lengthAdjust="spacingAndGlyphs"
text-anchor="middle" opacity="0">D</text>
<g class="stroked-text"><desc>D</desc>
<path d="M4196 73066
L4196 72554
L4318 72554
L4391 72578
L4440 72627
L4464 72676
L4489 72773
L4489 72846
L4464 72944
L4440 72993
L4391 73041
L4318 73066
L4196 73066
" />
</g><path d="M112992 23622
L112205 23622
" />
<path d="M112992 43307
L112205 43307
" />
<path d="M112992 62992
L112205 62992
" />
<text x="112599.291339" y="14035.433071"
textLength="498.543307" font-size="682.401575" lengthAdjust="spacingAndGlyphs"
text-anchor="middle" opacity="0">A</text>
<g class="stroked-text"><desc>A</desc>
<path d="M112477 13864
L112721 13864
" />
<path d="M112428 14011
L112599 13499
L112769 14011
" />
</g><text x="112599.291339" y="33720.472441"
textLength="571.653543" font-size="682.401575" lengthAdjust="spacingAndGlyphs"
text-anchor="middle" opacity="0">B</text>
<g class="stroked-text"><desc>B</desc>
<path d="M112635 33427
L112708 33452
L112733 33476
L112757 33525
L112757 33598
L112733 33647
L112708 33671
L112660 33696
L112465 33696
L112465 33184
L112635 33184
L112684 33208
L112708 33233
L112733 33281
L112733 33330
L112708 33379
L112684 33403
L112635 33427
L112465 33427
" />
</g><text x="112599.291339" y="53405.511811"
textLength="571.653543" font-size="682.401575" lengthAdjust="spacingAndGlyphs"
text-anchor="middle" opacity="0">C</text>
<g class="stroked-text"><desc>C</desc>
<path d="M112757 53332
L112733 53356
L112660 53381
L112611 53381
L112538 53356
L112489 53307
L112465 53259
L112440 53161
L112440 53088
L112465 52991
L112489 52942
L112538 52893
L112611 52869
L112660 52869
L112733 52893
L112757 52918
" />
</g><text x="112599.291339" y="73090.551181"
textLength="571.653543" font-size="682.401575" lengthAdjust="spacingAndGlyphs"
text-anchor="middle" opacity="0">D</text>
<g class="stroked-text"><desc>D</desc>
<path d="M112465 73066
L112465 72554
L112587 72554
L112660 72578
L112708 72627
L112733 72676
L112757 72773
L112757 72846
L112733 72944
L112708 72993
L112660 73041
L112587 73066
L112465 73066
" />
</g><text x="78741.023622" y="76321.732283"
textLength="8721.259843" font-size="787.401575" lengthAdjust="spacingAndGlyphs"
text-anchor="start" opacity="0">Date: 2020-10-31</text>
<g class="stroked-text"><desc>Date: 2020-10-31</desc>
<path d="M78911 76293
L78911 75703
L79052 75703
L79136 75731
L79192 75787
L79220 75843
L79248 75956
L79248 76040
L79220 76152
L79192 76209
L79136 76265
L79052 76293
L78911 76293
" />
<path d="M79755 76293
L79755 75984
L79727 75928
L79670 75899
L79558 75899
L79502 75928
" />
<path d="M79755 76265
L79698 76293
L79558 76293
L79502 76265
L79473 76209
L79473 76152
L79502 76096
L79558 76068
L79698 76068
L79755 76040
" />
<path d="M79952 75899
L80177 75899
" />
<path d="M80036 75703
L80036 76209
L80064 76265
L80120 76293
L80177 76293
" />
<path d="M80598 76265
L80542 76293
L80430 76293
L80373 76265
L80345 76209
L80345 75984
L80373 75928
L80430 75899
L80542 75899
L80598 75928
L80626 75984
L80626 76040
L80345 76096
" />
<path d="M80880 76237
L80908 76265
L80880 76293
L80851 76265
L80880 76237
L80880 76293
" />
<path d="M80880 75928
L80908 75956
L80880 75984
L80851 75956
L80880 75928
L80880 75984
" />
<path d="M81583 75759
L81611 75731
L81667 75703
L81808 75703
L81864 75731
L81892 75759
L81920 75815
L81920 75871
L81892 75956
L81554 76293
L81920 76293
" />
<path d="M82286 75703
L82342 75703
L82398 75731
L82426 75759
L82454 75815
L82482 75928
L82482 76068
L82454 76181
L82426 76237
L82398 76265
L82342 76293
L82286 76293
L82229 76265
L82201 76237
L82173 76181
L82145 76068
L82145 75928
L82173 75815
L82201 75759
L82229 75731
L82286 75703
" />
<path d="M82707 75759
L82736 75731
L82792 75703
L82932 75703
L82989 75731
L83017 75759
L83045 75815
L83045 75871
L83017 75956
L82679 76293
L83045 76293
" />
<path d="M83410 75703
L83467 75703
L83523 75731
L83551 75759
L83579 75815
L83607 75928
L83607 76068
L83579 76181
L83551 76237
L83523 76265
L83467 76293
L83410 76293
L83354 76265
L83326 76237
L83298 76181
L83270 76068
L83270 75928
L83298 75815
L83326 75759
L83354 75731
L83410 75703
" />
<path d="M83860 76068
L84310 76068
" />
<path d="M84901 76293
L84563 76293
" />
<path d="M84732 76293
L84732 75703
L84676 75787
L84620 75843
L84563 75871
" />
<path d="M85267 75703
L85323 75703
L85379 75731
L85407 75759
L85435 75815
L85463 75928
L85463 76068
L85435 76181
L85407 76237
L85379 76265
L85323 76293
L85267 76293
L85210 76265
L85182 76237
L85154 76181
L85126 76068
L85126 75928
L85154 75815
L85182 75759
L85210 75731
L85267 75703
" />
<path d="M85716 76068
L86166 76068
" />
<path d="M86391 75703
L86757 75703
L86560 75928
L86644 75928
L86701 75956
L86729 75984
L86757 76040
L86757 76181
L86729 76237
L86701 76265
L86644 76293
L86476 76293
L86419 76265
L86391 76237
" />
<path d="M87319 76293
L86982 76293
" />
<path d="M87151 76293
L87151 75703
L87094 75787
L87038 75843
L86982 75871
" />
</g><path d="M69685 76577
L112205 76577
" />
<text x="70079.606299" y="77424.094488"
textLength="30684.133858" font-size="787.401575" lengthAdjust="spacingAndGlyphs"
text-anchor="start" opacity="0">KiCad E.D.A.  kicad 5.99.0-unknown-51d445007f~117~ubuntu20.04.1</text>
<g class="stroked-text"><desc>KiCad E.D.A.  kicad 5.99.0-unknown-51d445007f~117~ubuntu20.04.1</desc>
<path d="M70250 77395
L70250 76805
" />
<path d="M70587 77395
L70334 77058
" />
<path d="M70587 76805
L70250 77142
" />
<path d="M70840 77395
L70840 77002
" />
<path d="M70840 76805
L70812 76833
L70840 76861
L70868 76833
L70840 76805
L70840 76861
" />
<path d="M71459 77339
L71431 77367
L71346 77395
L71290 77395
L71206 77367
L71150 77311
L71121 77255
L71093 77142
L71093 77058
L71121 76946
L71150 76889
L71206 76833
L71290 76805
L71346 76805
L71431 76833
L71459 76861
" />
<path d="M71965 77395
L71965 77086
L71937 77030
L71881 77002
L71768 77002
L71712 77030
" />
<path d="M71965 77367
L71909 77395
L71768 77395
L71712 77367
L71684 77311
L71684 77255
L71712 77199
L71768 77170
L71909 77170
L71965 77142
" />
<path d="M72499 77395
L72499 76805
" />
<path d="M72499 77367
L72443 77395
L72331 77395
L72274 77367
L72246 77339
L72218 77283
L72218 77114
L72246 77058
L72274 77030
L72331 77002
L72443 77002
L72499 77030
" />
<path d="M73230 77086
L73427 77086
" />
<path d="M73512 77395
L73230 77395
L73230 76805
L73512 76805
" />
<path d="M73765 77339
L73793 77367
L73765 77395
L73737 77367
L73765 77339
L73765 77395
" />
<path d="M74046 77395
L74046 76805
L74187 76805
L74271 76833
L74327 76889
L74355 76946
L74383 77058
L74383 77142
L74355 77255
L74327 77311
L74271 77367
L74187 77395
L74046 77395
" />
<path d="M74637 77339
L74665 77367
L74637 77395
L74608 77367
L74637 77339
L74637 77395
" />
<path d="M74890 77227
L75171 77227
" />
<path d="M74833 77395
L75030 76805
L75227 77395
" />
<path d="M75424 77339
L75452 77367
L75424 77395
L75396 77367
L75424 77339
L75424 77395
" />
<path d="M76605 77395
L76605 76805
" />
<path d="M76661 77170
L76830 77395
" />
<path d="M76830 77002
L76605 77227
" />
<path d="M77083 77395
L77083 77002
" />
<path d="M77083 76805
L77055 76833
L77083 76861
L77111 76833
L77083 76805
L77083 76861
" />
<path d="M77617 77367
L77561 77395
L77449 77395
L77392 77367
L77364 77339
L77336 77283
L77336 77114
L77364 77058
L77392 77030
L77449 77002
L77561 77002
L77617 77030
" />
<path d="M78124 77395
L78124 77086
L78096 77030
L78039 77002
L77927 77002
L77871 77030
" />
<path d="M78124 77367
L78067 77395
L77927 77395
L77871 77367
L77842 77311
L77842 77255
L77871 77199
L77927 77170
L78067 77170
L78124 77142
" />
<path d="M78658 77395
L78658 76805
" />
<path d="M78658 77367
L78602 77395
L78489 77395
L78433 77367
L78405 77339
L78377 77283
L78377 77114
L78405 77058
L78433 77030
L78489 77002
L78602 77002
L78658 77030
" />
<path d="M79670 76805
L79389 76805
L79361 77086
L79389 77058
L79445 77030
L79586 77030
L79642 77058
L79670 77086
L79698 77142
L79698 77283
L79670 77339
L79642 77367
L79586 77395
L79445 77395
L79389 77367
L79361 77339
" />
<path d="M79952 77339
L79980 77367
L79952 77395
L79923 77367
L79952 77339
L79952 77395
" />
<path d="M80261 77395
L80373 77395
L80430 77367
L80458 77339
L80514 77255
L80542 77142
L80542 76917
L80514 76861
L80486 76833
L80430 76805
L80317 76805
L80261 76833
L80233 76861
L80205 76917
L80205 77058
L80233 77114
L80261 77142
L80317 77170
L80430 77170
L80486 77142
L80514 77114
L80542 77058
" />
<path d="M80823 77395
L80936 77395
L80992 77367
L81020 77339
L81076 77255
L81105 77142
L81105 76917
L81076 76861
L81048 76833
L80992 76805
L80880 76805
L80823 76833
L80795 76861
L80767 76917
L80767 77058
L80795 77114
L80823 77142
L80880 77170
L80992 77170
L81048 77142
L81076 77114
L81105 77058
" />
<path d="M81358 77339
L81386 77367
L81358 77395
L81330 77367
L81358 77339
L81358 77395
" />
<path d="M81751 76805
L81808 76805
L81864 76833
L81892 76861
L81920 76917
L81948 77030
L81948 77170
L81920 77283
L81892 77339
L81864 77367
L81808 77395
L81751 77395
L81695 77367
L81667 77339
L81639 77283
L81611 77170
L81611 77030
L81639 76917
L81667 76861
L81695 76833
L81751 76805
" />
<path d="M82201 77170
L82651 77170
" />
<path d="M83185 77002
L83185 77395
" />
<path d="M82932 77002
L82932 77311
L82961 77367
L83017 77395
L83101 77395
L83157 77367
L83185 77339
" />
<path d="M83467 77002
L83467 77395
" />
<path d="M83467 77058
L83495 77030
L83551 77002
L83635 77002
L83692 77030
L83720 77086
L83720 77395
" />
<path d="M84001 77395
L84001 76805
" />
<path d="M84057 77170
L84226 77395
" />
<path d="M84226 77002
L84001 77227
" />
<path d="M84479 77002
L84479 77395
" />
<path d="M84479 77058
L84507 77030
L84563 77002
L84648 77002
L84704 77030
L84732 77086
L84732 77395
" />
<path d="M85098 77395
L85042 77367
L85013 77339
L84985 77283
L84985 77114
L85013 77058
L85042 77030
L85098 77002
L85182 77002
L85238 77030
L85267 77058
L85295 77114
L85295 77283
L85267 77339
L85238 77367
L85182 77395
L85098 77395
" />
<path d="M85491 77002
L85604 77395
L85716 77114
L85829 77395
L85941 77002
" />
<path d="M86166 77002
L86166 77395
" />
<path d="M86166 77058
L86195 77030
L86251 77002
L86335 77002
L86391 77030
L86419 77086
L86419 77395
" />
<path d="M86701 77170
L87151 77170
" />
<path d="M87713 76805
L87432 76805
L87404 77086
L87432 77058
L87488 77030
L87629 77030
L87685 77058
L87713 77086
L87741 77142
L87741 77283
L87713 77339
L87685 77367
L87629 77395
L87488 77395
L87432 77367
L87404 77339
" />
<path d="M88304 77395
L87966 77395
" />
<path d="M88135 77395
L88135 76805
L88079 76889
L88022 76946
L87966 76974
" />
<path d="M88810 77395
L88810 76805
" />
<path d="M88810 77367
L88754 77395
L88641 77395
L88585 77367
L88557 77339
L88529 77283
L88529 77114
L88557 77058
L88585 77030
L88641 77002
L88754 77002
L88810 77030
" />
<path d="M89344 77002
L89344 77395
" />
<path d="M89204 76777
L89063 77199
L89428 77199
" />
<path d="M89907 77002
L89907 77395
" />
<path d="M89766 76777
L89625 77199
L89991 77199
" />
<path d="M90497 76805
L90216 76805
L90188 77086
L90216 77058
L90272 77030
L90413 77030
L90469 77058
L90497 77086
L90525 77142
L90525 77283
L90497 77339
L90469 77367
L90413 77395
L90272 77395
L90216 77367
L90188 77339
" />
<path d="M90891 76805
L90947 76805
L91003 76833
L91031 76861
L91060 76917
L91088 77030
L91088 77170
L91060 77283
L91031 77339
L91003 77367
L90947 77395
L90891 77395
L90835 77367
L90806 77339
L90778 77283
L90750 77170
L90750 77030
L90778 76917
L90806 76861
L90835 76833
L90891 76805
" />
<path d="M91453 76805
L91509 76805
L91566 76833
L91594 76861
L91622 76917
L91650 77030
L91650 77170
L91622 77283
L91594 77339
L91566 77367
L91509 77395
L91453 77395
L91397 77367
L91369 77339
L91341 77283
L91313 77170
L91313 77030
L91341 76917
L91369 76861
L91397 76833
L91453 76805
" />
<path d="M91847 76805
L92241 76805
L91988 77395
" />
<path d="M92381 77002
L92606 77002
" />
<path d="M92466 77395
L92466 76889
L92494 76833
L92550 76805
L92606 76805
" />
<path d="M92662 76638
L93225 76638
" />
<path d="M93112 77395
L92775 77395
" />
<path d="M92944 77395
L92944 76805
L92887 76889
L92831 76946
L92775 76974
" />
<path d="M93225 76638
L93787 76638
" />
<path d="M93675 77395
L93337 77395
" />
<path d="M93506 77395
L93506 76805
L93450 76889
L93394 76946
L93337 76974
" />
<path d="M93787 76638
L94350 76638
" />
<path d="M93872 76805
L94265 76805
L94012 77395
" />
<path d="M94743 77002
L94743 77395
" />
<path d="M94490 77002
L94490 77311
L94518 77367
L94575 77395
L94659 77395
L94715 77367
L94743 77339
" />
<path d="M95025 77395
L95025 76805
" />
<path d="M95025 77030
L95081 77002
L95193 77002
L95250 77030
L95278 77058
L95306 77114
L95306 77283
L95278 77339
L95250 77367
L95193 77395
L95081 77395
L95025 77367
" />
<path d="M95812 77002
L95812 77395
" />
<path d="M95559 77002
L95559 77311
L95587 77367
L95643 77395
L95728 77395
L95784 77367
L95812 77339
" />
<path d="M96093 77002
L96093 77395
" />
<path d="M96093 77058
L96121 77030
L96178 77002
L96262 77002
L96318 77030
L96346 77086
L96346 77395
" />
<path d="M96543 77002
L96768 77002
" />
<path d="M96628 76805
L96628 77311
L96656 77367
L96712 77395
L96768 77395
" />
<path d="M97218 77002
L97218 77395
" />
<path d="M96965 77002
L96965 77311
L96993 77367
L97049 77395
L97134 77395
L97190 77367
L97218 77339
" />
<path d="M97471 76861
L97499 76833
L97556 76805
L97696 76805
L97752 76833
L97781 76861
L97809 76917
L97809 76974
L97781 77058
L97443 77395
L97809 77395
" />
<path d="M98174 76805
L98230 76805
L98287 76833
L98315 76861
L98343 76917
L98371 77030
L98371 77170
L98343 77283
L98315 77339
L98287 77367
L98230 77395
L98174 77395
L98118 77367
L98090 77339
L98062 77283
L98034 77170
L98034 77030
L98062 76917
L98090 76861
L98118 76833
L98174 76805
" />
<path d="M98624 77339
L98652 77367
L98624 77395
L98596 77367
L98624 77339
L98624 77395
" />
<path d="M99018 76805
L99074 76805
L99130 76833
L99159 76861
L99187 76917
L99215 77030
L99215 77170
L99187 77283
L99159 77339
L99130 77367
L99074 77395
L99018 77395
L98962 77367
L98934 77339
L98905 77283
L98877 77170
L98877 77030
L98905 76917
L98934 76861
L98962 76833
L99018 76805
" />
<path d="M99721 77002
L99721 77395
" />
<path d="M99580 76777
L99440 77199
L99805 77199
" />
<path d="M100030 77339
L100058 77367
L100030 77395
L100002 77367
L100030 77339
L100030 77395
" />
<path d="M100621 77395
L100283 77395
" />
<path d="M100452 77395
L100452 76805
L100396 76889
L100340 76946
L100283 76974
" />
</g><path d="M69685 75396
L112205 75396
" />
</g>
<g style="fill:#840000; fill-opacity:0.0; 
stroke:#840000; stroke-width:118.110236; stroke-opacity:1; 
stroke-linecap:round; stroke-linejoin:round;">
<text x="103544.173228" y="76321.732283"
textLength="3912.480315" font-size="787.401575" lengthAdjust="spacingAndGlyphs"
text-anchor="start" opacity="0">Rev: v01</text>
<g class="stroked-text"><desc>Rev: v01</desc>
<path d="M104098 76293
L103902 76012
" />
<path d="M103761 76293
L103761 75703
L103986 75703
L104042 75731
L104070 75759
L104098 75815
L104098 75899
L104070 75956
L104042 75984
L103986 76012
L103761 76012
" />
<path d="M104577 76265
L104520 76293
L104408 76293
L104352 76265
L104323 76209
L104323 75984
L104352 75928
L104408 75899
L104520 75899
L104577 75928
L104605 75984
L104605 76040
L104323 76096
" />
<path d="M104802 75899
L104942 76293
L105083 75899
" />
<path d="M105308 76237
L105336 76265
L105308 76293
L105280 76265
L105308 76237
L105308 76293
" />
<path d="M105308 75928
L105336 75956
L105308 75984
L105280 75956
L105308 75928
L105308 75984
" />
<path d="M105983 75899
L106123 76293
L106264 75899
" />
<path d="M106601 75703
L106658 75703
L106714 75731
L106742 75759
L106770 75815
L106798 75928
L106798 76068
L106770 76181
L106742 76237
L106714 76265
L106658 76293
L106601 76293
L106545 76265
L106517 76237
L106489 76181
L106461 76068
L106461 75928
L106489 75815
L106517 75759
L106545 75731
L106601 75703
" />
<path d="M107361 76293
L107023 76293
" />
<path d="M107192 76293
L107192 75703
L107136 75787
L107079 75843
L107023 75871
" />
</g></g>
<g style="fill:#840000; fill-opacity:0.0; 
stroke:#840000; stroke-width:59.842520; stroke-opacity:1; 
stroke-linecap:round; stroke-linejoin:round;">
<text x="70079.606299" y="76321.732283"
textLength="3781.220472" font-size="787.401575" lengthAdjust="spacingAndGlyphs"
text-anchor="start" opacity="0">Size: A4</text>
<g class="stroked-text"><desc>Size: A4</desc>
<path d="M70222 76265
L70306 76293
L70446 76293
L70503 76265
L70531 76237
L70559 76181
L70559 76124
L70531 76068
L70503 76040
L70446 76012
L70334 75984
L70278 75956
L70250 75928
L70222 75871
L70222 75815
L70250 75759
L70278 75731
L70334 75703
L70475 75703
L70559 75731
" />
<path d="M70812 76293
L70812 75899
" />
<path d="M70812 75703
L70784 75731
L70812 75759
L70840 75731
L70812 75703
L70812 75759
" />
<path d="M71037 75899
L71346 75899
L71037 76293
L71346 76293
" />
<path d="M71796 76265
L71740 76293
L71628 76293
L71571 76265
L71543 76209
L71543 75984
L71571 75928
L71628 75899
L71740 75899
L71796 75928
L71824 75984
L71824 76040
L71543 76096
" />
<path d="M72078 76237
L72106 76265
L72078 76293
L72049 76265
L72078 76237
L72078 76293
" />
<path d="M72078 75928
L72106 75956
L72078 75984
L72049 75956
L72078 75928
L72078 75984
" />
<path d="M72781 76124
L73062 76124
" />
<path d="M72724 76293
L72921 75703
L73118 76293
" />
<path d="M73568 75899
L73568 76293
" />
<path d="M73427 75674
L73287 76096
L73652 76096
" />
</g><text x="103544.173228" y="77424.094488"
textLength="3350.039370" font-size="787.401575" lengthAdjust="spacingAndGlyphs"
text-anchor="start" opacity="0">Id: 1/3</text>
<g class="stroked-text"><desc>Id: 1/3</desc>
<path d="M103714 77395
L103714 76805
" />
<path d="M104248 77395
L104248 76805
" />
<path d="M104248 77367
L104192 77395
L104080 77395
L104024 77367
L103995 77339
L103967 77283
L103967 77114
L103995 77058
L104024 77030
L104080 77002
L104192 77002
L104248 77030
" />
<path d="M104530 77339
L104558 77367
L104530 77395
L104502 77367
L104530 77339
L104530 77395
" />
<path d="M104530 77030
L104558 77058
L104530 77086
L104502 77058
L104530 77030
L104530 77086
" />
<path d="M105570 77395
L105233 77395
" />
<path d="M105401 77395
L105401 76805
L105345 76889
L105289 76946
L105233 76974
" />
<path d="M106245 76777
L105739 77536
" />
<path d="M106386 76805
L106751 76805
L106554 77030
L106639 77030
L106695 77058
L106723 77086
L106751 77142
L106751 77283
L106723 77339
L106695 77367
L106639 77395
L106470 77395
L106414 77367
L106386 77339
" />
</g><path d="M69685 73821
L112205 73821
" />
</g>
<g style="fill:#840000; fill-opacity:0.0; 
stroke:#840000; stroke-width:157.480315; stroke-opacity:1; 
stroke-linecap:round; stroke-linejoin:round;">
<text x="70079.606299" y="74924.094488"
textLength="33401.653543" font-size="1049.842520" lengthAdjust="spacingAndGlyphs"
text-anchor="start" opacity="0">Title: Compute Module 4 Carrierboard Utskytningsenhet</text>
<g class="stroked-text"><desc>Title: Compute Module 4 Carrierboard Utskytningsenhet</desc>
<path d="M70360 74099
L70810 74099
" />
<path d="M70486 74886
L70585 74099
" />
<path d="M70974 74886
L71039 74361
" />
<path d="M71072 74099
L71030 74136
L71063 74174
L71105 74136
L71072 74099
L71063 74174
" />
<path d="M71302 74361
L71602 74361
" />
<path d="M71447 74099
L71363 74774
L71391 74849
L71461 74886
L71536 74886
" />
<path d="M71911 74886
L71841 74849
L71812 74774
L71897 74099
" />
<path d="M72516 74849
L72436 74886
L72286 74886
L72216 74849
L72187 74774
L72225 74474
L72272 74399
L72352 74361
L72501 74361
L72572 74399
L72600 74474
L72591 74549
L72206 74624
" />
<path d="M72895 74811
L72928 74849
L72886 74886
L72853 74849
L72895 74811
L72886 74886
" />
<path d="M72947 74399
L72980 74436
L72937 74474
L72905 74436
L72947 74399
L72937 74474
" />
<path d="M74320 74811
L74278 74849
L74161 74886
L74086 74886
L73978 74849
L73912 74774
L73884 74699
L73865 74549
L73879 74436
L73936 74286
L73983 74211
L74067 74136
L74184 74099
L74259 74099
L74367 74136
L74400 74174
" />
<path d="M74761 74886
L74690 74849
L74657 74811
L74629 74736
L74657 74511
L74704 74436
L74747 74399
L74826 74361
L74939 74361
L75009 74399
L75042 74436
L75070 74511
L75042 74736
L74995 74811
L74953 74849
L74873 74886
L74761 74886
" />
<path d="M75360 74886
L75426 74361
" />
<path d="M75417 74436
L75459 74399
L75539 74361
L75651 74361
L75721 74399
L75750 74474
L75698 74886
" />
<path d="M75750 74474
L75796 74399
L75876 74361
L75989 74361
L76059 74399
L76087 74474
L76035 74886
" />
<path d="M76476 74361
L76378 75149
" />
<path d="M76471 74399
L76551 74361
L76701 74361
L76771 74399
L76804 74436
L76832 74511
L76804 74736
L76757 74811
L76715 74849
L76635 74886
L76485 74886
L76415 74849
" />
<path d="M77526 74361
L77460 74886
" />
<path d="M77188 74361
L77137 74774
L77165 74849
L77235 74886
L77348 74886
L77427 74849
L77470 74811
" />
<path d="M77788 74361
L78088 74361
" />
<path d="M77934 74099
L77849 74774
L77877 74849
L77948 74886
L78023 74886
" />
<path d="M78590 74849
L78510 74886
L78360 74886
L78290 74849
L78262 74774
L78299 74474
L78346 74399
L78426 74361
L78576 74361
L78646 74399
L78674 74474
L78665 74549
L78280 74624
" />
<path d="M79560 74886
L79658 74099
L79851 74661
L80183 74099
L80085 74886
" />
<path d="M80572 74886
L80502 74849
L80469 74811
L80441 74736
L80469 74511
L80516 74436
L80558 74399
L80638 74361
L80750 74361
L80821 74399
L80854 74436
L80882 74511
L80854 74736
L80807 74811
L80765 74849
L80685 74886
L80572 74886
" />
<path d="M81510 74886
L81608 74099
" />
<path d="M81514 74849
L81435 74886
L81285 74886
L81214 74849
L81182 74811
L81154 74736
L81182 74511
L81229 74436
L81271 74399
L81350 74361
L81500 74361
L81571 74399
" />
<path d="M82288 74361
L82222 74886
" />
<path d="M81950 74361
L81899 74774
L81927 74849
L81997 74886
L82110 74886
L82189 74849
L82232 74811
" />
<path d="M82710 74886
L82639 74849
L82611 74774
L82696 74099
" />
<path d="M83314 74849
L83235 74886
L83085 74886
L83014 74849
L82986 74774
L83024 74474
L83070 74399
L83150 74361
L83300 74361
L83370 74399
L83399 74474
L83389 74549
L83005 74624
" />
<path d="M84687 74361
L84622 74886
" />
<path d="M84537 74061
L84280 74624
L84767 74624
" />
<path d="M86094 74811
L86051 74849
L85934 74886
L85859 74886
L85751 74849
L85686 74774
L85658 74699
L85639 74549
L85653 74436
L85709 74286
L85756 74211
L85840 74136
L85958 74099
L86033 74099
L86140 74136
L86173 74174
" />
<path d="M86759 74886
L86811 74474
L86782 74399
L86712 74361
L86562 74361
L86483 74399
" />
<path d="M86764 74849
L86684 74886
L86497 74886
L86426 74849
L86398 74774
L86408 74699
L86454 74624
L86534 74586
L86722 74586
L86801 74549
" />
<path d="M87134 74886
L87200 74361
" />
<path d="M87181 74511
L87228 74436
L87270 74399
L87350 74361
L87425 74361
" />
<path d="M87621 74886
L87687 74361
" />
<path d="M87668 74511
L87715 74436
L87757 74399
L87837 74361
L87912 74361
" />
<path d="M88109 74886
L88175 74361
" />
<path d="M88207 74099
L88165 74136
L88198 74174
L88240 74136
L88207 74099
L88198 74174
" />
<path d="M88789 74849
L88709 74886
L88559 74886
L88489 74849
L88460 74774
L88498 74474
L88545 74399
L88624 74361
L88774 74361
L88845 74399
L88873 74474
L88863 74549
L88479 74624
" />
<path d="M89159 74886
L89224 74361
" />
<path d="M89206 74511
L89252 74436
L89295 74399
L89374 74361
L89449 74361
" />
<path d="M89646 74886
L89745 74099
" />
<path d="M89707 74399
L89787 74361
L89937 74361
L90007 74399
L90040 74436
L90068 74511
L90040 74736
L89993 74811
L89951 74849
L89871 74886
L89721 74886
L89651 74849
" />
<path d="M90471 74886
L90401 74849
L90368 74811
L90340 74736
L90368 74511
L90415 74436
L90457 74399
L90537 74361
L90649 74361
L90720 74399
L90752 74436
L90780 74511
L90752 74736
L90705 74811
L90663 74849
L90584 74886
L90471 74886
" />
<path d="M91408 74886
L91460 74474
L91432 74399
L91362 74361
L91212 74361
L91132 74399
" />
<path d="M91413 74849
L91333 74886
L91146 74886
L91076 74849
L91048 74774
L91057 74699
L91104 74624
L91184 74586
L91371 74586
L91451 74549
" />
<path d="M91783 74886
L91849 74361
" />
<path d="M91830 74511
L91877 74436
L91919 74399
L91999 74361
L92074 74361
" />
<path d="M92608 74886
L92707 74099
" />
<path d="M92613 74849
L92533 74886
L92383 74886
L92313 74849
L92280 74811
L92252 74736
L92280 74511
L92327 74436
L92369 74399
L92449 74361
L92599 74361
L92669 74399
" />
<path d="M93682 74099
L93602 74736
L93630 74811
L93663 74849
L93733 74886
L93883 74886
L93963 74849
L94005 74811
L94052 74736
L94132 74099
" />
<path d="M94361 74361
L94661 74361
" />
<path d="M94507 74099
L94422 74774
L94450 74849
L94521 74886
L94596 74886
" />
<path d="M94825 74849
L94896 74886
L95046 74886
L95125 74849
L95172 74774
L95177 74736
L95149 74661
L95078 74624
L94966 74624
L94896 74586
L94867 74511
L94872 74474
L94919 74399
L94999 74361
L95111 74361
L95181 74399
" />
<path d="M95495 74886
L95594 74099
" />
<path d="M95608 74586
L95795 74886
" />
<path d="M95861 74361
L95524 74661
" />
<path d="M96124 74361
L96245 74886
" />
<path d="M96498 74361
L96245 74886
L96147 75074
L96105 75111
L96025 75149
" />
<path d="M96686 74361
L96986 74361
" />
<path d="M96831 74099
L96747 74774
L96775 74849
L96845 74886
L96920 74886
" />
<path d="M97248 74361
L97183 74886
" />
<path d="M97239 74436
L97281 74399
L97361 74361
L97473 74361
L97544 74399
L97572 74474
L97520 74886
" />
<path d="M97895 74886
L97961 74361
" />
<path d="M97994 74099
L97951 74136
L97984 74174
L98026 74136
L97994 74099
L97984 74174
" />
<path d="M98336 74361
L98270 74886
" />
<path d="M98326 74436
L98369 74399
L98448 74361
L98561 74361
L98631 74399
L98659 74474
L98608 74886
" />
<path d="M99386 74361
L99306 74999
L99259 75074
L99217 75111
L99137 75149
L99025 75149
L98954 75111
" />
<path d="M99325 74849
L99245 74886
L99095 74886
L99025 74849
L98992 74811
L98964 74736
L98992 74511
L99039 74436
L99081 74399
L99161 74361
L99311 74361
L99381 74399
" />
<path d="M99662 74849
L99732 74886
L99882 74886
L99962 74849
L100009 74774
L100014 74736
L99986 74661
L99915 74624
L99803 74624
L99732 74586
L99704 74511
L99709 74474
L99756 74399
L99836 74361
L99948 74361
L100018 74399
" />
<path d="M100637 74849
L100557 74886
L100407 74886
L100337 74849
L100309 74774
L100346 74474
L100393 74399
L100473 74361
L100623 74361
L100693 74399
L100721 74474
L100712 74549
L100328 74624
" />
<path d="M101073 74361
L101007 74886
" />
<path d="M101064 74436
L101106 74399
L101185 74361
L101298 74361
L101368 74399
L101396 74474
L101345 74886
" />
<path d="M101720 74886
L101818 74099
" />
<path d="M102057 74886
L102109 74474
L102081 74399
L102010 74361
L101898 74361
L101818 74399
L101776 74436
" />
<path d="M102737 74849
L102657 74886
L102507 74886
L102437 74849
L102409 74774
L102446 74474
L102493 74399
L102573 74361
L102723 74361
L102793 74399
L102821 74474
L102812 74549
L102427 74624
" />
<path d="M103060 74361
L103360 74361
" />
<path d="M103205 74099
L103121 74774
L103149 74849
L103220 74886
L103295 74886
" />
</g></g>
<g style="fill:#840000; fill-opacity:0.0; 
stroke:#840000; stroke-width:59.842520; stroke-opacity:1; 
stroke-linecap:round; stroke-linejoin:round;">
<text x="70079.606299" y="73408.346457"
textLength="14462.322835" font-size="787.401575" lengthAdjust="spacingAndGlyphs"
text-anchor="start" opacity="0">File: cm4_cb_use_v01.kicad_sch</text>
<g class="stroked-text"><desc>File: cm4_cb_use_v01.kicad_sch</desc>
<path d="M70446 73070
L70250 73070
" />
<path d="M70250 73380
L70250 72789
L70531 72789
" />
<path d="M70756 73380
L70756 72986
" />
<path d="M70756 72789
L70728 72817
L70756 72845
L70784 72817
L70756 72789
L70756 72845
" />
<path d="M71121 73380
L71065 73352
L71037 73295
L71037 72789
" />
<path d="M71571 73352
L71515 73380
L71403 73380
L71346 73352
L71318 73295
L71318 73070
L71346 73014
L71403 72986
L71515 72986
L71571 73014
L71599 73070
L71599 73127
L71318 73183
" />
<path d="M71853 73323
L71881 73352
L71853 73380
L71824 73352
L71853 73323
L71853 73380
" />
<path d="M71853 73014
L71881 73042
L71853 73070
L71824 73042
L71853 73014
L71853 73070
" />
<path d="M72837 73352
L72781 73380
L72668 73380
L72612 73352
L72584 73323
L72556 73267
L72556 73098
L72584 73042
L72612 73014
L72668 72986
L72781 72986
L72837 73014
" />
<path d="M73090 73380
L73090 72986
" />
<path d="M73090 73042
L73118 73014
L73174 72986
L73259 72986
L73315 73014
L73343 73070
L73343 73380
" />
<path d="M73343 73070
L73371 73014
L73427 72986
L73512 72986
L73568 73014
L73596 73070
L73596 73380
" />
<path d="M74130 72986
L74130 73380
" />
<path d="M73990 72761
L73849 73183
L74215 73183
" />
<path d="M74299 73436
L74749 73436
" />
<path d="M75143 73352
L75087 73380
L74974 73380
L74918 73352
L74890 73323
L74862 73267
L74862 73098
L74890 73042
L74918 73014
L74974 72986
L75087 72986
L75143 73014
" />
<path d="M75396 73380
L75396 72789
" />
<path d="M75396 73014
L75452 72986
L75565 72986
L75621 73014
L75649 73042
L75677 73098
L75677 73267
L75649 73323
L75621 73352
L75565 73380
L75452 73380
L75396 73352
" />
<path d="M75790 73436
L76240 73436
" />
<path d="M76633 72986
L76633 73380
" />
<path d="M76380 72986
L76380 73295
L76408 73352
L76464 73380
L76549 73380
L76605 73352
L76633 73323
" />
<path d="M76886 73352
L76943 73380
L77055 73380
L77111 73352
L77139 73295
L77139 73267
L77111 73211
L77055 73183
L76971 73183
L76914 73155
L76886 73098
L76886 73070
L76914 73014
L76971 72986
L77055 72986
L77111 73014
" />
<path d="M77617 73352
L77561 73380
L77449 73380
L77392 73352
L77364 73295
L77364 73070
L77392 73014
L77449 72986
L77561 72986
L77617 73014
L77646 73070
L77646 73127
L77364 73183
" />
<path d="M77758 73436
L78208 73436
" />
<path d="M78292 72986
L78433 73380
L78574 72986
" />
<path d="M78911 72789
L78967 72789
L79024 72817
L79052 72845
L79080 72902
L79108 73014
L79108 73155
L79080 73267
L79052 73323
L79024 73352
L78967 73380
L78911 73380
L78855 73352
L78827 73323
L78799 73267
L78770 73155
L78770 73014
L78799 72902
L78827 72845
L78855 72817
L78911 72789
" />
<path d="M79670 73380
L79333 73380
" />
<path d="M79502 73380
L79502 72789
L79445 72874
L79389 72930
L79333 72958
" />
<path d="M79923 73323
L79952 73352
L79923 73380
L79895 73352
L79923 73323
L79923 73380
" />
<path d="M80205 73380
L80205 72789
" />
<path d="M80261 73155
L80430 73380
" />
<path d="M80430 72986
L80205 73211
" />
<path d="M80683 73380
L80683 72986
" />
<path d="M80683 72789
L80655 72817
L80683 72845
L80711 72817
L80683 72789
L80683 72845
" />
<path d="M81217 73352
L81161 73380
L81048 73380
L80992 73352
L80964 73323
L80936 73267
L80936 73098
L80964 73042
L80992 73014
L81048 72986
L81161 72986
L81217 73014
" />
<path d="M81723 73380
L81723 73070
L81695 73014
L81639 72986
L81526 72986
L81470 73014
" />
<path d="M81723 73352
L81667 73380
L81526 73380
L81470 73352
L81442 73295
L81442 73239
L81470 73183
L81526 73155
L81667 73155
L81723 73127
" />
<path d="M82257 73380
L82257 72789
" />
<path d="M82257 73352
L82201 73380
L82089 73380
L82033 73352
L82004 73323
L81976 73267
L81976 73098
L82004 73042
L82033 73014
L82089 72986
L82201 72986
L82257 73014
" />
<path d="M82398 73436
L82848 73436
" />
<path d="M82961 73352
L83017 73380
L83129 73380
L83185 73352
L83214 73295
L83214 73267
L83185 73211
L83129 73183
L83045 73183
L82989 73155
L82961 73098
L82961 73070
L82989 73014
L83045 72986
L83129 72986
L83185 73014
" />
<path d="M83720 73352
L83664 73380
L83551 73380
L83495 73352
L83467 73323
L83439 73267
L83439 73098
L83467 73042
L83495 73014
L83551 72986
L83664 72986
L83720 73014
" />
<path d="M83973 73380
L83973 72789
" />
<path d="M84226 73380
L84226 73070
L84198 73014
L84142 72986
L84057 72986
L84001 73014
L83973 73042
" />
</g><path d="M69685 71459
L112205 71459
" />
<text x="70079.606299" y="72345.354331"
textLength="3856.259843" font-size="787.401575" lengthAdjust="spacingAndGlyphs"
text-anchor="start" opacity="0">Sheet: /</text>
<g class="stroked-text"><desc>Sheet: /</desc>
<path d="M70222 72289
L70306 72317
L70446 72317
L70503 72289
L70531 72260
L70559 72204
L70559 72148
L70531 72092
L70503 72064
L70446 72035
L70334 72007
L70278 71979
L70250 71951
L70222 71895
L70222 71839
L70250 71782
L70278 71754
L70334 71726
L70475 71726
L70559 71754
" />
<path d="M70812 72317
L70812 71726
" />
<path d="M71065 72317
L71065 72007
L71037 71951
L70981 71923
L70896 71923
L70840 71951
L70812 71979
" />
<path d="M71571 72289
L71515 72317
L71403 72317
L71346 72289
L71318 72232
L71318 72007
L71346 71951
L71403 71923
L71515 71923
L71571 71951
L71599 72007
L71599 72064
L71318 72120
" />
<path d="M72078 72289
L72021 72317
L71909 72317
L71853 72289
L71824 72232
L71824 72007
L71853 71951
L71909 71923
L72021 71923
L72078 71951
L72106 72007
L72106 72064
L71824 72120
" />
<path d="M72274 71923
L72499 71923
" />
<path d="M72359 71726
L72359 72232
L72387 72289
L72443 72317
L72499 72317
" />
<path d="M72696 72260
L72724 72289
L72696 72317
L72668 72289
L72696 72260
L72696 72317
" />
<path d="M72696 71951
L72724 71979
L72696 72007
L72668 71979
L72696 71951
L72696 72007
" />
<path d="M73849 71698
L73343 72457
" />
</g></g>
<g style="fill:#840000; fill-opacity:0.0; 
stroke:#840000; stroke-width:118.110236; stroke-opacity:1; 
stroke-linecap:round; stroke-linejoin:round;">
<text x="70079.606299" y="71164.251969"
textLength="59.842520" font-size="787.401575" lengthAdjust="spacingAndGlyphs"
text-anchor="start" opacity="0"></text>
<g class="stroked-text"><desc></desc>
</g></g>
<g style="fill:#840000; fill-opacity:0.0; 
stroke:#840000; stroke-width:59.842520; stroke-opacity:1; 
stroke-linecap:round; stroke-linejoin:round;">
<text x="70079.606299" y="69983.149606"
textLength="118.110236" font-size="787.401575" lengthAdjust="spacingAndGlyphs"
text-anchor="start" opacity="0"></text>
<g class="stroked-text"><desc></desc>
</g><text x="70079.606299" y="68802.047244"
textLength="19632.401575" font-size="787.401575" lengthAdjust="spacingAndGlyphs"
text-anchor="start" opacity="0">creativecommons.org/licenses/by-sa/4.0/</text>
<g class="stroked-text"><desc>creativecommons.org/licenses/by-sa/4.0/</desc>
<path d="M70503 68745
L70446 68773
L70334 68773
L70278 68745
L70250 68717
L70222 68661
L70222 68492
L70250 68436
L70278 68408
L70334 68380
L70446 68380
L70503 68408
" />
<path d="M70756 68773
L70756 68380
" />
<path d="M70756 68492
L70784 68436
L70812 68408
L70868 68380
L70925 68380
" />
<path d="M71346 68745
L71290 68773
L71178 68773
L71121 68745
L71093 68689
L71093 68464
L71121 68408
L71178 68380
L71290 68380
L71346 68408
L71374 68464
L71374 68520
L71093 68577
" />
<path d="M71881 68773
L71881 68464
L71853 68408
L71796 68380
L71684 68380
L71628 68408
" />
<path d="M71881 68745
L71824 68773
L71684 68773
L71628 68745
L71599 68689
L71599 68633
L71628 68577
L71684 68548
L71824 68548
L71881 68520
" />
<path d="M72078 68380
L72302 68380
" />
<path d="M72162 68183
L72162 68689
L72190 68745
L72246 68773
L72302 68773
" />
<path d="M72499 68773
L72499 68380
" />
<path d="M72499 68183
L72471 68211
L72499 68239
L72527 68211
L72499 68183
L72499 68239
" />
<path d="M72724 68380
L72865 68773
L73006 68380
" />
<path d="M73455 68745
L73399 68773
L73287 68773
L73230 68745
L73202 68689
L73202 68464
L73230 68408
L73287 68380
L73399 68380
L73455 68408
L73484 68464
L73484 68520
L73202 68577
" />
<path d="M73990 68745
L73934 68773
L73821 68773
L73765 68745
L73737 68717
L73709 68661
L73709 68492
L73737 68436
L73765 68408
L73821 68380
L73934 68380
L73990 68408
" />
<path d="M74327 68773
L74271 68745
L74243 68717
L74215 68661
L74215 68492
L74243 68436
L74271 68408
L74327 68380
L74412 68380
L74468 68408
L74496 68436
L74524 68492
L74524 68661
L74496 68717
L74468 68745
L74412 68773
L74327 68773
" />
<path d="M74777 68773
L74777 68380
" />
<path d="M74777 68436
L74805 68408
L74862 68380
L74946 68380
L75002 68408
L75030 68464
L75030 68773
" />
<path d="M75030 68464
L75058 68408
L75115 68380
L75199 68380
L75255 68408
L75283 68464
L75283 68773
" />
<path d="M75565 68773
L75565 68380
" />
<path d="M75565 68436
L75593 68408
L75649 68380
L75733 68380
L75790 68408
L75818 68464
L75818 68773
" />
<path d="M75818 68464
L75846 68408
L75902 68380
L75986 68380
L76043 68408
L76071 68464
L76071 68773
" />
<path d="M76436 68773
L76380 68745
L76352 68717
L76324 68661
L76324 68492
L76352 68436
L76380 68408
L76436 68380
L76521 68380
L76577 68408
L76605 68436
L76633 68492
L76633 68661
L76605 68717
L76577 68745
L76521 68773
L76436 68773
" />
<path d="M76886 68380
L76886 68773
" />
<path d="M76886 68436
L76914 68408
L76971 68380
L77055 68380
L77111 68408
L77139 68464
L77139 68773
" />
<path d="M77392 68745
L77449 68773
L77561 68773
L77617 68745
L77646 68689
L77646 68661
L77617 68605
L77561 68577
L77477 68577
L77421 68548
L77392 68492
L77392 68464
L77421 68408
L77477 68380
L77561 68380
L77617 68408
" />
<path d="M77899 68717
L77927 68745
L77899 68773
L77871 68745
L77899 68717
L77899 68773
" />
<path d="M78264 68773
L78208 68745
L78180 68717
L78152 68661
L78152 68492
L78180 68436
L78208 68408
L78264 68380
L78349 68380
L78405 68408
L78433 68436
L78461 68492
L78461 68661
L78433 68717
L78405 68745
L78349 68773
L78264 68773
" />
<path d="M78714 68773
L78714 68380
" />
<path d="M78714 68492
L78742 68436
L78770 68408
L78827 68380
L78883 68380
" />
<path d="M79333 68380
L79333 68858
L79305 68914
L79277 68942
L79220 68970
L79136 68970
L79080 68942
" />
<path d="M79333 68745
L79277 68773
L79164 68773
L79108 68745
L79080 68717
L79052 68661
L79052 68492
L79080 68436
L79108 68408
L79164 68380
L79277 68380
L79333 68408
" />
<path d="M80036 68155
L79530 68914
" />
<path d="M80317 68773
L80261 68745
L80233 68689
L80233 68183
" />
<path d="M80542 68773
L80542 68380
" />
<path d="M80542 68183
L80514 68211
L80542 68239
L80570 68211
L80542 68183
L80542 68239
" />
<path d="M81076 68745
L81020 68773
L80908 68773
L80851 68745
L80823 68717
L80795 68661
L80795 68492
L80823 68436
L80851 68408
L80908 68380
L81020 68380
L81076 68408
" />
<path d="M81554 68745
L81498 68773
L81386 68773
L81330 68745
L81301 68689
L81301 68464
L81330 68408
L81386 68380
L81498 68380
L81554 68408
L81583 68464
L81583 68520
L81301 68577
" />
<path d="M81836 68380
L81836 68773
" />
<path d="M81836 68436
L81864 68408
L81920 68380
L82004 68380
L82061 68408
L82089 68464
L82089 68773
" />
<path d="M82342 68745
L82398 68773
L82511 68773
L82567 68745
L82595 68689
L82595 68661
L82567 68605
L82511 68577
L82426 68577
L82370 68548
L82342 68492
L82342 68464
L82370 68408
L82426 68380
L82511 68380
L82567 68408
" />
<path d="M83073 68745
L83017 68773
L82904 68773
L82848 68745
L82820 68689
L82820 68464
L82848 68408
L82904 68380
L83017 68380
L83073 68408
L83101 68464
L83101 68520
L82820 68577
" />
<path d="M83326 68745
L83382 68773
L83495 68773
L83551 68745
L83579 68689
L83579 68661
L83551 68605
L83495 68577
L83410 68577
L83354 68548
L83326 68492
L83326 68464
L83354 68408
L83410 68380
L83495 68380
L83551 68408
" />
<path d="M84254 68155
L83748 68914
" />
<path d="M84451 68773
L84451 68183
" />
<path d="M84451 68408
L84507 68380
L84620 68380
L84676 68408
L84704 68436
L84732 68492
L84732 68661
L84704 68717
L84676 68745
L84620 68773
L84507 68773
L84451 68745
" />
<path d="M84929 68380
L85070 68773
" />
<path d="M85210 68380
L85070 68773
L85013 68914
L84985 68942
L84929 68970
" />
<path d="M85435 68548
L85885 68548
" />
<path d="M86138 68745
L86195 68773
L86307 68773
L86363 68745
L86391 68689
L86391 68661
L86363 68605
L86307 68577
L86223 68577
L86166 68548
L86138 68492
L86138 68464
L86166 68408
L86223 68380
L86307 68380
L86363 68408
" />
<path d="M86898 68773
L86898 68464
L86869 68408
L86813 68380
L86701 68380
L86644 68408
" />
<path d="M86898 68745
L86841 68773
L86701 68773
L86644 68745
L86616 68689
L86616 68633
L86644 68577
L86701 68548
L86841 68548
L86898 68520
" />
<path d="M87601 68155
L87094 68914
" />
<path d="M88051 68380
L88051 68773
" />
<path d="M87910 68155
L87769 68577
L88135 68577
" />
<path d="M88360 68717
L88388 68745
L88360 68773
L88332 68745
L88360 68717
L88360 68773
" />
<path d="M88754 68183
L88810 68183
L88866 68211
L88894 68239
L88922 68295
L88950 68408
L88950 68548
L88922 68661
L88894 68717
L88866 68745
L88810 68773
L88754 68773
L88697 68745
L88669 68717
L88641 68661
L88613 68548
L88613 68408
L88641 68295
L88669 68239
L88697 68211
L88754 68183
" />
<path d="M89625 68155
L89119 68914
" />
</g><text x="70079.606299" y="67620.944882"
textLength="10464.803150" font-size="787.401575" lengthAdjust="spacingAndGlyphs"
text-anchor="start" opacity="0">License: CC BY-SA 4.0</text>
<g class="stroked-text"><desc>License: CC BY-SA 4.0</desc>
<path d="M70531 67592
L70250 67592
L70250 67002
" />
<path d="M70728 67592
L70728 67199
" />
<path d="M70728 67002
L70700 67030
L70728 67058
L70756 67030
L70728 67002
L70728 67058
" />
<path d="M71262 67564
L71206 67592
L71093 67592
L71037 67564
L71009 67536
L70981 67480
L70981 67311
L71009 67255
L71037 67227
L71093 67199
L71206 67199
L71262 67227
" />
<path d="M71740 67564
L71684 67592
L71571 67592
L71515 67564
L71487 67508
L71487 67283
L71515 67227
L71571 67199
L71684 67199
L71740 67227
L71768 67283
L71768 67339
L71487 67395
" />
<path d="M72021 67199
L72021 67592
" />
<path d="M72021 67255
L72049 67227
L72106 67199
L72190 67199
L72246 67227
L72274 67283
L72274 67592
" />
<path d="M72527 67564
L72584 67592
L72696 67592
L72752 67564
L72781 67508
L72781 67480
L72752 67424
L72696 67395
L72612 67395
L72556 67367
L72527 67311
L72527 67283
L72556 67227
L72612 67199
L72696 67199
L72752 67227
" />
<path d="M73259 67564
L73202 67592
L73090 67592
L73034 67564
L73006 67508
L73006 67283
L73034 67227
L73090 67199
L73202 67199
L73259 67227
L73287 67283
L73287 67339
L73006 67395
" />
<path d="M73540 67536
L73568 67564
L73540 67592
L73512 67564
L73540 67536
L73540 67592
" />
<path d="M73540 67227
L73568 67255
L73540 67283
L73512 67255
L73540 67227
L73540 67283
" />
<path d="M74608 67536
L74580 67564
L74496 67592
L74440 67592
L74355 67564
L74299 67508
L74271 67452
L74243 67339
L74243 67255
L74271 67142
L74299 67086
L74355 67030
L74440 67002
L74496 67002
L74580 67030
L74608 67058
" />
<path d="M75199 67536
L75171 67564
L75087 67592
L75030 67592
L74946 67564
L74890 67508
L74862 67452
L74833 67339
L74833 67255
L74862 67142
L74890 67086
L74946 67030
L75030 67002
L75087 67002
L75171 67030
L75199 67058
" />
<path d="M76099 67283
L76183 67311
L76211 67339
L76240 67395
L76240 67480
L76211 67536
L76183 67564
L76127 67592
L75902 67592
L75902 67002
L76099 67002
L76155 67030
L76183 67058
L76211 67114
L76211 67170
L76183 67227
L76155 67255
L76099 67283
L75902 67283
" />
<path d="M76605 67311
L76605 67592
" />
<path d="M76408 67002
L76605 67311
L76802 67002
" />
<path d="M76999 67367
L77449 67367
" />
<path d="M77702 67564
L77786 67592
L77927 67592
L77983 67564
L78011 67536
L78039 67480
L78039 67424
L78011 67367
L77983 67339
L77927 67311
L77814 67283
L77758 67255
L77730 67227
L77702 67170
L77702 67114
L77730 67058
L77758 67030
L77814 67002
L77955 67002
L78039 67030
" />
<path d="M78264 67424
L78545 67424
" />
<path d="M78208 67592
L78405 67002
L78602 67592
" />
<path d="M79502 67199
L79502 67592
" />
<path d="M79361 66974
L79220 67395
L79586 67395
" />
<path d="M79811 67536
L79839 67564
L79811 67592
L79783 67564
L79811 67536
L79811 67592
" />
<path d="M80205 67002
L80261 67002
L80317 67030
L80345 67058
L80373 67114
L80401 67227
L80401 67367
L80373 67480
L80345 67536
L80317 67564
L80261 67592
L80205 67592
L80148 67564
L80120 67536
L80092 67480
L80064 67367
L80064 67227
L80092 67114
L80120 67058
L80148 67030
L80205 67002
" />
</g><text x="70079.606299" y="66439.842520"
textLength="10155.472441" font-size="787.401575" lengthAdjust="spacingAndGlyphs"
text-anchor="start" opacity="0">Author: Martin Mland</text>
<g class="stroked-text"><desc>Author: Martin Mland</desc>
<path d="M70222 66242
L70503 66242
" />
<path d="M70165 66411
L70362 65821
L70559 66411
" />
<path d="M71009 66017
L71009 66411
" />
<path d="M70756 66017
L70756 66327
L70784 66383
L70840 66411
L70925 66411
L70981 66383
L71009 66355
" />
<path d="M71206 66017
L71431 66017
" />
<path d="M71290 65821
L71290 66327
L71318 66383
L71374 66411
L71431 66411
" />
<path d="M71628 66411
L71628 65821
" />
<path d="M71881 66411
L71881 66102
L71853 66046
L71796 66017
L71712 66017
L71656 66046
L71628 66074
" />
<path d="M72246 66411
L72190 66383
L72162 66355
L72134 66299
L72134 66130
L72162 66074
L72190 66046
L72246 66017
L72331 66017
L72387 66046
L72415 66074
L72443 66130
L72443 66299
L72415 66355
L72387 66383
L72331 66411
L72246 66411
" />
<path d="M72696 66411
L72696 66017
" />
<path d="M72696 66130
L72724 66074
L72752 66046
L72809 66017
L72865 66017
" />
<path d="M73062 66355
L73090 66383
L73062 66411
L73034 66383
L73062 66355
L73062 66411
" />
<path d="M73062 66046
L73090 66074
L73062 66102
L73034 66074
L73062 66046
L73062 66102
" />
<path d="M73793 66411
L73793 65821
L73990 66242
L74187 65821
L74187 66411
" />
<path d="M74721 66411
L74721 66102
L74693 66046
L74637 66017
L74524 66017
L74468 66046
" />
<path d="M74721 66383
L74665 66411
L74524 66411
L74468 66383
L74440 66327
L74440 66271
L74468 66214
L74524 66186
L74665 66186
L74721 66158
" />
<path d="M75002 66411
L75002 66017
" />
<path d="M75002 66130
L75030 66074
L75058 66046
L75115 66017
L75171 66017
" />
<path d="M75283 66017
L75508 66017
" />
<path d="M75368 65821
L75368 66327
L75396 66383
L75452 66411
L75508 66411
" />
<path d="M75705 66411
L75705 66017
" />
<path d="M75705 65821
L75677 65849
L75705 65877
L75733 65849
L75705 65821
L75705 65877
" />
<path d="M75986 66017
L75986 66411
" />
<path d="M75986 66074
L76015 66046
L76071 66017
L76155 66017
L76211 66046
L76240 66102
L76240 66411
" />
<path d="M76971 66411
L76971 65821
L77167 66242
L77364 65821
L77364 66411
" />
<path d="M77646 66046
L77702 66017
L77814 66017
L77871 66046
L77899 66102
" />
<path d="M78152 66383
L78096 66411
L77983 66411
L77927 66383
L77899 66327
L77899 66102
L77927 66046
L77983 66017
L78096 66017
L78152 66046
L78180 66102
L78180 66158
L77899 66186
L77702 66186
L77646 66214
L77617 66271
L77617 66327
L77646 66383
L77702 66411
L77814 66411
L77871 66383
L77899 66327
" />
<path d="M78517 66411
L78461 66383
L78433 66327
L78433 65821
" />
<path d="M78995 66411
L78995 66102
L78967 66046
L78911 66017
L78799 66017
L78742 66046
" />
<path d="M78995 66383
L78939 66411
L78799 66411
L78742 66383
L78714 66327
L78714 66271
L78742 66214
L78799 66186
L78939 66186
L78995 66158
" />
<path d="M79277 66017
L79277 66411
" />
<path d="M79277 66074
L79305 66046
L79361 66017
L79445 66017
L79502 66046
L79530 66102
L79530 66411
" />
<path d="M80064 66411
L80064 65821
" />
<path d="M80064 66383
L80008 66411
L79895 66411
L79839 66383
L79811 66355
L79783 66299
L79783 66130
L79811 66074
L79839 66046
L79895 66017
L80008 66017
L80064 66046
" />
</g><path d="M77559 75396
L77559 76577
" />
<path d="M102756 75396
L102756 77955
" />
</g>
<g style="fill:#FFFFFF; fill-opacity:0.0; 
stroke:#FFFFFF; stroke-width:59.842520; stroke-opacity:1; 
stroke-linecap:round; stroke-linejoin:round;">
</g>
<g style="fill:#FFFFFF; fill-opacity:1.0; 
stroke:#FFFFFF; stroke-width:0.039370; stroke-opacity:1; 
stroke-linecap:round; stroke-linejoin:round;">
<rect x="25000.000000" y="22000.000000" width="15000.000000" height="15000.000000" rx="0.000000" />
</g>
<g style="fill:#840084; fill-opacity:1.0; 
stroke:#840084; stroke-width:0.039370; stroke-opacity:1; 
stroke-linecap:round; stroke-linejoin:round;">
</g>
<g style="fill:#840084; fill-opacity:1.0; 
stroke:#840084; stroke-width:8.346457; stroke-opacity:1; 
stroke-linecap:round; stroke-linejoin:round;">
</g>
<g style="fill:#840084; fill-opacity:0.0; 
stroke:#840084; stroke-width:8.346457; stroke-opacity:1; 
stroke-linecap:round; stroke-linejoin:round;">
<path d="M25000 22000
L40000 22000
L40000 37000
L25000 37000
L25000 22000
" />
</g>
<g style="fill:#008484; fill-opacity:0.0; 
stroke:#008484; stroke-width:8.346457; stroke-opacity:1; 
stroke-linecap:round; stroke-linejoin:round;">
</g>
<g style="fill:#008484; fill-opacity:0.0; 
stroke:#008484; stroke-width:59.842520; stroke-opacity:1; 
stroke-linecap:round; stroke-linejoin:round;">
<text x="26876.496063" y="21745.393701"
textLength="3750.314961" font-size="666.653543" lengthAdjust="spacingAndGlyphs"
text-anchor="middle" opacity="0">CM4 GPIO</text>
<g class="stroked-text"><desc>CM4 GPIO</desc>
<path d="M25435 21673
L25412 21697
L25340 21721
L25293 21721
L25221 21697
L25174 21650
L25150 21602
L25126 21507
L25126 21435
L25150 21340
L25174 21292
L25221 21245
L25293 21221
L25340 21221
L25412 21245
L25435 21269
" />
<path d="M25650 21721
L25650 21221
L25816 21578
L25983 21221
L25983 21721
" />
<path d="M26435 21388
L26435 21721
" />
<path d="M26316 21197
L26197 21554
L26507 21554
" />
<path d="M27340 21245
L27293 21221
L27221 21221
L27150 21245
L27102 21292
L27078 21340
L27055 21435
L27055 21507
L27078 21602
L27102 21650
L27150 21697
L27221 21721
L27269 21721
L27340 21697
L27364 21673
L27364 21507
L27269 21507
" />
<path d="M27578 21721
L27578 21221
L27769 21221
L27816 21245
L27840 21269
L27864 21316
L27864 21388
L27840 21435
L27816 21459
L27769 21483
L27578 21483
" />
<path d="M28078 21721
L28078 21221
" />
<path d="M28412 21221
L28507 21221
L28555 21245
L28602 21292
L28626 21388
L28626 21554
L28602 21650
L28555 21697
L28507 21721
L28412 21721
L28364 21697
L28316 21650
L28293 21554
L28293 21388
L28316 21292
L28364 21245
L28412 21221
" />
</g></g>
<g style="fill:#848400; fill-opacity:0.0; 
stroke:#848400; stroke-width:59.842520; stroke-opacity:1; 
stroke-linecap:round; stroke-linejoin:round;">
<text x="29852.677165" y="37758.307087"
textLength="9702.716535" font-size="666.653543" lengthAdjust="spacingAndGlyphs"
text-anchor="middle" opacity="0">File: cm4-gpio.kicad_sch</text>
<g class="stroked-text"><desc>File: cm4-gpio.kicad_sch</desc>
<path d="M25316 37472
L25150 37472
" />
<path d="M25150 37734
L25150 37234
L25388 37234
" />
<path d="M25578 37734
L25578 37401
" />
<path d="M25578 37234
L25555 37258
L25578 37282
L25602 37258
L25578 37234
L25578 37282
" />
<path d="M25888 37734
L25840 37710
L25816 37663
L25816 37234
" />
<path d="M26269 37710
L26221 37734
L26126 37734
L26078 37710
L26055 37663
L26055 37472
L26078 37424
L26126 37401
L26221 37401
L26269 37424
L26293 37472
L26293 37520
L26055 37567
" />
<path d="M26507 37686
L26531 37710
L26507 37734
L26483 37710
L26507 37686
L26507 37734
" />
<path d="M26507 37424
L26531 37448
L26507 37472
L26483 37448
L26507 37424
L26507 37472
" />
<path d="M27340 37710
L27293 37734
L27197 37734
L27150 37710
L27126 37686
L27102 37639
L27102 37496
L27126 37448
L27150 37424
L27197 37401
L27293 37401
L27340 37424
" />
<path d="M27555 37734
L27555 37401
" />
<path d="M27555 37448
L27578 37424
L27626 37401
L27697 37401
L27745 37424
L27769 37472
L27769 37734
" />
<path d="M27769 37472
L27793 37424
L27840 37401
L27912 37401
L27959 37424
L27983 37472
L27983 37734
" />
<path d="M28435 37401
L28435 37734
" />
<path d="M28316 37210
L28197 37567
L28507 37567
" />
<path d="M28697 37544
L29078 37544
" />
<path d="M29531 37401
L29531 37805
L29507 37853
L29483 37877
L29435 37901
L29364 37901
L29316 37877
" />
<path d="M29531 37710
L29483 37734
L29388 37734
L29340 37710
L29316 37686
L29293 37639
L29293 37496
L29316 37448
L29340 37424
L29388 37401
L29483 37401
L29531 37424
" />
<path d="M29769 37401
L29769 37901
" />
<path d="M29769 37424
L29816 37401
L29912 37401
L29959 37424
L29983 37448
L30007 37496
L30007 37639
L29983 37686
L29959 37710
L29912 37734
L29816 37734
L29769 37710
" />
<path d="M30221 37734
L30221 37401
" />
<path d="M30221 37234
L30197 37258
L30221 37282
L30245 37258
L30221 37234
L30221 37282
" />
<path d="M30531 37734
L30483 37710
L30459 37686
L30435 37639
L30435 37496
L30459 37448
L30483 37424
L30531 37401
L30602 37401
L30650 37424
L30674 37448
L30697 37496
L30697 37639
L30674 37686
L30650 37710
L30602 37734
L30531 37734
" />
<path d="M30912 37686
L30935 37710
L30912 37734
L30888 37710
L30912 37686
L30912 37734
" />
<path d="M31150 37734
L31150 37234
" />
<path d="M31197 37544
L31340 37734
" />
<path d="M31340 37401
L31150 37591
" />
<path d="M31555 37734
L31555 37401
" />
<path d="M31555 37234
L31531 37258
L31555 37282
L31578 37258
L31555 37234
L31555 37282
" />
<path d="M32007 37710
L31959 37734
L31864 37734
L31816 37710
L31793 37686
L31769 37639
L31769 37496
L31793 37448
L31816 37424
L31864 37401
L31959 37401
L32007 37424
" />
<path d="M32435 37734
L32435 37472
L32412 37424
L32364 37401
L32269 37401
L32221 37424
" />
<path d="M32435 37710
L32388 37734
L32269 37734
L32221 37710
L32197 37663
L32197 37615
L32221 37567
L32269 37544
L32388 37544
L32435 37520
" />
<path d="M32888 37734
L32888 37234
" />
<path d="M32888 37710
L32840 37734
L32745 37734
L32697 37710
L32674 37686
L32650 37639
L32650 37496
L32674 37448
L32697 37424
L32745 37401
L32840 37401
L32888 37424
" />
<path d="M33007 37782
L33388 37782
" />
<path d="M33483 37710
L33531 37734
L33626 37734
L33674 37710
L33697 37663
L33697 37639
L33674 37591
L33626 37567
L33555 37567
L33507 37544
L33483 37496
L33483 37472
L33507 37424
L33555 37401
L33626 37401
L33674 37424
" />
<path d="M34126 37710
L34078 37734
L33983 37734
L33935 37710
L33912 37686
L33888 37639
L33888 37496
L33912 37448
L33935 37424
L33983 37401
L34078 37401
L34126 37424
" />
<path d="M34340 37734
L34340 37234
" />
<path d="M34555 37734
L34555 37472
L34531 37424
L34483 37401
L34412 37401
L34364 37424
L34340 37448
" />
</g></g>
<g style="fill:#FFFFFF; fill-opacity:0.0; 
stroke:#FFFFFF; stroke-width:59.842520; stroke-opacity:1; 
stroke-linecap:round; stroke-linejoin:round;">
</g>
<g style="fill:#FFFFFF; fill-opacity:1.0; 
stroke:#FFFFFF; stroke-width:0.039370; stroke-opacity:1; 
stroke-linecap:round; stroke-linejoin:round;">
<rect x="25000.000000" y="42000.000000" width="15000.000000" height="15000.000000" rx="0.000000" />
</g>
<g style="fill:#840084; fill-opacity:1.0; 
stroke:#840084; stroke-width:0.039370; stroke-opacity:1; 
stroke-linecap:round; stroke-linejoin:round;">
</g>
<g style="fill:#840084; fill-opacity:1.0; 
stroke:#840084; stroke-width:8.346457; stroke-opacity:1; 
stroke-linecap:round; stroke-linejoin:round;">
</g>
<g style="fill:#840084; fill-opacity:0.0; 
stroke:#840084; stroke-width:8.346457; stroke-opacity:1; 
stroke-linecap:round; stroke-linejoin:round;">
<path d="M25000 42000
L40000 42000
L40000 57000
L25000 57000
L25000 42000
" />
</g>
<g style="fill:#008484; fill-opacity:0.0; 
stroke:#008484; stroke-width:8.346457; stroke-opacity:1; 
stroke-linecap:round; stroke-linejoin:round;">
</g>
<g style="fill:#008484; fill-opacity:0.0; 
stroke:#008484; stroke-width:59.842520; stroke-opacity:1; 
stroke-linecap:round; stroke-linejoin:round;">
<text x="28138.385827" y="41745.393701"
textLength="6274.133858" font-size="666.653543" lengthAdjust="spacingAndGlyphs"
text-anchor="middle" opacity="0">CM4 High Speed</text>
<g class="stroked-text"><desc>CM4 High Speed</desc>
<path d="M25435 41673
L25412 41697
L25340 41721
L25293 41721
L25221 41697
L25174 41650
L25150 41602
L25126 41507
L25126 41435
L25150 41340
L25174 41292
L25221 41245
L25293 41221
L25340 41221
L25412 41245
L25435 41269
" />
<path d="M25650 41721
L25650 41221
L25816 41578
L25983 41221
L25983 41721
" />
<path d="M26435 41388
L26435 41721
" />
<path d="M26316 41197
L26197 41554
L26507 41554
" />
<path d="M27078 41721
L27078 41221
" />
<path d="M27078 41459
L27364 41459
" />
<path d="M27364 41721
L27364 41221
" />
<path d="M27602 41721
L27602 41388
" />
<path d="M27602 41221
L27578 41245
L27602 41269
L27626 41245
L27602 41221
L27602 41269
" />
<path d="M28055 41388
L28055 41792
L28031 41840
L28007 41864
L27959 41888
L27888 41888
L27840 41864
" />
<path d="M28055 41697
L28007 41721
L27912 41721
L27864 41697
L27840 41673
L27816 41626
L27816 41483
L27840 41435
L27864 41412
L27912 41388
L28007 41388
L28055 41412
" />
<path d="M28293 41721
L28293 41221
" />
<path d="M28507 41721
L28507 41459
L28483 41412
L28435 41388
L28364 41388
L28316 41412
L28293 41435
" />
<path d="M29102 41697
L29174 41721
L29293 41721
L29340 41697
L29364 41673
L29388 41626
L29388 41578
L29364 41531
L29340 41507
L29293 41483
L29197 41459
L29150 41435
L29126 41412
L29102 41364
L29102 41316
L29126 41269
L29150 41245
L29197 41221
L29316 41221
L29388 41245
" />
<path d="M29602 41388
L29602 41888
" />
<path d="M29602 41412
L29650 41388
L29745 41388
L29793 41412
L29816 41435
L29840 41483
L29840 41626
L29816 41673
L29793 41697
L29745 41721
L29650 41721
L29602 41697
" />
<path d="M30245 41697
L30197 41721
L30102 41721
L30055 41697
L30031 41650
L30031 41459
L30055 41412
L30102 41388
L30197 41388
L30245 41412
L30269 41459
L30269 41507
L30031 41554
" />
<path d="M30674 41697
L30626 41721
L30531 41721
L30483 41697
L30459 41650
L30459 41459
L30483 41412
L30531 41388
L30626 41388
L30674 41412
L30697 41459
L30697 41507
L30459 41554
" />
<path d="M31126 41721
L31126 41221
" />
<path d="M31126 41697
L31078 41721
L30983 41721
L30935 41697
L30912 41673
L30888 41626
L30888 41483
L30912 41435
L30935 41412
L30983 41388
L31078 41388
L31126 41412
" />
</g></g>
<g style="fill:#848400; fill-opacity:0.0; 
stroke:#848400; stroke-width:59.842520; stroke-opacity:1; 
stroke-linecap:round; stroke-linejoin:round;">
<text x="31245.551181" y="57758.307087"
textLength="12488.425197" font-size="666.653543" lengthAdjust="spacingAndGlyphs"
text-anchor="middle" opacity="0">File: cm4-high-speed.kicad_sch</text>
<g class="stroked-text"><desc>File: cm4-high-speed.kicad_sch</desc>
<path d="M25316 57472
L25150 57472
" />
<path d="M25150 57734
L25150 57234
L25388 57234
" />
<path d="M25578 57734
L25578 57401
" />
<path d="M25578 57234
L25555 57258
L25578 57282
L25602 57258
L25578 57234
L25578 57282
" />
<path d="M25888 57734
L25840 57710
L25816 57663
L25816 57234
" />
<path d="M26269 57710
L26221 57734
L26126 57734
L26078 57710
L26055 57663
L26055 57472
L26078 57424
L26126 57401
L26221 57401
L26269 57424
L26293 57472
L26293 57520
L26055 57567
" />
<path d="M26507 57686
L26531 57710
L26507 57734
L26483 57710
L26507 57686
L26507 57734
" />
<path d="M26507 57424
L26531 57448
L26507 57472
L26483 57448
L26507 57424
L26507 57472
" />
<path d="M27340 57710
L27293 57734
L27197 57734
L27150 57710
L27126 57686
L27102 57639
L27102 57496
L27126 57448
L27150 57424
L27197 57401
L27293 57401
L27340 57424
" />
<path d="M27555 57734
L27555 57401
" />
<path d="M27555 57448
L27578 57424
L27626 57401
L27697 57401
L27745 57424
L27769 57472
L27769 57734
" />
<path d="M27769 57472
L27793 57424
L27840 57401
L27912 57401
L27959 57424
L27983 57472
L27983 57734
" />
<path d="M28436 57401
L28436 57734
" />
<path d="M28316 57210
L28197 57567
L28507 57567
" />
<path d="M28697 57544
L29078 57544
" />
<path d="M29316 57734
L29316 57234
" />
<path d="M29531 57734
L29531 57472
L29507 57424
L29459 57401
L29388 57401
L29340 57424
L29316 57448
" />
<path d="M29769 57734
L29769 57401
" />
<path d="M29769 57234
L29745 57258
L29769 57282
L29793 57258
L29769 57234
L29769 57282
" />
<path d="M30221 57401
L30221 57805
L30197 57853
L30174 57877
L30126 57901
L30055 57901
L30007 57877
" />
<path d="M30221 57710
L30174 57734
L30078 57734
L30031 57710
L30007 57686
L29983 57639
L29983 57496
L30007 57448
L30031 57424
L30078 57401
L30174 57401
L30221 57424
" />
<path d="M30459 57734
L30459 57234
" />
<path d="M30674 57734
L30674 57472
L30650 57424
L30602 57401
L30531 57401
L30483 57424
L30459 57448
" />
<path d="M30912 57544
L31293 57544
" />
<path d="M31507 57710
L31555 57734
L31650 57734
L31697 57710
L31721 57663
L31721 57639
L31697 57591
L31650 57567
L31578 57567
L31531 57544
L31507 57496
L31507 57472
L31531 57424
L31578 57401
L31650 57401
L31697 57424
" />
<path d="M31936 57401
L31936 57901
" />
<path d="M31936 57424
L31983 57401
L32078 57401
L32126 57424
L32150 57448
L32174 57496
L32174 57639
L32150 57686
L32126 57710
L32078 57734
L31983 57734
L31936 57710
" />
<path d="M32578 57710
L32531 57734
L32436 57734
L32388 57710
L32364 57663
L32364 57472
L32388 57424
L32436 57401
L32531 57401
L32578 57424
L32602 57472
L32602 57520
L32364 57567
" />
<path d="M33007 57710
L32959 57734
L32864 57734
L32816 57710
L32793 57663
L32793 57472
L32816 57424
L32864 57401
L32959 57401
L33007 57424
L33031 57472
L33031 57520
L32793 57567
" />
<path d="M33459 57734
L33459 57234
" />
<path d="M33459 57710
L33412 57734
L33316 57734
L33269 57710
L33245 57686
L33221 57639
L33221 57496
L33245 57448
L33269 57424
L33316 57401
L33412 57401
L33459 57424
" />
<path d="M33697 57686
L33721 57710
L33697 57734
L33674 57710
L33697 57686
L33697 57734
" />
<path d="M33936 57734
L33936 57234
" />
<path d="M33983 57544
L34126 57734
" />
<path d="M34126 57401
L33936 57591
" />
<path d="M34340 57734
L34340 57401
" />
<path d="M34340 57234
L34316 57258
L34340 57282
L34364 57258
L34340 57234
L34340 57282
" />
<path d="M34793 57710
L34745 57734
L34650 57734
L34602 57710
L34578 57686
L34555 57639
L34555 57496
L34578 57448
L34602 57424
L34650 57401
L34745 57401
L34793 57424
" />
<path d="M35221 57734
L35221 57472
L35197 57424
L35150 57401
L35055 57401
L35007 57424
" />
<path d="M35221 57710
L35174 57734
L35055 57734
L35007 57710
L34983 57663
L34983 57615
L35007 57567
L35055 57544
L35174 57544
L35221 57520
" />
<path d="M35674 57734
L35674 57234
" />
<path d="M35674 57710
L35626 57734
L35531 57734
L35483 57710
L35459 57686
L35436 57639
L35436 57496
L35459 57448
L35483 57424
L35531 57401
L35626 57401
L35674 57424
" />
<path d="M35793 57782
L36174 57782
" />
<path d="M36269 57710
L36316 57734
L36412 57734
L36459 57710
L36483 57663
L36483 57639
L36459 57591
L36412 57567
L36340 57567
L36293 57544
L36269 57496
L36269 57472
L36293 57424
L36340 57401
L36412 57401
L36459 57424
" />
<path d="M36912 57710
L36864 57734
L36769 57734
L36721 57710
L36697 57686
L36674 57639
L36674 57496
L36697 57448
L36721 57424
L36769 57401
L36864 57401
L36912 57424
" />
<path d="M37126 57734
L37126 57234
" />
<path d="M37340 57734
L37340 57472
L37316 57424
L37269 57401
L37197 57401
L37150 57424
L37126 57448
" />
</g></g> 
</svg>
